M48
INCH,TZ
T1C0.0236
T2C0.0315
T3C0.0374
T4C0.0394
T5C0.0598
T6C0.0701
%
G90
G05
T1
X41270Y-34870
X60370Y-20470
X60370Y-23870
X60370Y-26870
X60370Y-28370
X60370Y-29870
X60370Y-31370
X60370Y-32870
T2
X40074Y-21174
X40074Y-22174
X40074Y-23174
X40074Y-24174
X43074Y-21174
X43074Y-22174
X43074Y-23174
X43074Y-24174
T3
X42463Y-26402
X42463Y-27386
X42463Y-28370
X42463Y-29354
X42463Y-30339
X46370Y-21670
X47354Y-21670
X48339Y-21670
X49323Y-21670
X51670Y-21670
X52654Y-21670
X53639Y-21670
T4
X42576Y-34170
X42665Y-18201
X42665Y-19201
X43078Y-37577
X43576Y-34170
X43665Y-18201
X43665Y-19201
X44062Y-37577
X44370Y-21270
X44370Y-22270
X44576Y-34170
X44665Y-18201
X44665Y-19201
X45665Y-18201
X45665Y-19201
X46370Y-34170
X46665Y-18201
X46665Y-19201
X46878Y-37577
X47370Y-34170
X47665Y-18201
X47665Y-19201
X47862Y-37577
X48370Y-34170
X48665Y-18201
X48665Y-19201
X49665Y-18201
X49665Y-19201
X50170Y-34170
X50665Y-18201
X50665Y-19201
X50678Y-37577
X51170Y-34170
X51662Y-37577
X51665Y-18201
X51665Y-19201
X52170Y-34170
X52665Y-18201
X52665Y-19201
X53665Y-18201
X53665Y-19201
X53970Y-34170
X54478Y-37577
X54665Y-18201
X54665Y-19201
X54720Y-24170
X54720Y-25170
X54720Y-26170
X54970Y-34170
X55462Y-37577
X55577Y-28128
X55577Y-29112
X55665Y-18201
X55665Y-19201
X55970Y-34170
X56665Y-18201
X56665Y-19201
X56870Y-21120
X56870Y-22120
X56870Y-23120
X56870Y-24120
X56870Y-25120
X56870Y-26120
X57665Y-18201
X57665Y-19201
X58665Y-18201
X58665Y-19201
X59270Y-21576
X59270Y-22560
X59277Y-24886
X59277Y-25870
X59665Y-18201
X59665Y-19201
X60665Y-18201
X60665Y-19201
X61665Y-18201
X61665Y-19201
T5
X59170Y-37670
X61170Y-37670
T6
X59370Y-33931
X59370Y-35270
X63276Y-33931
X63276Y-35270
T0
M30
