G04 #@! TF.GenerationSoftware,KiCad,Pcbnew,(7.0.0-0)*
G04 #@! TF.CreationDate,2023-04-26T13:08:56+01:00*
G04 #@! TF.ProjectId,Klipper Fan Hat,4b6c6970-7065-4722-9046-616e20486174,rev?*
G04 #@! TF.SameCoordinates,Original*
G04 #@! TF.FileFunction,Legend,Top*
G04 #@! TF.FilePolarity,Positive*
%FSLAX46Y46*%
G04 Gerber Fmt 4.6, Leading zero omitted, Abs format (unit mm)*
G04 Created by KiCad (PCBNEW (7.0.0-0)) date 2023-04-26 13:08:56*
%MOMM*%
%LPD*%
G01*
G04 APERTURE LIST*
%ADD10C,0.120000*%
%ADD11C,0.150000*%
%ADD12C,0.300000*%
%ADD13C,0.250000*%
G04 APERTURE END LIST*
D10*
X112000000Y-59614000D02*
X112000000Y-59614000D01*
X112000000Y-59614000D02*
X112000000Y-59614000D01*
X112000000Y-59614000D02*
X112000000Y-59614000D01*
X112000000Y-59614000D02*
X112000000Y-59614000D01*
X112000000Y-59614000D02*
X137000000Y-59614000D01*
X137000000Y-59614000D02*
X137000000Y-84614000D01*
X137000000Y-84614000D02*
X112000000Y-84614000D01*
X112000000Y-84614000D02*
X112000000Y-59614000D01*
D11*
X142483380Y-59169427D02*
X141483380Y-59169427D01*
X141483380Y-59169427D02*
X142197666Y-58836094D01*
X142197666Y-58836094D02*
X141483380Y-58502761D01*
X141483380Y-58502761D02*
X142483380Y-58502761D01*
X142483380Y-58026570D02*
X141483380Y-58026570D01*
X144055761Y-59359904D02*
X144103380Y-59217047D01*
X144103380Y-59217047D02*
X144103380Y-58978952D01*
X144103380Y-58978952D02*
X144055761Y-58883714D01*
X144055761Y-58883714D02*
X144008142Y-58836095D01*
X144008142Y-58836095D02*
X143912904Y-58788476D01*
X143912904Y-58788476D02*
X143817666Y-58788476D01*
X143817666Y-58788476D02*
X143722428Y-58836095D01*
X143722428Y-58836095D02*
X143674809Y-58883714D01*
X143674809Y-58883714D02*
X143627190Y-58978952D01*
X143627190Y-58978952D02*
X143579571Y-59169428D01*
X143579571Y-59169428D02*
X143531952Y-59264666D01*
X143531952Y-59264666D02*
X143484333Y-59312285D01*
X143484333Y-59312285D02*
X143389095Y-59359904D01*
X143389095Y-59359904D02*
X143293857Y-59359904D01*
X143293857Y-59359904D02*
X143198619Y-59312285D01*
X143198619Y-59312285D02*
X143151000Y-59264666D01*
X143151000Y-59264666D02*
X143103380Y-59169428D01*
X143103380Y-59169428D02*
X143103380Y-58931333D01*
X143103380Y-58931333D02*
X143151000Y-58788476D01*
X143103380Y-58169428D02*
X143103380Y-58074190D01*
X143103380Y-58074190D02*
X143151000Y-57978952D01*
X143151000Y-57978952D02*
X143198619Y-57931333D01*
X143198619Y-57931333D02*
X143293857Y-57883714D01*
X143293857Y-57883714D02*
X143484333Y-57836095D01*
X143484333Y-57836095D02*
X143722428Y-57836095D01*
X143722428Y-57836095D02*
X143912904Y-57883714D01*
X143912904Y-57883714D02*
X144008142Y-57931333D01*
X144008142Y-57931333D02*
X144055761Y-57978952D01*
X144055761Y-57978952D02*
X144103380Y-58074190D01*
X144103380Y-58074190D02*
X144103380Y-58169428D01*
X144103380Y-58169428D02*
X144055761Y-58264666D01*
X144055761Y-58264666D02*
X144008142Y-58312285D01*
X144008142Y-58312285D02*
X143912904Y-58359904D01*
X143912904Y-58359904D02*
X143722428Y-58407523D01*
X143722428Y-58407523D02*
X143484333Y-58407523D01*
X143484333Y-58407523D02*
X143293857Y-58359904D01*
X143293857Y-58359904D02*
X143198619Y-58312285D01*
X143198619Y-58312285D02*
X143151000Y-58264666D01*
X143151000Y-58264666D02*
X143103380Y-58169428D01*
X149784095Y-51107380D02*
X150403142Y-51107380D01*
X150403142Y-51107380D02*
X150069809Y-51488333D01*
X150069809Y-51488333D02*
X150212666Y-51488333D01*
X150212666Y-51488333D02*
X150307904Y-51535952D01*
X150307904Y-51535952D02*
X150355523Y-51583571D01*
X150355523Y-51583571D02*
X150403142Y-51678809D01*
X150403142Y-51678809D02*
X150403142Y-51916904D01*
X150403142Y-51916904D02*
X150355523Y-52012142D01*
X150355523Y-52012142D02*
X150307904Y-52059761D01*
X150307904Y-52059761D02*
X150212666Y-52107380D01*
X150212666Y-52107380D02*
X149926952Y-52107380D01*
X149926952Y-52107380D02*
X149831714Y-52059761D01*
X149831714Y-52059761D02*
X149784095Y-52012142D01*
X150688857Y-51107380D02*
X151022190Y-52107380D01*
X151022190Y-52107380D02*
X151355523Y-51107380D01*
X140989238Y-88622380D02*
X141322571Y-89622380D01*
X141322571Y-89622380D02*
X141655904Y-88622380D01*
X142560666Y-89527142D02*
X142513047Y-89574761D01*
X142513047Y-89574761D02*
X142370190Y-89622380D01*
X142370190Y-89622380D02*
X142274952Y-89622380D01*
X142274952Y-89622380D02*
X142132095Y-89574761D01*
X142132095Y-89574761D02*
X142036857Y-89479523D01*
X142036857Y-89479523D02*
X141989238Y-89384285D01*
X141989238Y-89384285D02*
X141941619Y-89193809D01*
X141941619Y-89193809D02*
X141941619Y-89050952D01*
X141941619Y-89050952D02*
X141989238Y-88860476D01*
X141989238Y-88860476D02*
X142036857Y-88765238D01*
X142036857Y-88765238D02*
X142132095Y-88670000D01*
X142132095Y-88670000D02*
X142274952Y-88622380D01*
X142274952Y-88622380D02*
X142370190Y-88622380D01*
X142370190Y-88622380D02*
X142513047Y-88670000D01*
X142513047Y-88670000D02*
X142560666Y-88717619D01*
X143560666Y-89527142D02*
X143513047Y-89574761D01*
X143513047Y-89574761D02*
X143370190Y-89622380D01*
X143370190Y-89622380D02*
X143274952Y-89622380D01*
X143274952Y-89622380D02*
X143132095Y-89574761D01*
X143132095Y-89574761D02*
X143036857Y-89479523D01*
X143036857Y-89479523D02*
X142989238Y-89384285D01*
X142989238Y-89384285D02*
X142941619Y-89193809D01*
X142941619Y-89193809D02*
X142941619Y-89050952D01*
X142941619Y-89050952D02*
X142989238Y-88860476D01*
X142989238Y-88860476D02*
X143036857Y-88765238D01*
X143036857Y-88765238D02*
X143132095Y-88670000D01*
X143132095Y-88670000D02*
X143274952Y-88622380D01*
X143274952Y-88622380D02*
X143370190Y-88622380D01*
X143370190Y-88622380D02*
X143513047Y-88670000D01*
X143513047Y-88670000D02*
X143560666Y-88717619D01*
X107826285Y-88622380D02*
X107350095Y-88622380D01*
X107350095Y-88622380D02*
X107302476Y-89098571D01*
X107302476Y-89098571D02*
X107350095Y-89050952D01*
X107350095Y-89050952D02*
X107445333Y-89003333D01*
X107445333Y-89003333D02*
X107683428Y-89003333D01*
X107683428Y-89003333D02*
X107778666Y-89050952D01*
X107778666Y-89050952D02*
X107826285Y-89098571D01*
X107826285Y-89098571D02*
X107873904Y-89193809D01*
X107873904Y-89193809D02*
X107873904Y-89431904D01*
X107873904Y-89431904D02*
X107826285Y-89527142D01*
X107826285Y-89527142D02*
X107778666Y-89574761D01*
X107778666Y-89574761D02*
X107683428Y-89622380D01*
X107683428Y-89622380D02*
X107445333Y-89622380D01*
X107445333Y-89622380D02*
X107350095Y-89574761D01*
X107350095Y-89574761D02*
X107302476Y-89527142D01*
X108159619Y-88622380D02*
X108492952Y-89622380D01*
X108492952Y-89622380D02*
X108826285Y-88622380D01*
D12*
X147140857Y-98848142D02*
X145998000Y-98848142D01*
D11*
X125146095Y-51155000D02*
X125050857Y-51107380D01*
X125050857Y-51107380D02*
X124908000Y-51107380D01*
X124908000Y-51107380D02*
X124765143Y-51155000D01*
X124765143Y-51155000D02*
X124669905Y-51250238D01*
X124669905Y-51250238D02*
X124622286Y-51345476D01*
X124622286Y-51345476D02*
X124574667Y-51535952D01*
X124574667Y-51535952D02*
X124574667Y-51678809D01*
X124574667Y-51678809D02*
X124622286Y-51869285D01*
X124622286Y-51869285D02*
X124669905Y-51964523D01*
X124669905Y-51964523D02*
X124765143Y-52059761D01*
X124765143Y-52059761D02*
X124908000Y-52107380D01*
X124908000Y-52107380D02*
X125003238Y-52107380D01*
X125003238Y-52107380D02*
X125146095Y-52059761D01*
X125146095Y-52059761D02*
X125193714Y-52012142D01*
X125193714Y-52012142D02*
X125193714Y-51678809D01*
X125193714Y-51678809D02*
X125003238Y-51678809D01*
X125622286Y-52107380D02*
X125622286Y-51107380D01*
X125622286Y-51107380D02*
X126193714Y-52107380D01*
X126193714Y-52107380D02*
X126193714Y-51107380D01*
X126669905Y-52107380D02*
X126669905Y-51107380D01*
X126669905Y-51107380D02*
X126908000Y-51107380D01*
X126908000Y-51107380D02*
X127050857Y-51155000D01*
X127050857Y-51155000D02*
X127146095Y-51250238D01*
X127146095Y-51250238D02*
X127193714Y-51345476D01*
X127193714Y-51345476D02*
X127241333Y-51535952D01*
X127241333Y-51535952D02*
X127241333Y-51678809D01*
X127241333Y-51678809D02*
X127193714Y-51869285D01*
X127193714Y-51869285D02*
X127146095Y-51964523D01*
X127146095Y-51964523D02*
X127050857Y-52059761D01*
X127050857Y-52059761D02*
X126908000Y-52107380D01*
X126908000Y-52107380D02*
X126669905Y-52107380D01*
X112033238Y-88622380D02*
X112366571Y-89622380D01*
X112366571Y-89622380D02*
X112699904Y-88622380D01*
X113604666Y-89527142D02*
X113557047Y-89574761D01*
X113557047Y-89574761D02*
X113414190Y-89622380D01*
X113414190Y-89622380D02*
X113318952Y-89622380D01*
X113318952Y-89622380D02*
X113176095Y-89574761D01*
X113176095Y-89574761D02*
X113080857Y-89479523D01*
X113080857Y-89479523D02*
X113033238Y-89384285D01*
X113033238Y-89384285D02*
X112985619Y-89193809D01*
X112985619Y-89193809D02*
X112985619Y-89050952D01*
X112985619Y-89050952D02*
X113033238Y-88860476D01*
X113033238Y-88860476D02*
X113080857Y-88765238D01*
X113080857Y-88765238D02*
X113176095Y-88670000D01*
X113176095Y-88670000D02*
X113318952Y-88622380D01*
X113318952Y-88622380D02*
X113414190Y-88622380D01*
X113414190Y-88622380D02*
X113557047Y-88670000D01*
X113557047Y-88670000D02*
X113604666Y-88717619D01*
X114604666Y-89527142D02*
X114557047Y-89574761D01*
X114557047Y-89574761D02*
X114414190Y-89622380D01*
X114414190Y-89622380D02*
X114318952Y-89622380D01*
X114318952Y-89622380D02*
X114176095Y-89574761D01*
X114176095Y-89574761D02*
X114080857Y-89479523D01*
X114080857Y-89479523D02*
X114033238Y-89384285D01*
X114033238Y-89384285D02*
X113985619Y-89193809D01*
X113985619Y-89193809D02*
X113985619Y-89050952D01*
X113985619Y-89050952D02*
X114033238Y-88860476D01*
X114033238Y-88860476D02*
X114080857Y-88765238D01*
X114080857Y-88765238D02*
X114176095Y-88670000D01*
X114176095Y-88670000D02*
X114318952Y-88622380D01*
X114318952Y-88622380D02*
X114414190Y-88622380D01*
X114414190Y-88622380D02*
X114557047Y-88670000D01*
X114557047Y-88670000D02*
X114604666Y-88717619D01*
X138975380Y-61780857D02*
X138975380Y-62257047D01*
X138975380Y-62257047D02*
X137975380Y-62257047D01*
X138451571Y-61447523D02*
X138451571Y-61114190D01*
X138975380Y-60971333D02*
X138975380Y-61447523D01*
X138975380Y-61447523D02*
X137975380Y-61447523D01*
X137975380Y-61447523D02*
X137975380Y-60971333D01*
X138975380Y-60542761D02*
X137975380Y-60542761D01*
X137975380Y-60542761D02*
X137975380Y-60304666D01*
X137975380Y-60304666D02*
X138023000Y-60161809D01*
X138023000Y-60161809D02*
X138118238Y-60066571D01*
X138118238Y-60066571D02*
X138213476Y-60018952D01*
X138213476Y-60018952D02*
X138403952Y-59971333D01*
X138403952Y-59971333D02*
X138546809Y-59971333D01*
X138546809Y-59971333D02*
X138737285Y-60018952D01*
X138737285Y-60018952D02*
X138832523Y-60066571D01*
X138832523Y-60066571D02*
X138927761Y-60161809D01*
X138927761Y-60161809D02*
X138975380Y-60304666D01*
X138975380Y-60304666D02*
X138975380Y-60542761D01*
X149784095Y-59997380D02*
X150403142Y-59997380D01*
X150403142Y-59997380D02*
X150069809Y-60378333D01*
X150069809Y-60378333D02*
X150212666Y-60378333D01*
X150212666Y-60378333D02*
X150307904Y-60425952D01*
X150307904Y-60425952D02*
X150355523Y-60473571D01*
X150355523Y-60473571D02*
X150403142Y-60568809D01*
X150403142Y-60568809D02*
X150403142Y-60806904D01*
X150403142Y-60806904D02*
X150355523Y-60902142D01*
X150355523Y-60902142D02*
X150307904Y-60949761D01*
X150307904Y-60949761D02*
X150212666Y-60997380D01*
X150212666Y-60997380D02*
X149926952Y-60997380D01*
X149926952Y-60997380D02*
X149831714Y-60949761D01*
X149831714Y-60949761D02*
X149784095Y-60902142D01*
X150688857Y-59997380D02*
X151022190Y-60997380D01*
X151022190Y-60997380D02*
X151355523Y-59997380D01*
X143055380Y-67233904D02*
X143055380Y-66614857D01*
X143055380Y-66614857D02*
X143436333Y-66948190D01*
X143436333Y-66948190D02*
X143436333Y-66805333D01*
X143436333Y-66805333D02*
X143483952Y-66710095D01*
X143483952Y-66710095D02*
X143531571Y-66662476D01*
X143531571Y-66662476D02*
X143626809Y-66614857D01*
X143626809Y-66614857D02*
X143864904Y-66614857D01*
X143864904Y-66614857D02*
X143960142Y-66662476D01*
X143960142Y-66662476D02*
X144007761Y-66710095D01*
X144007761Y-66710095D02*
X144055380Y-66805333D01*
X144055380Y-66805333D02*
X144055380Y-67091047D01*
X144055380Y-67091047D02*
X144007761Y-67186285D01*
X144007761Y-67186285D02*
X143960142Y-67233904D01*
X143055380Y-66329142D02*
X144055380Y-65995809D01*
X144055380Y-65995809D02*
X143055380Y-65662476D01*
D12*
X159586857Y-98848142D02*
X158444000Y-98848142D01*
X159015428Y-99419571D02*
X159015428Y-98276714D01*
D11*
X130226095Y-51107380D02*
X130845142Y-51107380D01*
X130845142Y-51107380D02*
X130511809Y-51488333D01*
X130511809Y-51488333D02*
X130654666Y-51488333D01*
X130654666Y-51488333D02*
X130749904Y-51535952D01*
X130749904Y-51535952D02*
X130797523Y-51583571D01*
X130797523Y-51583571D02*
X130845142Y-51678809D01*
X130845142Y-51678809D02*
X130845142Y-51916904D01*
X130845142Y-51916904D02*
X130797523Y-52012142D01*
X130797523Y-52012142D02*
X130749904Y-52059761D01*
X130749904Y-52059761D02*
X130654666Y-52107380D01*
X130654666Y-52107380D02*
X130368952Y-52107380D01*
X130368952Y-52107380D02*
X130273714Y-52059761D01*
X130273714Y-52059761D02*
X130226095Y-52012142D01*
X131130857Y-51107380D02*
X131464190Y-52107380D01*
X131464190Y-52107380D02*
X131797523Y-51107380D01*
X142483380Y-56915142D02*
X141483380Y-56915142D01*
X141483380Y-56915142D02*
X142197666Y-56581809D01*
X142197666Y-56581809D02*
X141483380Y-56248476D01*
X141483380Y-56248476D02*
X142483380Y-56248476D01*
X141483380Y-55581809D02*
X141483380Y-55391333D01*
X141483380Y-55391333D02*
X141531000Y-55296095D01*
X141531000Y-55296095D02*
X141626238Y-55200857D01*
X141626238Y-55200857D02*
X141816714Y-55153238D01*
X141816714Y-55153238D02*
X142150047Y-55153238D01*
X142150047Y-55153238D02*
X142340523Y-55200857D01*
X142340523Y-55200857D02*
X142435761Y-55296095D01*
X142435761Y-55296095D02*
X142483380Y-55391333D01*
X142483380Y-55391333D02*
X142483380Y-55581809D01*
X142483380Y-55581809D02*
X142435761Y-55677047D01*
X142435761Y-55677047D02*
X142340523Y-55772285D01*
X142340523Y-55772285D02*
X142150047Y-55819904D01*
X142150047Y-55819904D02*
X141816714Y-55819904D01*
X141816714Y-55819904D02*
X141626238Y-55772285D01*
X141626238Y-55772285D02*
X141531000Y-55677047D01*
X141531000Y-55677047D02*
X141483380Y-55581809D01*
X144055761Y-56581808D02*
X144103380Y-56438951D01*
X144103380Y-56438951D02*
X144103380Y-56200856D01*
X144103380Y-56200856D02*
X144055761Y-56105618D01*
X144055761Y-56105618D02*
X144008142Y-56057999D01*
X144008142Y-56057999D02*
X143912904Y-56010380D01*
X143912904Y-56010380D02*
X143817666Y-56010380D01*
X143817666Y-56010380D02*
X143722428Y-56057999D01*
X143722428Y-56057999D02*
X143674809Y-56105618D01*
X143674809Y-56105618D02*
X143627190Y-56200856D01*
X143627190Y-56200856D02*
X143579571Y-56391332D01*
X143579571Y-56391332D02*
X143531952Y-56486570D01*
X143531952Y-56486570D02*
X143484333Y-56534189D01*
X143484333Y-56534189D02*
X143389095Y-56581808D01*
X143389095Y-56581808D02*
X143293857Y-56581808D01*
X143293857Y-56581808D02*
X143198619Y-56534189D01*
X143198619Y-56534189D02*
X143151000Y-56486570D01*
X143151000Y-56486570D02*
X143103380Y-56391332D01*
X143103380Y-56391332D02*
X143103380Y-56153237D01*
X143103380Y-56153237D02*
X143151000Y-56010380D01*
X144103380Y-55581808D02*
X143103380Y-55581808D01*
X140946380Y-79330761D02*
X141946380Y-78997428D01*
X141946380Y-78997428D02*
X140946380Y-78664095D01*
X141851142Y-77759333D02*
X141898761Y-77806952D01*
X141898761Y-77806952D02*
X141946380Y-77949809D01*
X141946380Y-77949809D02*
X141946380Y-78045047D01*
X141946380Y-78045047D02*
X141898761Y-78187904D01*
X141898761Y-78187904D02*
X141803523Y-78283142D01*
X141803523Y-78283142D02*
X141708285Y-78330761D01*
X141708285Y-78330761D02*
X141517809Y-78378380D01*
X141517809Y-78378380D02*
X141374952Y-78378380D01*
X141374952Y-78378380D02*
X141184476Y-78330761D01*
X141184476Y-78330761D02*
X141089238Y-78283142D01*
X141089238Y-78283142D02*
X140994000Y-78187904D01*
X140994000Y-78187904D02*
X140946380Y-78045047D01*
X140946380Y-78045047D02*
X140946380Y-77949809D01*
X140946380Y-77949809D02*
X140994000Y-77806952D01*
X140994000Y-77806952D02*
X141041619Y-77759333D01*
X141851142Y-76759333D02*
X141898761Y-76806952D01*
X141898761Y-76806952D02*
X141946380Y-76949809D01*
X141946380Y-76949809D02*
X141946380Y-77045047D01*
X141946380Y-77045047D02*
X141898761Y-77187904D01*
X141898761Y-77187904D02*
X141803523Y-77283142D01*
X141803523Y-77283142D02*
X141708285Y-77330761D01*
X141708285Y-77330761D02*
X141517809Y-77378380D01*
X141517809Y-77378380D02*
X141374952Y-77378380D01*
X141374952Y-77378380D02*
X141184476Y-77330761D01*
X141184476Y-77330761D02*
X141089238Y-77283142D01*
X141089238Y-77283142D02*
X140994000Y-77187904D01*
X140994000Y-77187904D02*
X140946380Y-77045047D01*
X140946380Y-77045047D02*
X140946380Y-76949809D01*
X140946380Y-76949809D02*
X140994000Y-76806952D01*
X140994000Y-76806952D02*
X141041619Y-76759333D01*
X156134095Y-60045000D02*
X156038857Y-59997380D01*
X156038857Y-59997380D02*
X155896000Y-59997380D01*
X155896000Y-59997380D02*
X155753143Y-60045000D01*
X155753143Y-60045000D02*
X155657905Y-60140238D01*
X155657905Y-60140238D02*
X155610286Y-60235476D01*
X155610286Y-60235476D02*
X155562667Y-60425952D01*
X155562667Y-60425952D02*
X155562667Y-60568809D01*
X155562667Y-60568809D02*
X155610286Y-60759285D01*
X155610286Y-60759285D02*
X155657905Y-60854523D01*
X155657905Y-60854523D02*
X155753143Y-60949761D01*
X155753143Y-60949761D02*
X155896000Y-60997380D01*
X155896000Y-60997380D02*
X155991238Y-60997380D01*
X155991238Y-60997380D02*
X156134095Y-60949761D01*
X156134095Y-60949761D02*
X156181714Y-60902142D01*
X156181714Y-60902142D02*
X156181714Y-60568809D01*
X156181714Y-60568809D02*
X155991238Y-60568809D01*
X156610286Y-60997380D02*
X156610286Y-59997380D01*
X156610286Y-59997380D02*
X157181714Y-60997380D01*
X157181714Y-60997380D02*
X157181714Y-59997380D01*
X157657905Y-60997380D02*
X157657905Y-59997380D01*
X157657905Y-59997380D02*
X157896000Y-59997380D01*
X157896000Y-59997380D02*
X158038857Y-60045000D01*
X158038857Y-60045000D02*
X158134095Y-60140238D01*
X158134095Y-60140238D02*
X158181714Y-60235476D01*
X158181714Y-60235476D02*
X158229333Y-60425952D01*
X158229333Y-60425952D02*
X158229333Y-60568809D01*
X158229333Y-60568809D02*
X158181714Y-60759285D01*
X158181714Y-60759285D02*
X158134095Y-60854523D01*
X158134095Y-60854523D02*
X158038857Y-60949761D01*
X158038857Y-60949761D02*
X157896000Y-60997380D01*
X157896000Y-60997380D02*
X157657905Y-60997380D01*
X127130285Y-88622380D02*
X126654095Y-88622380D01*
X126654095Y-88622380D02*
X126606476Y-89098571D01*
X126606476Y-89098571D02*
X126654095Y-89050952D01*
X126654095Y-89050952D02*
X126749333Y-89003333D01*
X126749333Y-89003333D02*
X126987428Y-89003333D01*
X126987428Y-89003333D02*
X127082666Y-89050952D01*
X127082666Y-89050952D02*
X127130285Y-89098571D01*
X127130285Y-89098571D02*
X127177904Y-89193809D01*
X127177904Y-89193809D02*
X127177904Y-89431904D01*
X127177904Y-89431904D02*
X127130285Y-89527142D01*
X127130285Y-89527142D02*
X127082666Y-89574761D01*
X127082666Y-89574761D02*
X126987428Y-89622380D01*
X126987428Y-89622380D02*
X126749333Y-89622380D01*
X126749333Y-89622380D02*
X126654095Y-89574761D01*
X126654095Y-89574761D02*
X126606476Y-89527142D01*
X127463619Y-88622380D02*
X127796952Y-89622380D01*
X127796952Y-89622380D02*
X128130285Y-88622380D01*
X102614619Y-81426238D02*
X101614619Y-81759571D01*
X101614619Y-81759571D02*
X102614619Y-82092904D01*
X101709857Y-82997666D02*
X101662238Y-82950047D01*
X101662238Y-82950047D02*
X101614619Y-82807190D01*
X101614619Y-82807190D02*
X101614619Y-82711952D01*
X101614619Y-82711952D02*
X101662238Y-82569095D01*
X101662238Y-82569095D02*
X101757476Y-82473857D01*
X101757476Y-82473857D02*
X101852714Y-82426238D01*
X101852714Y-82426238D02*
X102043190Y-82378619D01*
X102043190Y-82378619D02*
X102186047Y-82378619D01*
X102186047Y-82378619D02*
X102376523Y-82426238D01*
X102376523Y-82426238D02*
X102471761Y-82473857D01*
X102471761Y-82473857D02*
X102567000Y-82569095D01*
X102567000Y-82569095D02*
X102614619Y-82711952D01*
X102614619Y-82711952D02*
X102614619Y-82807190D01*
X102614619Y-82807190D02*
X102567000Y-82950047D01*
X102567000Y-82950047D02*
X102519380Y-82997666D01*
X101709857Y-83997666D02*
X101662238Y-83950047D01*
X101662238Y-83950047D02*
X101614619Y-83807190D01*
X101614619Y-83807190D02*
X101614619Y-83711952D01*
X101614619Y-83711952D02*
X101662238Y-83569095D01*
X101662238Y-83569095D02*
X101757476Y-83473857D01*
X101757476Y-83473857D02*
X101852714Y-83426238D01*
X101852714Y-83426238D02*
X102043190Y-83378619D01*
X102043190Y-83378619D02*
X102186047Y-83378619D01*
X102186047Y-83378619D02*
X102376523Y-83426238D01*
X102376523Y-83426238D02*
X102471761Y-83473857D01*
X102471761Y-83473857D02*
X102567000Y-83569095D01*
X102567000Y-83569095D02*
X102614619Y-83711952D01*
X102614619Y-83711952D02*
X102614619Y-83807190D01*
X102614619Y-83807190D02*
X102567000Y-83950047D01*
X102567000Y-83950047D02*
X102519380Y-83997666D01*
X143960142Y-61050666D02*
X144007761Y-61098285D01*
X144007761Y-61098285D02*
X144055380Y-61241142D01*
X144055380Y-61241142D02*
X144055380Y-61336380D01*
X144055380Y-61336380D02*
X144007761Y-61479237D01*
X144007761Y-61479237D02*
X143912523Y-61574475D01*
X143912523Y-61574475D02*
X143817285Y-61622094D01*
X143817285Y-61622094D02*
X143626809Y-61669713D01*
X143626809Y-61669713D02*
X143483952Y-61669713D01*
X143483952Y-61669713D02*
X143293476Y-61622094D01*
X143293476Y-61622094D02*
X143198238Y-61574475D01*
X143198238Y-61574475D02*
X143103000Y-61479237D01*
X143103000Y-61479237D02*
X143055380Y-61336380D01*
X143055380Y-61336380D02*
X143055380Y-61241142D01*
X143055380Y-61241142D02*
X143103000Y-61098285D01*
X143103000Y-61098285D02*
X143150619Y-61050666D01*
X144007761Y-60669713D02*
X144055380Y-60526856D01*
X144055380Y-60526856D02*
X144055380Y-60288761D01*
X144055380Y-60288761D02*
X144007761Y-60193523D01*
X144007761Y-60193523D02*
X143960142Y-60145904D01*
X143960142Y-60145904D02*
X143864904Y-60098285D01*
X143864904Y-60098285D02*
X143769666Y-60098285D01*
X143769666Y-60098285D02*
X143674428Y-60145904D01*
X143674428Y-60145904D02*
X143626809Y-60193523D01*
X143626809Y-60193523D02*
X143579190Y-60288761D01*
X143579190Y-60288761D02*
X143531571Y-60479237D01*
X143531571Y-60479237D02*
X143483952Y-60574475D01*
X143483952Y-60574475D02*
X143436333Y-60622094D01*
X143436333Y-60622094D02*
X143341095Y-60669713D01*
X143341095Y-60669713D02*
X143245857Y-60669713D01*
X143245857Y-60669713D02*
X143150619Y-60622094D01*
X143150619Y-60622094D02*
X143103000Y-60574475D01*
X143103000Y-60574475D02*
X143055380Y-60479237D01*
X143055380Y-60479237D02*
X143055380Y-60241142D01*
X143055380Y-60241142D02*
X143103000Y-60098285D01*
X140946380Y-83283714D02*
X140946380Y-83759904D01*
X140946380Y-83759904D02*
X141422571Y-83807523D01*
X141422571Y-83807523D02*
X141374952Y-83759904D01*
X141374952Y-83759904D02*
X141327333Y-83664666D01*
X141327333Y-83664666D02*
X141327333Y-83426571D01*
X141327333Y-83426571D02*
X141374952Y-83331333D01*
X141374952Y-83331333D02*
X141422571Y-83283714D01*
X141422571Y-83283714D02*
X141517809Y-83236095D01*
X141517809Y-83236095D02*
X141755904Y-83236095D01*
X141755904Y-83236095D02*
X141851142Y-83283714D01*
X141851142Y-83283714D02*
X141898761Y-83331333D01*
X141898761Y-83331333D02*
X141946380Y-83426571D01*
X141946380Y-83426571D02*
X141946380Y-83664666D01*
X141946380Y-83664666D02*
X141898761Y-83759904D01*
X141898761Y-83759904D02*
X141851142Y-83807523D01*
X140946380Y-82950380D02*
X141946380Y-82617047D01*
X141946380Y-82617047D02*
X140946380Y-82283714D01*
X116764095Y-51107380D02*
X117383142Y-51107380D01*
X117383142Y-51107380D02*
X117049809Y-51488333D01*
X117049809Y-51488333D02*
X117192666Y-51488333D01*
X117192666Y-51488333D02*
X117287904Y-51535952D01*
X117287904Y-51535952D02*
X117335523Y-51583571D01*
X117335523Y-51583571D02*
X117383142Y-51678809D01*
X117383142Y-51678809D02*
X117383142Y-51916904D01*
X117383142Y-51916904D02*
X117335523Y-52012142D01*
X117335523Y-52012142D02*
X117287904Y-52059761D01*
X117287904Y-52059761D02*
X117192666Y-52107380D01*
X117192666Y-52107380D02*
X116906952Y-52107380D01*
X116906952Y-52107380D02*
X116811714Y-52059761D01*
X116811714Y-52059761D02*
X116764095Y-52012142D01*
X117668857Y-51107380D02*
X118002190Y-52107380D01*
X118002190Y-52107380D02*
X118335523Y-51107380D01*
X136322095Y-51155000D02*
X136226857Y-51107380D01*
X136226857Y-51107380D02*
X136084000Y-51107380D01*
X136084000Y-51107380D02*
X135941143Y-51155000D01*
X135941143Y-51155000D02*
X135845905Y-51250238D01*
X135845905Y-51250238D02*
X135798286Y-51345476D01*
X135798286Y-51345476D02*
X135750667Y-51535952D01*
X135750667Y-51535952D02*
X135750667Y-51678809D01*
X135750667Y-51678809D02*
X135798286Y-51869285D01*
X135798286Y-51869285D02*
X135845905Y-51964523D01*
X135845905Y-51964523D02*
X135941143Y-52059761D01*
X135941143Y-52059761D02*
X136084000Y-52107380D01*
X136084000Y-52107380D02*
X136179238Y-52107380D01*
X136179238Y-52107380D02*
X136322095Y-52059761D01*
X136322095Y-52059761D02*
X136369714Y-52012142D01*
X136369714Y-52012142D02*
X136369714Y-51678809D01*
X136369714Y-51678809D02*
X136179238Y-51678809D01*
X136798286Y-52107380D02*
X136798286Y-51107380D01*
X136798286Y-51107380D02*
X137369714Y-52107380D01*
X137369714Y-52107380D02*
X137369714Y-51107380D01*
X137845905Y-52107380D02*
X137845905Y-51107380D01*
X137845905Y-51107380D02*
X138084000Y-51107380D01*
X138084000Y-51107380D02*
X138226857Y-51155000D01*
X138226857Y-51155000D02*
X138322095Y-51250238D01*
X138322095Y-51250238D02*
X138369714Y-51345476D01*
X138369714Y-51345476D02*
X138417333Y-51535952D01*
X138417333Y-51535952D02*
X138417333Y-51678809D01*
X138417333Y-51678809D02*
X138369714Y-51869285D01*
X138369714Y-51869285D02*
X138322095Y-51964523D01*
X138322095Y-51964523D02*
X138226857Y-52059761D01*
X138226857Y-52059761D02*
X138084000Y-52107380D01*
X138084000Y-52107380D02*
X137845905Y-52107380D01*
X117478285Y-88622380D02*
X117002095Y-88622380D01*
X117002095Y-88622380D02*
X116954476Y-89098571D01*
X116954476Y-89098571D02*
X117002095Y-89050952D01*
X117002095Y-89050952D02*
X117097333Y-89003333D01*
X117097333Y-89003333D02*
X117335428Y-89003333D01*
X117335428Y-89003333D02*
X117430666Y-89050952D01*
X117430666Y-89050952D02*
X117478285Y-89098571D01*
X117478285Y-89098571D02*
X117525904Y-89193809D01*
X117525904Y-89193809D02*
X117525904Y-89431904D01*
X117525904Y-89431904D02*
X117478285Y-89527142D01*
X117478285Y-89527142D02*
X117430666Y-89574761D01*
X117430666Y-89574761D02*
X117335428Y-89622380D01*
X117335428Y-89622380D02*
X117097333Y-89622380D01*
X117097333Y-89622380D02*
X117002095Y-89574761D01*
X117002095Y-89574761D02*
X116954476Y-89527142D01*
X117811619Y-88622380D02*
X118144952Y-89622380D01*
X118144952Y-89622380D02*
X118478285Y-88622380D01*
X156134095Y-51155000D02*
X156038857Y-51107380D01*
X156038857Y-51107380D02*
X155896000Y-51107380D01*
X155896000Y-51107380D02*
X155753143Y-51155000D01*
X155753143Y-51155000D02*
X155657905Y-51250238D01*
X155657905Y-51250238D02*
X155610286Y-51345476D01*
X155610286Y-51345476D02*
X155562667Y-51535952D01*
X155562667Y-51535952D02*
X155562667Y-51678809D01*
X155562667Y-51678809D02*
X155610286Y-51869285D01*
X155610286Y-51869285D02*
X155657905Y-51964523D01*
X155657905Y-51964523D02*
X155753143Y-52059761D01*
X155753143Y-52059761D02*
X155896000Y-52107380D01*
X155896000Y-52107380D02*
X155991238Y-52107380D01*
X155991238Y-52107380D02*
X156134095Y-52059761D01*
X156134095Y-52059761D02*
X156181714Y-52012142D01*
X156181714Y-52012142D02*
X156181714Y-51678809D01*
X156181714Y-51678809D02*
X155991238Y-51678809D01*
X156610286Y-52107380D02*
X156610286Y-51107380D01*
X156610286Y-51107380D02*
X157181714Y-52107380D01*
X157181714Y-52107380D02*
X157181714Y-51107380D01*
X157657905Y-52107380D02*
X157657905Y-51107380D01*
X157657905Y-51107380D02*
X157896000Y-51107380D01*
X157896000Y-51107380D02*
X158038857Y-51155000D01*
X158038857Y-51155000D02*
X158134095Y-51250238D01*
X158134095Y-51250238D02*
X158181714Y-51345476D01*
X158181714Y-51345476D02*
X158229333Y-51535952D01*
X158229333Y-51535952D02*
X158229333Y-51678809D01*
X158229333Y-51678809D02*
X158181714Y-51869285D01*
X158181714Y-51869285D02*
X158134095Y-51964523D01*
X158134095Y-51964523D02*
X158038857Y-52059761D01*
X158038857Y-52059761D02*
X157896000Y-52107380D01*
X157896000Y-52107380D02*
X157657905Y-52107380D01*
X131337238Y-88622380D02*
X131670571Y-89622380D01*
X131670571Y-89622380D02*
X132003904Y-88622380D01*
X132908666Y-89527142D02*
X132861047Y-89574761D01*
X132861047Y-89574761D02*
X132718190Y-89622380D01*
X132718190Y-89622380D02*
X132622952Y-89622380D01*
X132622952Y-89622380D02*
X132480095Y-89574761D01*
X132480095Y-89574761D02*
X132384857Y-89479523D01*
X132384857Y-89479523D02*
X132337238Y-89384285D01*
X132337238Y-89384285D02*
X132289619Y-89193809D01*
X132289619Y-89193809D02*
X132289619Y-89050952D01*
X132289619Y-89050952D02*
X132337238Y-88860476D01*
X132337238Y-88860476D02*
X132384857Y-88765238D01*
X132384857Y-88765238D02*
X132480095Y-88670000D01*
X132480095Y-88670000D02*
X132622952Y-88622380D01*
X132622952Y-88622380D02*
X132718190Y-88622380D01*
X132718190Y-88622380D02*
X132861047Y-88670000D01*
X132861047Y-88670000D02*
X132908666Y-88717619D01*
X133908666Y-89527142D02*
X133861047Y-89574761D01*
X133861047Y-89574761D02*
X133718190Y-89622380D01*
X133718190Y-89622380D02*
X133622952Y-89622380D01*
X133622952Y-89622380D02*
X133480095Y-89574761D01*
X133480095Y-89574761D02*
X133384857Y-89479523D01*
X133384857Y-89479523D02*
X133337238Y-89384285D01*
X133337238Y-89384285D02*
X133289619Y-89193809D01*
X133289619Y-89193809D02*
X133289619Y-89050952D01*
X133289619Y-89050952D02*
X133337238Y-88860476D01*
X133337238Y-88860476D02*
X133384857Y-88765238D01*
X133384857Y-88765238D02*
X133480095Y-88670000D01*
X133480095Y-88670000D02*
X133622952Y-88622380D01*
X133622952Y-88622380D02*
X133718190Y-88622380D01*
X133718190Y-88622380D02*
X133861047Y-88670000D01*
X133861047Y-88670000D02*
X133908666Y-88717619D01*
X143960142Y-54113238D02*
X144007761Y-54160857D01*
X144007761Y-54160857D02*
X144055380Y-54303714D01*
X144055380Y-54303714D02*
X144055380Y-54398952D01*
X144055380Y-54398952D02*
X144007761Y-54541809D01*
X144007761Y-54541809D02*
X143912523Y-54637047D01*
X143912523Y-54637047D02*
X143817285Y-54684666D01*
X143817285Y-54684666D02*
X143626809Y-54732285D01*
X143626809Y-54732285D02*
X143483952Y-54732285D01*
X143483952Y-54732285D02*
X143293476Y-54684666D01*
X143293476Y-54684666D02*
X143198238Y-54637047D01*
X143198238Y-54637047D02*
X143103000Y-54541809D01*
X143103000Y-54541809D02*
X143055380Y-54398952D01*
X143055380Y-54398952D02*
X143055380Y-54303714D01*
X143055380Y-54303714D02*
X143103000Y-54160857D01*
X143103000Y-54160857D02*
X143150619Y-54113238D01*
X144055380Y-53208476D02*
X144055380Y-53684666D01*
X144055380Y-53684666D02*
X143055380Y-53684666D01*
X144055380Y-52875142D02*
X143055380Y-52875142D01*
X144055380Y-52303714D02*
X143483952Y-52732285D01*
X143055380Y-52303714D02*
X143626809Y-52875142D01*
X121685238Y-88622380D02*
X122018571Y-89622380D01*
X122018571Y-89622380D02*
X122351904Y-88622380D01*
X123256666Y-89527142D02*
X123209047Y-89574761D01*
X123209047Y-89574761D02*
X123066190Y-89622380D01*
X123066190Y-89622380D02*
X122970952Y-89622380D01*
X122970952Y-89622380D02*
X122828095Y-89574761D01*
X122828095Y-89574761D02*
X122732857Y-89479523D01*
X122732857Y-89479523D02*
X122685238Y-89384285D01*
X122685238Y-89384285D02*
X122637619Y-89193809D01*
X122637619Y-89193809D02*
X122637619Y-89050952D01*
X122637619Y-89050952D02*
X122685238Y-88860476D01*
X122685238Y-88860476D02*
X122732857Y-88765238D01*
X122732857Y-88765238D02*
X122828095Y-88670000D01*
X122828095Y-88670000D02*
X122970952Y-88622380D01*
X122970952Y-88622380D02*
X123066190Y-88622380D01*
X123066190Y-88622380D02*
X123209047Y-88670000D01*
X123209047Y-88670000D02*
X123256666Y-88717619D01*
X124256666Y-89527142D02*
X124209047Y-89574761D01*
X124209047Y-89574761D02*
X124066190Y-89622380D01*
X124066190Y-89622380D02*
X123970952Y-89622380D01*
X123970952Y-89622380D02*
X123828095Y-89574761D01*
X123828095Y-89574761D02*
X123732857Y-89479523D01*
X123732857Y-89479523D02*
X123685238Y-89384285D01*
X123685238Y-89384285D02*
X123637619Y-89193809D01*
X123637619Y-89193809D02*
X123637619Y-89050952D01*
X123637619Y-89050952D02*
X123685238Y-88860476D01*
X123685238Y-88860476D02*
X123732857Y-88765238D01*
X123732857Y-88765238D02*
X123828095Y-88670000D01*
X123828095Y-88670000D02*
X123970952Y-88622380D01*
X123970952Y-88622380D02*
X124066190Y-88622380D01*
X124066190Y-88622380D02*
X124209047Y-88670000D01*
X124209047Y-88670000D02*
X124256666Y-88717619D01*
D13*
G36*
X147245899Y-77394000D02*
G01*
X147245899Y-77006752D01*
X148515351Y-76580610D01*
X148515351Y-76570779D01*
X147245899Y-76144636D01*
X147245899Y-75767220D01*
X148832501Y-76355357D01*
X148832501Y-76822960D01*
X147245899Y-77394000D01*
G37*
G36*
X148450230Y-74440377D02*
G01*
X148470128Y-74441313D01*
X148489560Y-74442872D01*
X148508526Y-74445054D01*
X148527026Y-74447861D01*
X148545061Y-74451290D01*
X148562629Y-74455344D01*
X148579732Y-74460021D01*
X148596369Y-74465322D01*
X148612540Y-74471246D01*
X148623062Y-74475542D01*
X148643225Y-74484738D01*
X148662252Y-74494589D01*
X148680144Y-74505094D01*
X148696900Y-74516254D01*
X148712521Y-74528068D01*
X148727007Y-74540537D01*
X148740357Y-74553660D01*
X148752572Y-74567438D01*
X148765142Y-74583665D01*
X148774642Y-74597893D01*
X148783648Y-74613231D01*
X148792160Y-74629676D01*
X148800178Y-74647231D01*
X148807701Y-74665894D01*
X148814730Y-74685666D01*
X148819678Y-74701222D01*
X148825802Y-74722226D01*
X148831352Y-74743136D01*
X148836327Y-74763953D01*
X148840728Y-74784677D01*
X148844555Y-74805307D01*
X148847808Y-74825843D01*
X148850486Y-74846286D01*
X148852589Y-74866636D01*
X148854292Y-74885469D01*
X148855768Y-74905211D01*
X148857017Y-74925861D01*
X148858039Y-74947419D01*
X148858834Y-74969885D01*
X148859281Y-74987331D01*
X148859600Y-75005288D01*
X148859792Y-75023756D01*
X148859856Y-75042735D01*
X148859792Y-75063069D01*
X148859600Y-75082721D01*
X148859281Y-75101688D01*
X148858834Y-75119972D01*
X148858259Y-75137572D01*
X148857294Y-75159975D01*
X148856102Y-75181162D01*
X148854683Y-75201134D01*
X148853037Y-75219891D01*
X148852589Y-75224390D01*
X148850539Y-75242282D01*
X148848021Y-75260481D01*
X148845036Y-75278987D01*
X148841583Y-75297801D01*
X148837663Y-75316921D01*
X148833275Y-75336349D01*
X148828420Y-75356084D01*
X148823097Y-75376126D01*
X148816679Y-75397604D01*
X148809607Y-75418014D01*
X148801880Y-75437355D01*
X148793498Y-75455627D01*
X148784462Y-75472831D01*
X148774771Y-75488966D01*
X148764426Y-75504033D01*
X148753427Y-75518031D01*
X148741406Y-75531228D01*
X148728209Y-75543890D01*
X148713837Y-75556019D01*
X148698289Y-75567613D01*
X148681566Y-75578672D01*
X148663668Y-75589198D01*
X148644594Y-75599189D01*
X148624345Y-75608645D01*
X148603608Y-75617261D01*
X148587345Y-75622968D01*
X148570474Y-75628030D01*
X148552994Y-75632445D01*
X148534906Y-75636214D01*
X148516209Y-75639337D01*
X148496903Y-75641814D01*
X148476989Y-75643645D01*
X148456467Y-75644830D01*
X148435335Y-75645368D01*
X148428156Y-75645404D01*
X148077668Y-75645404D01*
X148055884Y-75645081D01*
X148034612Y-75644112D01*
X148013850Y-75642496D01*
X147993599Y-75640235D01*
X147973859Y-75637327D01*
X147954630Y-75633773D01*
X147935911Y-75629573D01*
X147917704Y-75624727D01*
X147900008Y-75619235D01*
X147882822Y-75613097D01*
X147871649Y-75608645D01*
X147855409Y-75601562D01*
X147839868Y-75594095D01*
X147820233Y-75583542D01*
X147801840Y-75572309D01*
X147784690Y-75560395D01*
X147768782Y-75547799D01*
X147754116Y-75534522D01*
X147740692Y-75520564D01*
X147734446Y-75513330D01*
X147721690Y-75496487D01*
X147711966Y-75481841D01*
X147702669Y-75466153D01*
X147693800Y-75449424D01*
X147685359Y-75431652D01*
X147677344Y-75412839D01*
X147669758Y-75392984D01*
X147664348Y-75377408D01*
X147657623Y-75356311D01*
X147651552Y-75335334D01*
X147646136Y-75314477D01*
X147641374Y-75293740D01*
X147637267Y-75273123D01*
X147633814Y-75252627D01*
X147631016Y-75232251D01*
X147628872Y-75211995D01*
X147628872Y-75194674D01*
X147628872Y-75172047D01*
X147628872Y-75149955D01*
X147628872Y-75128397D01*
X147628872Y-75107373D01*
X147628872Y-75086883D01*
X147628872Y-75066928D01*
X147628872Y-75047506D01*
X147628872Y-75042735D01*
X147848568Y-75042735D01*
X147848722Y-75060172D01*
X147849528Y-75085001D01*
X147851026Y-75108238D01*
X147853215Y-75129881D01*
X147856095Y-75149932D01*
X147859666Y-75168389D01*
X147863929Y-75185254D01*
X147870687Y-75205263D01*
X147878675Y-75222440D01*
X147887891Y-75236786D01*
X147901497Y-75251562D01*
X147918003Y-75263834D01*
X147933297Y-75271848D01*
X147950447Y-75278259D01*
X147969454Y-75283068D01*
X147990318Y-75286273D01*
X148013038Y-75287876D01*
X148025095Y-75288077D01*
X148473464Y-75288077D01*
X148493384Y-75287565D01*
X148511740Y-75286031D01*
X148531700Y-75282841D01*
X148549407Y-75278177D01*
X148567215Y-75270876D01*
X148573908Y-75267133D01*
X148588009Y-75256518D01*
X148600392Y-75242998D01*
X148611057Y-75226575D01*
X148618831Y-75210186D01*
X148624345Y-75194898D01*
X148628901Y-75177546D01*
X148632684Y-75157816D01*
X148635155Y-75140318D01*
X148637132Y-75121297D01*
X148638615Y-75100754D01*
X148639603Y-75078688D01*
X148640020Y-75061140D01*
X148640159Y-75042735D01*
X148640020Y-75024333D01*
X148639603Y-75006796D01*
X148638615Y-74984757D01*
X148637132Y-74964254D01*
X148635155Y-74945287D01*
X148632684Y-74927856D01*
X148628901Y-74908227D01*
X148624345Y-74890999D01*
X148617623Y-74872832D01*
X148609638Y-74856798D01*
X148598728Y-74840789D01*
X148586100Y-74827685D01*
X148573908Y-74818764D01*
X148557415Y-74810603D01*
X148540835Y-74805204D01*
X148522002Y-74801277D01*
X148504585Y-74799129D01*
X148485604Y-74798004D01*
X148473464Y-74797820D01*
X148025095Y-74797820D01*
X148007184Y-74798275D01*
X147984928Y-74800295D01*
X147964529Y-74803931D01*
X147945986Y-74809184D01*
X147929299Y-74816053D01*
X147911052Y-74826912D01*
X147895706Y-74840296D01*
X147887891Y-74849539D01*
X147876563Y-74867779D01*
X147868883Y-74885557D01*
X147862431Y-74906167D01*
X147858399Y-74923483D01*
X147855058Y-74942392D01*
X147852408Y-74962893D01*
X147850450Y-74984987D01*
X147849183Y-75008674D01*
X147848607Y-75033954D01*
X147848568Y-75042735D01*
X147628872Y-75042735D01*
X147628928Y-75022052D01*
X147629097Y-75002158D01*
X147629379Y-74983053D01*
X147629773Y-74964736D01*
X147630280Y-74947209D01*
X147631132Y-74925066D01*
X147632184Y-74904326D01*
X147633436Y-74884989D01*
X147634889Y-74867053D01*
X147635283Y-74862789D01*
X147637066Y-74845698D01*
X147639424Y-74828194D01*
X147642356Y-74810276D01*
X147645862Y-74791943D01*
X147649942Y-74773196D01*
X147654597Y-74754036D01*
X147659827Y-74734461D01*
X147665630Y-74714472D01*
X147672669Y-74692974D01*
X147680323Y-74672504D01*
X147688591Y-74653063D01*
X147697473Y-74634651D01*
X147706970Y-74617266D01*
X147717082Y-74600911D01*
X147727807Y-74585584D01*
X147739147Y-74571285D01*
X147751302Y-74557748D01*
X147764686Y-74544704D01*
X147779299Y-74532155D01*
X147795140Y-74520101D01*
X147812210Y-74508540D01*
X147830509Y-74497474D01*
X147850037Y-74486902D01*
X147865490Y-74479297D01*
X147870794Y-74476824D01*
X147887528Y-74470255D01*
X147904870Y-74464332D01*
X147922820Y-74459055D01*
X147941380Y-74454424D01*
X147960547Y-74450440D01*
X147980324Y-74447101D01*
X148000709Y-74444409D01*
X148021702Y-74442363D01*
X148043304Y-74440963D01*
X148065515Y-74440209D01*
X148080660Y-74440065D01*
X148429866Y-74440065D01*
X148450230Y-74440377D01*
G37*
G36*
X147656227Y-74161384D02*
G01*
X147656227Y-73820727D01*
X147864383Y-73820727D01*
X147846814Y-73819600D01*
X147829371Y-73816219D01*
X147812053Y-73810584D01*
X147794860Y-73802695D01*
X147777792Y-73792552D01*
X147760849Y-73780155D01*
X147754107Y-73774565D01*
X147740931Y-73762517D01*
X147728328Y-73749667D01*
X147716300Y-73736016D01*
X147704847Y-73721564D01*
X147693967Y-73706310D01*
X147683662Y-73690255D01*
X147673932Y-73673399D01*
X147664775Y-73655741D01*
X147656361Y-73637602D01*
X147649068Y-73619516D01*
X147642897Y-73601484D01*
X147637848Y-73583506D01*
X147633921Y-73565581D01*
X147631116Y-73547709D01*
X147629433Y-73529891D01*
X147628872Y-73512126D01*
X147628872Y-73384753D01*
X147929779Y-73384753D01*
X147929779Y-73507424D01*
X147929959Y-73526081D01*
X147930500Y-73544116D01*
X147931402Y-73561530D01*
X147933430Y-73586487D01*
X147936270Y-73610046D01*
X147939922Y-73632208D01*
X147944385Y-73652972D01*
X147949659Y-73672339D01*
X147955745Y-73690309D01*
X147962642Y-73706880D01*
X147973101Y-73726803D01*
X147975941Y-73731395D01*
X147988323Y-73748325D01*
X148002601Y-73762998D01*
X148018777Y-73775413D01*
X148036849Y-73785571D01*
X148056818Y-73793472D01*
X148078683Y-73799115D01*
X148096327Y-73801866D01*
X148115038Y-73803347D01*
X148128104Y-73803630D01*
X148832501Y-73803630D01*
X148832501Y-74161384D01*
X147656227Y-74161384D01*
G37*
G36*
X148450230Y-72017732D02*
G01*
X148470128Y-72018668D01*
X148489560Y-72020227D01*
X148508526Y-72022409D01*
X148527026Y-72025216D01*
X148545061Y-72028646D01*
X148562629Y-72032699D01*
X148579732Y-72037376D01*
X148596369Y-72042677D01*
X148612540Y-72048601D01*
X148623062Y-72052897D01*
X148643225Y-72062093D01*
X148662252Y-72071944D01*
X148680144Y-72082449D01*
X148696900Y-72093609D01*
X148712521Y-72105423D01*
X148727007Y-72117892D01*
X148740357Y-72131016D01*
X148752572Y-72144793D01*
X148765142Y-72161020D01*
X148774642Y-72175249D01*
X148783648Y-72190586D01*
X148792160Y-72207032D01*
X148800178Y-72224586D01*
X148807701Y-72243249D01*
X148814730Y-72263021D01*
X148819678Y-72278577D01*
X148825802Y-72299581D01*
X148831352Y-72320492D01*
X148836327Y-72341309D01*
X148840728Y-72362032D01*
X148844555Y-72382662D01*
X148847808Y-72403198D01*
X148850486Y-72423641D01*
X148852589Y-72443991D01*
X148854292Y-72462824D01*
X148855768Y-72482566D01*
X148857017Y-72503216D01*
X148858039Y-72524774D01*
X148858834Y-72547241D01*
X148859281Y-72564687D01*
X148859600Y-72582643D01*
X148859792Y-72601111D01*
X148859856Y-72620090D01*
X148859792Y-72640425D01*
X148859600Y-72660076D01*
X148859281Y-72679043D01*
X148858834Y-72697327D01*
X148858259Y-72714927D01*
X148857294Y-72737330D01*
X148856102Y-72758518D01*
X148854683Y-72778490D01*
X148853037Y-72797246D01*
X148852589Y-72801745D01*
X148850539Y-72819637D01*
X148848021Y-72837836D01*
X148845036Y-72856342D01*
X148841583Y-72875156D01*
X148837663Y-72894276D01*
X148833275Y-72913704D01*
X148828420Y-72933439D01*
X148823097Y-72953481D01*
X148816679Y-72974959D01*
X148809607Y-72995369D01*
X148801880Y-73014710D01*
X148793498Y-73032982D01*
X148784462Y-73050186D01*
X148774771Y-73066322D01*
X148764426Y-73081388D01*
X148753427Y-73095386D01*
X148741406Y-73108583D01*
X148728209Y-73121246D01*
X148713837Y-73133374D01*
X148698289Y-73144968D01*
X148681566Y-73156027D01*
X148663668Y-73166553D01*
X148644594Y-73176544D01*
X148624345Y-73186001D01*
X148603608Y-73194616D01*
X148587345Y-73200323D01*
X148570474Y-73205385D01*
X148552994Y-73209800D01*
X148534906Y-73213569D01*
X148516209Y-73216692D01*
X148496903Y-73219169D01*
X148476989Y-73221000D01*
X148456467Y-73222185D01*
X148435335Y-73222723D01*
X148428156Y-73222759D01*
X148077668Y-73222759D01*
X148055884Y-73222436D01*
X148034612Y-73221467D01*
X148013850Y-73219851D01*
X147993599Y-73217590D01*
X147973859Y-73214682D01*
X147954630Y-73211128D01*
X147935911Y-73206929D01*
X147917704Y-73202082D01*
X147900008Y-73196590D01*
X147882822Y-73190452D01*
X147871649Y-73186001D01*
X147855409Y-73178917D01*
X147839868Y-73171450D01*
X147820233Y-73160898D01*
X147801840Y-73149664D01*
X147784690Y-73137750D01*
X147768782Y-73125154D01*
X147754116Y-73111877D01*
X147740692Y-73097919D01*
X147734446Y-73090685D01*
X147721690Y-73073842D01*
X147711966Y-73059196D01*
X147702669Y-73043509D01*
X147693800Y-73026779D01*
X147685359Y-73009007D01*
X147677344Y-72990194D01*
X147669758Y-72970339D01*
X147664348Y-72954764D01*
X147657623Y-72933666D01*
X147651552Y-72912689D01*
X147646136Y-72891832D01*
X147641374Y-72871095D01*
X147637267Y-72850479D01*
X147633814Y-72829982D01*
X147631016Y-72809606D01*
X147628872Y-72789350D01*
X147628872Y-72772029D01*
X147628872Y-72749403D01*
X147628872Y-72727310D01*
X147628872Y-72705752D01*
X147628872Y-72684728D01*
X147628872Y-72664238D01*
X147628872Y-72644283D01*
X147628872Y-72624862D01*
X147628872Y-72620090D01*
X147848568Y-72620090D01*
X147848722Y-72637527D01*
X147849528Y-72662357D01*
X147851026Y-72685593D01*
X147853215Y-72707236D01*
X147856095Y-72727287D01*
X147859666Y-72745744D01*
X147863929Y-72762609D01*
X147870687Y-72782618D01*
X147878675Y-72799795D01*
X147887891Y-72814141D01*
X147901497Y-72828917D01*
X147918003Y-72841189D01*
X147933297Y-72849203D01*
X147950447Y-72855614D01*
X147969454Y-72860423D01*
X147990318Y-72863629D01*
X148013038Y-72865231D01*
X148025095Y-72865432D01*
X148473464Y-72865432D01*
X148493384Y-72864920D01*
X148511740Y-72863387D01*
X148531700Y-72860196D01*
X148549407Y-72855533D01*
X148567215Y-72848231D01*
X148573908Y-72844488D01*
X148588009Y-72833873D01*
X148600392Y-72820354D01*
X148611057Y-72803930D01*
X148618831Y-72787541D01*
X148624345Y-72772253D01*
X148628901Y-72754902D01*
X148632684Y-72735171D01*
X148635155Y-72717673D01*
X148637132Y-72698653D01*
X148638615Y-72678109D01*
X148639603Y-72656044D01*
X148640020Y-72638495D01*
X148640159Y-72620090D01*
X148640020Y-72601688D01*
X148639603Y-72584151D01*
X148638615Y-72562112D01*
X148637132Y-72541609D01*
X148635155Y-72522642D01*
X148632684Y-72505211D01*
X148628901Y-72485582D01*
X148624345Y-72468354D01*
X148617623Y-72450187D01*
X148609638Y-72434153D01*
X148598728Y-72418145D01*
X148586100Y-72405040D01*
X148573908Y-72396119D01*
X148557415Y-72387958D01*
X148540835Y-72382559D01*
X148522002Y-72378632D01*
X148504585Y-72376484D01*
X148485604Y-72375359D01*
X148473464Y-72375175D01*
X148025095Y-72375175D01*
X148007184Y-72375630D01*
X147984928Y-72377650D01*
X147964529Y-72381287D01*
X147945986Y-72386539D01*
X147929299Y-72393408D01*
X147911052Y-72404267D01*
X147895706Y-72417651D01*
X147887891Y-72426894D01*
X147876563Y-72445134D01*
X147868883Y-72462913D01*
X147862431Y-72483523D01*
X147858399Y-72500838D01*
X147855058Y-72519747D01*
X147852408Y-72540248D01*
X147850450Y-72562342D01*
X147849183Y-72586029D01*
X147848607Y-72611309D01*
X147848568Y-72620090D01*
X147628872Y-72620090D01*
X147628928Y-72599407D01*
X147629097Y-72579513D01*
X147629379Y-72560408D01*
X147629773Y-72542091D01*
X147630280Y-72524564D01*
X147631132Y-72502422D01*
X147632184Y-72481681D01*
X147633436Y-72462344D01*
X147634889Y-72444409D01*
X147635283Y-72440144D01*
X147637066Y-72423054D01*
X147639424Y-72405549D01*
X147642356Y-72387631D01*
X147645862Y-72369298D01*
X147649942Y-72350552D01*
X147654597Y-72331391D01*
X147659827Y-72311816D01*
X147665630Y-72291827D01*
X147672669Y-72270329D01*
X147680323Y-72249860D01*
X147688591Y-72230419D01*
X147697473Y-72212006D01*
X147706970Y-72194622D01*
X147717082Y-72178266D01*
X147727807Y-72162939D01*
X147739147Y-72148640D01*
X147751302Y-72135103D01*
X147764686Y-72122060D01*
X147779299Y-72109511D01*
X147795140Y-72097456D01*
X147812210Y-72085895D01*
X147830509Y-72074829D01*
X147850037Y-72064257D01*
X147865490Y-72056652D01*
X147870794Y-72054179D01*
X147887528Y-72047610D01*
X147904870Y-72041687D01*
X147922820Y-72036410D01*
X147941380Y-72031779D01*
X147960547Y-72027795D01*
X147980324Y-72024456D01*
X148000709Y-72021764D01*
X148021702Y-72019718D01*
X148043304Y-72018318D01*
X148065515Y-72017564D01*
X148080660Y-72017421D01*
X148429866Y-72017421D01*
X148450230Y-72017732D01*
G37*
G36*
X147656227Y-71738740D02*
G01*
X147656227Y-71386114D01*
X147798132Y-71386114D01*
X147777636Y-71379721D01*
X147758462Y-71371014D01*
X147740610Y-71359993D01*
X147724081Y-71346657D01*
X147708874Y-71331008D01*
X147694989Y-71313044D01*
X147682427Y-71292767D01*
X147671187Y-71270175D01*
X147661269Y-71245269D01*
X147652674Y-71218049D01*
X147645401Y-71188515D01*
X147639451Y-71156667D01*
X147634822Y-71122505D01*
X147633004Y-71104556D01*
X147631516Y-71086028D01*
X147630359Y-71066922D01*
X147629533Y-71047238D01*
X147629037Y-71026975D01*
X147628872Y-71006133D01*
X147629191Y-70978187D01*
X147630147Y-70951303D01*
X147631742Y-70925480D01*
X147633974Y-70900719D01*
X147636844Y-70877021D01*
X147640352Y-70854384D01*
X147644498Y-70832809D01*
X147649281Y-70812296D01*
X147654703Y-70792845D01*
X147660762Y-70774455D01*
X147667459Y-70757128D01*
X147674793Y-70740863D01*
X147682766Y-70725659D01*
X147695920Y-70704844D01*
X147710510Y-70686419D01*
X147726640Y-70669996D01*
X147744415Y-70655189D01*
X147763836Y-70641997D01*
X147784902Y-70630420D01*
X147807613Y-70620458D01*
X147831970Y-70612112D01*
X147849123Y-70607446D01*
X147867006Y-70603497D01*
X147885621Y-70600266D01*
X147904967Y-70597754D01*
X147925044Y-70595959D01*
X147945852Y-70594882D01*
X147967392Y-70594523D01*
X148832501Y-70594523D01*
X148832501Y-70952278D01*
X148013982Y-70952278D01*
X147993568Y-70952612D01*
X147974804Y-70953613D01*
X147957688Y-70955283D01*
X147939325Y-70958168D01*
X147920903Y-70962750D01*
X147911827Y-70965955D01*
X147895959Y-70974290D01*
X147882548Y-70986044D01*
X147871596Y-71001218D01*
X147864028Y-71017300D01*
X147863101Y-71019811D01*
X147858162Y-71036395D01*
X147854245Y-71056015D01*
X147851761Y-71074684D01*
X147849987Y-71095460D01*
X147849079Y-71113599D01*
X147848625Y-71133087D01*
X147848568Y-71143337D01*
X147848688Y-71162636D01*
X147849049Y-71180943D01*
X147849650Y-71198259D01*
X147850826Y-71219804D01*
X147852428Y-71239586D01*
X147854459Y-71257604D01*
X147857598Y-71277648D01*
X147861404Y-71294937D01*
X147862246Y-71298064D01*
X147867951Y-71315225D01*
X147876468Y-71332435D01*
X147886990Y-71346617D01*
X147901469Y-71359119D01*
X147909690Y-71363888D01*
X147926222Y-71370550D01*
X147943192Y-71374957D01*
X147962747Y-71378163D01*
X147981017Y-71379916D01*
X148001081Y-71380835D01*
X148013982Y-71380985D01*
X148832501Y-71380985D01*
X148832501Y-71738740D01*
X147656227Y-71738740D01*
G37*
G36*
X151335300Y-75791862D02*
G01*
X151356943Y-75792699D01*
X151377949Y-75794093D01*
X151398317Y-75796044D01*
X151418047Y-75798554D01*
X151437139Y-75801621D01*
X151455593Y-75805246D01*
X151473410Y-75809428D01*
X151490589Y-75814168D01*
X151507130Y-75819466D01*
X151530745Y-75828458D01*
X151552926Y-75838705D01*
X151573671Y-75850207D01*
X151592982Y-75862963D01*
X151610984Y-75877063D01*
X151627964Y-75892756D01*
X151643922Y-75910042D01*
X151658859Y-75928920D01*
X151672774Y-75949392D01*
X151685666Y-75971456D01*
X151693694Y-75987050D01*
X151701267Y-76003352D01*
X151708387Y-76020362D01*
X151715052Y-76038081D01*
X151721263Y-76056507D01*
X151727020Y-76075641D01*
X151732323Y-76095482D01*
X151737188Y-76116167D01*
X151741739Y-76137831D01*
X151745977Y-76160473D01*
X151749900Y-76184093D01*
X151753510Y-76208692D01*
X151756806Y-76234269D01*
X151759788Y-76260824D01*
X151762456Y-76288358D01*
X151764810Y-76316870D01*
X151766850Y-76346361D01*
X151768577Y-76376830D01*
X151769989Y-76408277D01*
X151771088Y-76440703D01*
X151771873Y-76474107D01*
X151772344Y-76508490D01*
X151772461Y-76526048D01*
X151772501Y-76543851D01*
X151772501Y-77222602D01*
X150185899Y-77222602D01*
X150185899Y-76840484D01*
X150459451Y-76840484D01*
X151498949Y-76840484D01*
X151498949Y-76560948D01*
X151498897Y-76541642D01*
X151498741Y-76522941D01*
X151498483Y-76504844D01*
X151498120Y-76487351D01*
X151497383Y-76462245D01*
X151496412Y-76438499D01*
X151495209Y-76416113D01*
X151493773Y-76395087D01*
X151492103Y-76375421D01*
X151490201Y-76357115D01*
X151487303Y-76334822D01*
X151485698Y-76324582D01*
X151481885Y-76305395D01*
X151477283Y-76287583D01*
X151471894Y-76271147D01*
X151464049Y-76252537D01*
X151454972Y-76236077D01*
X151444664Y-76221766D01*
X151433125Y-76209605D01*
X151416991Y-76197403D01*
X151401182Y-76189164D01*
X151383223Y-76182677D01*
X151363115Y-76177944D01*
X151345480Y-76175419D01*
X151326470Y-76174017D01*
X151311309Y-76173701D01*
X150661623Y-76173701D01*
X150641216Y-76174490D01*
X150621988Y-76176857D01*
X150603939Y-76180801D01*
X150587071Y-76186324D01*
X150571382Y-76193424D01*
X150552298Y-76205345D01*
X150535311Y-76220071D01*
X150523947Y-76232956D01*
X150513763Y-76247419D01*
X150504758Y-76263460D01*
X150496661Y-76281146D01*
X150489361Y-76300701D01*
X150482857Y-76322128D01*
X150477149Y-76345426D01*
X150472238Y-76370594D01*
X150469406Y-76388413D01*
X150466928Y-76407062D01*
X150464805Y-76426544D01*
X150463035Y-76446856D01*
X150461619Y-76468000D01*
X150460557Y-76489976D01*
X150459849Y-76512783D01*
X150459495Y-76536422D01*
X150459451Y-76548553D01*
X150459451Y-76840484D01*
X150185899Y-76840484D01*
X150185899Y-76546416D01*
X150185941Y-76529060D01*
X150186066Y-76511935D01*
X150186567Y-76478375D01*
X150187402Y-76445737D01*
X150188570Y-76414021D01*
X150190073Y-76383226D01*
X150191910Y-76353353D01*
X150194080Y-76324402D01*
X150196585Y-76296372D01*
X150199423Y-76269264D01*
X150202595Y-76243078D01*
X150206101Y-76217813D01*
X150209942Y-76193470D01*
X150214116Y-76170048D01*
X150218624Y-76147548D01*
X150223466Y-76125970D01*
X150228641Y-76105313D01*
X150234228Y-76085451D01*
X150240302Y-76066257D01*
X150246864Y-76047731D01*
X150253913Y-76029873D01*
X150261450Y-76012682D01*
X150269474Y-75996160D01*
X150277986Y-75980305D01*
X150286985Y-75965118D01*
X150296472Y-75950599D01*
X150311616Y-75930072D01*
X150327857Y-75911049D01*
X150345196Y-75893527D01*
X150363631Y-75877509D01*
X150376531Y-75867665D01*
X150396955Y-75854068D01*
X150418801Y-75841809D01*
X150442066Y-75830887D01*
X150458364Y-75824349D01*
X150475294Y-75818405D01*
X150492856Y-75813056D01*
X150511048Y-75808300D01*
X150529871Y-75804140D01*
X150549326Y-75800573D01*
X150569411Y-75797601D01*
X150590128Y-75795224D01*
X150611476Y-75793441D01*
X150633455Y-75792252D01*
X150656065Y-75791658D01*
X150667607Y-75791583D01*
X151313019Y-75791583D01*
X151335300Y-75791862D01*
G37*
G36*
X151280107Y-75172672D02*
G01*
X151388245Y-75172672D01*
X151407121Y-75172026D01*
X151424961Y-75170087D01*
X151441763Y-75166857D01*
X151462553Y-75160539D01*
X151481500Y-75151923D01*
X151498604Y-75141011D01*
X151513864Y-75127801D01*
X151527281Y-75112293D01*
X151536134Y-75099155D01*
X151546453Y-75078939D01*
X151553289Y-75061366D01*
X151559351Y-75041728D01*
X151564639Y-75020023D01*
X151569153Y-74996252D01*
X151571733Y-74979257D01*
X151573968Y-74961344D01*
X151575860Y-74942512D01*
X151577408Y-74922762D01*
X151578612Y-74902093D01*
X151579471Y-74880507D01*
X151579987Y-74858002D01*
X151580159Y-74834579D01*
X151579959Y-74812341D01*
X151579358Y-74789759D01*
X151578356Y-74766834D01*
X151576954Y-74743564D01*
X151575150Y-74719950D01*
X151572946Y-74695993D01*
X151570342Y-74671691D01*
X151567337Y-74647046D01*
X151563930Y-74622057D01*
X151560124Y-74596723D01*
X151555916Y-74571046D01*
X151551308Y-74545025D01*
X151546299Y-74518660D01*
X151540890Y-74491951D01*
X151535079Y-74464898D01*
X151528868Y-74437501D01*
X151754549Y-74437501D01*
X151760035Y-74464864D01*
X151765167Y-74492458D01*
X151769946Y-74520283D01*
X151774370Y-74548338D01*
X151778441Y-74576623D01*
X151782158Y-74605138D01*
X151785520Y-74633884D01*
X151788529Y-74662861D01*
X151791184Y-74692068D01*
X151793484Y-74721505D01*
X151795431Y-74751172D01*
X151797024Y-74781070D01*
X151798263Y-74811199D01*
X151799148Y-74841558D01*
X151799679Y-74872147D01*
X151799856Y-74902967D01*
X151799481Y-74941702D01*
X151798358Y-74979207D01*
X151796486Y-75015483D01*
X151793865Y-75050528D01*
X151790495Y-75084345D01*
X151786377Y-75116931D01*
X151781509Y-75148288D01*
X151775893Y-75178415D01*
X151769528Y-75207313D01*
X151762414Y-75234981D01*
X151754552Y-75261419D01*
X151745940Y-75286627D01*
X151736580Y-75310606D01*
X151726471Y-75333355D01*
X151715612Y-75354875D01*
X151704006Y-75375164D01*
X151691650Y-75394225D01*
X151678545Y-75412055D01*
X151664692Y-75428656D01*
X151650090Y-75444027D01*
X151634739Y-75458168D01*
X151618639Y-75471080D01*
X151601791Y-75482762D01*
X151584193Y-75493214D01*
X151565847Y-75502437D01*
X151546752Y-75510429D01*
X151526908Y-75517193D01*
X151506315Y-75522726D01*
X151484973Y-75527030D01*
X151462883Y-75530104D01*
X151440044Y-75531949D01*
X151416455Y-75532564D01*
X150991595Y-75532564D01*
X150964290Y-75532004D01*
X150937940Y-75530326D01*
X150912545Y-75527530D01*
X150888105Y-75523614D01*
X150864620Y-75518581D01*
X150842090Y-75512428D01*
X150820515Y-75505157D01*
X150799895Y-75496767D01*
X150780230Y-75487258D01*
X150761520Y-75476631D01*
X150743765Y-75464885D01*
X150726966Y-75452021D01*
X150711121Y-75438038D01*
X150696231Y-75422936D01*
X150682296Y-75406715D01*
X150669317Y-75389376D01*
X150657153Y-75370868D01*
X150645775Y-75351142D01*
X150635181Y-75330196D01*
X150625372Y-75308032D01*
X150616348Y-75284649D01*
X150608108Y-75260047D01*
X150600653Y-75234226D01*
X150593983Y-75207186D01*
X150588098Y-75178928D01*
X150582997Y-75149451D01*
X150578681Y-75118755D01*
X150575150Y-75086840D01*
X150572403Y-75053706D01*
X150570441Y-75019353D01*
X150569755Y-75001720D01*
X150569264Y-74983782D01*
X150568970Y-74965539D01*
X150568899Y-74952121D01*
X150788568Y-74952121D01*
X150788835Y-74975729D01*
X150789635Y-74997827D01*
X150790969Y-75018414D01*
X150792836Y-75037492D01*
X150795236Y-75055059D01*
X150799267Y-75076134D01*
X150804246Y-75094523D01*
X150811803Y-75113734D01*
X150818915Y-75126083D01*
X150829950Y-75139504D01*
X150844816Y-75152608D01*
X150861455Y-75162435D01*
X150879868Y-75168987D01*
X150900054Y-75172262D01*
X150910812Y-75172672D01*
X151088621Y-75172672D01*
X151088621Y-74743965D01*
X150910812Y-74743965D01*
X150892463Y-74745133D01*
X150875616Y-74748640D01*
X150857384Y-74755933D01*
X150841315Y-74766591D01*
X150827410Y-74780616D01*
X150819343Y-74791836D01*
X150810477Y-74808259D01*
X150803114Y-74827875D01*
X150798305Y-74845867D01*
X150794459Y-74865903D01*
X150791574Y-74887982D01*
X150790041Y-74905882D01*
X150789049Y-74924932D01*
X150788598Y-74945132D01*
X150788568Y-74952121D01*
X150568899Y-74952121D01*
X150568872Y-74946991D01*
X150568966Y-74929534D01*
X150569249Y-74912372D01*
X150570381Y-74878931D01*
X150572268Y-74846668D01*
X150574909Y-74815585D01*
X150578305Y-74785680D01*
X150582456Y-74756954D01*
X150587361Y-74729407D01*
X150593021Y-74703039D01*
X150599436Y-74677849D01*
X150606605Y-74653838D01*
X150614529Y-74631006D01*
X150623208Y-74609352D01*
X150632642Y-74588878D01*
X150642830Y-74569582D01*
X150653772Y-74551465D01*
X150665470Y-74534526D01*
X150678064Y-74518637D01*
X150691696Y-74503772D01*
X150706367Y-74489932D01*
X150722077Y-74477118D01*
X150738825Y-74465329D01*
X150756611Y-74454565D01*
X150775437Y-74444826D01*
X150795300Y-74436112D01*
X150816202Y-74428423D01*
X150838143Y-74421760D01*
X150861122Y-74416121D01*
X150885140Y-74411508D01*
X150910196Y-74407920D01*
X150936290Y-74405357D01*
X150963423Y-74403819D01*
X150991595Y-74403307D01*
X151280107Y-74403307D01*
X151280107Y-75172672D01*
G37*
G36*
X151799856Y-73685660D02*
G01*
X151799715Y-73709877D01*
X151799295Y-73734761D01*
X151798593Y-73760313D01*
X151797612Y-73786533D01*
X151796349Y-73813420D01*
X151794807Y-73840976D01*
X151792984Y-73869199D01*
X151790880Y-73898091D01*
X151788496Y-73927650D01*
X151785831Y-73957877D01*
X151782886Y-73988771D01*
X151779660Y-74020334D01*
X151776154Y-74052565D01*
X151772367Y-74085463D01*
X151768300Y-74119029D01*
X151766161Y-74136063D01*
X151763952Y-74153263D01*
X151527159Y-74153263D01*
X151530419Y-74132202D01*
X151533577Y-74111546D01*
X151536630Y-74091296D01*
X151539581Y-74071451D01*
X151542427Y-74052013D01*
X151545171Y-74032980D01*
X151547810Y-74014353D01*
X151550346Y-73996131D01*
X151552779Y-73978315D01*
X151555108Y-73960905D01*
X151557334Y-73943901D01*
X151561474Y-73911109D01*
X151565201Y-73879941D01*
X151568514Y-73850395D01*
X151571412Y-73822472D01*
X151573896Y-73796172D01*
X151575967Y-73771495D01*
X151577623Y-73748441D01*
X151578865Y-73727010D01*
X151579693Y-73707201D01*
X151580107Y-73689015D01*
X151580159Y-73680531D01*
X151579960Y-73659969D01*
X151579363Y-73640435D01*
X151578367Y-73621931D01*
X151576974Y-73604456D01*
X151574496Y-73582758D01*
X151571310Y-73562889D01*
X151567417Y-73544851D01*
X151561554Y-73524876D01*
X151557506Y-73514263D01*
X151549364Y-73498625D01*
X151537143Y-73483358D01*
X151522246Y-73471907D01*
X151504675Y-73464274D01*
X151484429Y-73460457D01*
X151473303Y-73459980D01*
X151397221Y-73459980D01*
X151378227Y-73460825D01*
X151361049Y-73463361D01*
X151342832Y-73468635D01*
X151327229Y-73476344D01*
X151312330Y-73488414D01*
X151307035Y-73494601D01*
X151297883Y-73509753D01*
X151291704Y-73525938D01*
X151286839Y-73545358D01*
X151283894Y-73563223D01*
X151281790Y-73583158D01*
X151280528Y-73605164D01*
X151280133Y-73623027D01*
X151280107Y-73629240D01*
X151280107Y-73783541D01*
X151279820Y-73806769D01*
X151278958Y-73829329D01*
X151277522Y-73851221D01*
X151275512Y-73872445D01*
X151272928Y-73893002D01*
X151269769Y-73912890D01*
X151266035Y-73932111D01*
X151261728Y-73950664D01*
X151256846Y-73968549D01*
X151251389Y-73985766D01*
X151245359Y-74002315D01*
X151238754Y-74018197D01*
X151227769Y-74040767D01*
X151215492Y-74061834D01*
X151206590Y-74075045D01*
X151192201Y-74093453D01*
X151176602Y-74110052D01*
X151159793Y-74124839D01*
X151141775Y-74137816D01*
X151122547Y-74148982D01*
X151102109Y-74158337D01*
X151080462Y-74165882D01*
X151057606Y-74171616D01*
X151033539Y-74175539D01*
X151008263Y-74177652D01*
X150990740Y-74178054D01*
X150848408Y-74178054D01*
X150829785Y-74177480D01*
X150811849Y-74175757D01*
X150794602Y-74172885D01*
X150770021Y-74166423D01*
X150746988Y-74157377D01*
X150725502Y-74145747D01*
X150705564Y-74131531D01*
X150687174Y-74114732D01*
X150670332Y-74095347D01*
X150659963Y-74080988D01*
X150650283Y-74065481D01*
X150641290Y-74048825D01*
X150632985Y-74031020D01*
X150625222Y-74012056D01*
X150617959Y-73991924D01*
X150611197Y-73970623D01*
X150604936Y-73948153D01*
X150599176Y-73924514D01*
X150593916Y-73899707D01*
X150589158Y-73873731D01*
X150584900Y-73846586D01*
X150581144Y-73818272D01*
X150577888Y-73788790D01*
X150575133Y-73758139D01*
X150572879Y-73726319D01*
X150571126Y-73693331D01*
X150569874Y-73659173D01*
X150569435Y-73641656D01*
X150569122Y-73623847D01*
X150568934Y-73605746D01*
X150568872Y-73587353D01*
X150569067Y-73563676D01*
X150569414Y-73546071D01*
X150569935Y-73527011D01*
X150570630Y-73506494D01*
X150571498Y-73484522D01*
X150572540Y-73461094D01*
X150573755Y-73436209D01*
X150575145Y-73409869D01*
X150576707Y-73382073D01*
X150578444Y-73352822D01*
X150580354Y-73322114D01*
X150582437Y-73289950D01*
X150584695Y-73256330D01*
X150585889Y-73238975D01*
X150587126Y-73221255D01*
X150588406Y-73203171D01*
X150589730Y-73184723D01*
X150591098Y-73165912D01*
X150818061Y-73165912D01*
X150816246Y-73189495D01*
X150814489Y-73212426D01*
X150812790Y-73234705D01*
X150811148Y-73256332D01*
X150809564Y-73277307D01*
X150808038Y-73297630D01*
X150806569Y-73317301D01*
X150805158Y-73336321D01*
X150803804Y-73354688D01*
X150802508Y-73372403D01*
X150801269Y-73389466D01*
X150798965Y-73421637D01*
X150796892Y-73451199D01*
X150795048Y-73478153D01*
X150793436Y-73502500D01*
X150792053Y-73524239D01*
X150790901Y-73543369D01*
X150789605Y-73567175D01*
X150788827Y-73585113D01*
X150788568Y-73597183D01*
X150788645Y-73614851D01*
X150789048Y-73639888D01*
X150789797Y-73663167D01*
X150790891Y-73684688D01*
X150792332Y-73704450D01*
X150794117Y-73722455D01*
X150797036Y-73743726D01*
X150800569Y-73761871D01*
X150805849Y-73780158D01*
X150808230Y-73786105D01*
X150819900Y-73801261D01*
X150835087Y-73812694D01*
X150850905Y-73819531D01*
X150869308Y-73823633D01*
X150886618Y-73824963D01*
X150890295Y-73825001D01*
X150954409Y-73825001D01*
X150971971Y-73822499D01*
X150988114Y-73814993D01*
X151002836Y-73802483D01*
X151010402Y-73793371D01*
X151019562Y-73777956D01*
X151026472Y-73759758D01*
X151030604Y-73741947D01*
X151033084Y-73722092D01*
X151033887Y-73703985D01*
X151033910Y-73700193D01*
X151033910Y-73543328D01*
X151034186Y-73516505D01*
X151035012Y-73490534D01*
X151036390Y-73465415D01*
X151038318Y-73441147D01*
X151040797Y-73417730D01*
X151043828Y-73395165D01*
X151047409Y-73373451D01*
X151051541Y-73352589D01*
X151056225Y-73332579D01*
X151061459Y-73313420D01*
X151067244Y-73295112D01*
X151073581Y-73277656D01*
X151080468Y-73261052D01*
X151087906Y-73245299D01*
X151104435Y-73216348D01*
X151123168Y-73190802D01*
X151144106Y-73168663D01*
X151167247Y-73149930D01*
X151192592Y-73134603D01*
X151220141Y-73122682D01*
X151249893Y-73114166D01*
X151281850Y-73109057D01*
X151316011Y-73107354D01*
X151464327Y-73107354D01*
X151485251Y-73107855D01*
X151505493Y-73109358D01*
X151525055Y-73111862D01*
X151543935Y-73115369D01*
X151562134Y-73119877D01*
X151579652Y-73125386D01*
X151596488Y-73131898D01*
X151612644Y-73139411D01*
X151628038Y-73147626D01*
X151646097Y-73158758D01*
X151662841Y-73170850D01*
X151678270Y-73183903D01*
X151692385Y-73197915D01*
X151705185Y-73212887D01*
X151712234Y-73222332D01*
X151722564Y-73238381D01*
X151732186Y-73255808D01*
X151741097Y-73274612D01*
X151747716Y-73290647D01*
X151753880Y-73307564D01*
X151759590Y-73325362D01*
X151764846Y-73344042D01*
X151766089Y-73348849D01*
X151770711Y-73368184D01*
X151774958Y-73387718D01*
X151778832Y-73407453D01*
X151782331Y-73427389D01*
X151785457Y-73447525D01*
X151788208Y-73467861D01*
X151790586Y-73488397D01*
X151792589Y-73509134D01*
X151794292Y-73528535D01*
X151795768Y-73548697D01*
X151797017Y-73569621D01*
X151798039Y-73591306D01*
X151798834Y-73613753D01*
X151799281Y-73631087D01*
X151799600Y-73648850D01*
X151799792Y-73667041D01*
X151799856Y-73685660D01*
G37*
G36*
X150158544Y-72833375D02*
G01*
X150158544Y-72475620D01*
X150459451Y-72475620D01*
X150459451Y-72833375D01*
X150158544Y-72833375D01*
G37*
G36*
X150596227Y-72833375D02*
G01*
X150596227Y-72475620D01*
X151772501Y-72475620D01*
X151772501Y-72833375D01*
X150596227Y-72833375D01*
G37*
G36*
X151875707Y-70977315D02*
G01*
X151905577Y-70979339D01*
X151934344Y-70982712D01*
X151962010Y-70987433D01*
X151988574Y-70993504D01*
X152014036Y-71000924D01*
X152038396Y-71009693D01*
X152061654Y-71019811D01*
X152083809Y-71031278D01*
X152104863Y-71044094D01*
X152124816Y-71058259D01*
X152143666Y-71073773D01*
X152161414Y-71090636D01*
X152178060Y-71108849D01*
X152193604Y-71128410D01*
X152208047Y-71149321D01*
X152221556Y-71171600D01*
X152234193Y-71195269D01*
X152245959Y-71220326D01*
X152256853Y-71246773D01*
X152266876Y-71274609D01*
X152276027Y-71303835D01*
X152284307Y-71334449D01*
X152291715Y-71366452D01*
X152298252Y-71399845D01*
X152301193Y-71417062D01*
X152303917Y-71434627D01*
X152306422Y-71452538D01*
X152308710Y-71470798D01*
X152310780Y-71489404D01*
X152312632Y-71508357D01*
X152314266Y-71527658D01*
X152315683Y-71547307D01*
X152316881Y-71567302D01*
X152317861Y-71587645D01*
X152318624Y-71608335D01*
X152319169Y-71629372D01*
X152319496Y-71650757D01*
X152319604Y-71672489D01*
X152319589Y-71690402D01*
X152319541Y-71708023D01*
X152319462Y-71725354D01*
X152319208Y-71759140D01*
X152318827Y-71791762D01*
X152318320Y-71823217D01*
X152317685Y-71853508D01*
X152316924Y-71882633D01*
X152316036Y-71910592D01*
X152315021Y-71937387D01*
X152313878Y-71963015D01*
X152312610Y-71987479D01*
X152311214Y-72010777D01*
X152309691Y-72032909D01*
X152308041Y-72053877D01*
X152306265Y-72073678D01*
X152304362Y-72092315D01*
X152303362Y-72101196D01*
X152067424Y-72101196D01*
X152071357Y-72072523D01*
X152075037Y-72044101D01*
X152078463Y-72015930D01*
X152081636Y-71988008D01*
X152084554Y-71960338D01*
X152087219Y-71932917D01*
X152089630Y-71905748D01*
X152091787Y-71878828D01*
X152093690Y-71852159D01*
X152095340Y-71825741D01*
X152096736Y-71799572D01*
X152097878Y-71773655D01*
X152098766Y-71747988D01*
X152099400Y-71722571D01*
X152099781Y-71697405D01*
X152099908Y-71672489D01*
X152099674Y-71650238D01*
X152098973Y-71628791D01*
X152097804Y-71608150D01*
X152096168Y-71588313D01*
X152094064Y-71569281D01*
X152091493Y-71551053D01*
X152088454Y-71533631D01*
X152083020Y-71509006D01*
X152076533Y-71486191D01*
X152068995Y-71465188D01*
X152060405Y-71445995D01*
X152050763Y-71428613D01*
X152040069Y-71413042D01*
X152028150Y-71398987D01*
X152014834Y-71386314D01*
X152000120Y-71375024D01*
X151984009Y-71365117D01*
X151966501Y-71356592D01*
X151947594Y-71349449D01*
X151927291Y-71343689D01*
X151905590Y-71339311D01*
X151882491Y-71336316D01*
X151857996Y-71334703D01*
X151840888Y-71334396D01*
X151646410Y-71334396D01*
X151661544Y-71345368D01*
X151675742Y-71356274D01*
X151689006Y-71367114D01*
X151704270Y-71380569D01*
X151718074Y-71393919D01*
X151730417Y-71407166D01*
X151741298Y-71420308D01*
X151752659Y-71436772D01*
X151761115Y-71451893D01*
X151768654Y-71468286D01*
X151775274Y-71485953D01*
X151780976Y-71504893D01*
X151785759Y-71525106D01*
X151786606Y-71529301D01*
X151789711Y-71546866D01*
X151792402Y-71566006D01*
X151794680Y-71586723D01*
X151796543Y-71609016D01*
X151797669Y-71626770D01*
X151798562Y-71645411D01*
X151799222Y-71664938D01*
X151799649Y-71685352D01*
X151799843Y-71706652D01*
X151799856Y-71713949D01*
X151799727Y-71735417D01*
X151799341Y-71756331D01*
X151798699Y-71776690D01*
X151797799Y-71796495D01*
X151796642Y-71815746D01*
X151795227Y-71834443D01*
X151793556Y-71852585D01*
X151791628Y-71870173D01*
X151789442Y-71887206D01*
X151785682Y-71911717D01*
X151781343Y-71934981D01*
X151776425Y-71956998D01*
X151770929Y-71977767D01*
X151766944Y-71990920D01*
X151760386Y-72009739D01*
X151753054Y-72027565D01*
X151744949Y-72044400D01*
X151736069Y-72060243D01*
X151726416Y-72075095D01*
X151715989Y-72088954D01*
X151700882Y-72105891D01*
X151684399Y-72121065D01*
X151666541Y-72134475D01*
X151657096Y-72140519D01*
X151636927Y-72151338D01*
X151620573Y-72158506D01*
X151603167Y-72164862D01*
X151584709Y-72170407D01*
X151565199Y-72175140D01*
X151544638Y-72179062D01*
X151523025Y-72182173D01*
X151500359Y-72184472D01*
X151476642Y-72185960D01*
X151451873Y-72186636D01*
X151443383Y-72186681D01*
X150981764Y-72186681D01*
X150961597Y-72186514D01*
X150942020Y-72186013D01*
X150923035Y-72185178D01*
X150904641Y-72184010D01*
X150886838Y-72182507D01*
X150869625Y-72180670D01*
X150844915Y-72177289D01*
X150821535Y-72173157D01*
X150799485Y-72168273D01*
X150778764Y-72162638D01*
X150759373Y-72156252D01*
X150741313Y-72149114D01*
X150730011Y-72143938D01*
X150713956Y-72135387D01*
X150698811Y-72125761D01*
X150684574Y-72115061D01*
X150671247Y-72103286D01*
X150658828Y-72090437D01*
X150647319Y-72076514D01*
X150636719Y-72061516D01*
X150627028Y-72045444D01*
X150618246Y-72028297D01*
X150610374Y-72010076D01*
X150605630Y-71997332D01*
X150599061Y-71976969D01*
X150593138Y-71954992D01*
X150587861Y-71931398D01*
X150583231Y-71906190D01*
X150580502Y-71888487D01*
X150578061Y-71870066D01*
X150575908Y-71850927D01*
X150574041Y-71831070D01*
X150572461Y-71810495D01*
X150571169Y-71789202D01*
X150570164Y-71767192D01*
X150569446Y-71744463D01*
X150569015Y-71721016D01*
X150568872Y-71696852D01*
X150569003Y-71673484D01*
X150569398Y-71651146D01*
X150570055Y-71629837D01*
X150570975Y-71609557D01*
X150571179Y-71606238D01*
X150788568Y-71606238D01*
X150788700Y-71624140D01*
X150789284Y-71646606D01*
X150790336Y-71667470D01*
X150791855Y-71686731D01*
X150793842Y-71704389D01*
X150796983Y-71724207D01*
X150800855Y-71741521D01*
X150803528Y-71750707D01*
X150809714Y-71767112D01*
X150818792Y-71783553D01*
X150829875Y-71797090D01*
X150844995Y-71809004D01*
X150853537Y-71813539D01*
X150870653Y-71819701D01*
X150887864Y-71823778D01*
X150907418Y-71826744D01*
X150925504Y-71828365D01*
X150945219Y-71829215D01*
X150957828Y-71829354D01*
X151410899Y-71829354D01*
X151429252Y-71829107D01*
X151450314Y-71828103D01*
X151469289Y-71826327D01*
X151489305Y-71823176D01*
X151506315Y-71818913D01*
X151520320Y-71813539D01*
X151535573Y-71803388D01*
X151548423Y-71789176D01*
X151557694Y-71773409D01*
X151564175Y-71757421D01*
X151566909Y-71748570D01*
X151570726Y-71731655D01*
X151573896Y-71711630D01*
X151575967Y-71693371D01*
X151577623Y-71673121D01*
X151578865Y-71650882D01*
X151579525Y-71632896D01*
X151579952Y-71613791D01*
X151580146Y-71593567D01*
X151580159Y-71586576D01*
X151580032Y-71567323D01*
X151579648Y-71548995D01*
X151579010Y-71531590D01*
X151577761Y-71509821D01*
X151576058Y-71489696D01*
X151573901Y-71471213D01*
X151570566Y-71450420D01*
X151566521Y-71432194D01*
X151565627Y-71428856D01*
X151559386Y-71410123D01*
X151551882Y-71393674D01*
X151541533Y-71377370D01*
X151529466Y-71364175D01*
X151517755Y-71355339D01*
X151501840Y-71347179D01*
X151483266Y-71341022D01*
X151465229Y-71337341D01*
X151445238Y-71335132D01*
X151427087Y-71334416D01*
X151423294Y-71334396D01*
X150945433Y-71334396D01*
X150925544Y-71334876D01*
X150907282Y-71336316D01*
X150887517Y-71339311D01*
X150870096Y-71343689D01*
X150852735Y-71350543D01*
X150846271Y-71354057D01*
X150830937Y-71365998D01*
X150819711Y-71380260D01*
X150810530Y-71398080D01*
X150804289Y-71416187D01*
X150800964Y-71429711D01*
X150797393Y-71448897D01*
X150794972Y-71466485D01*
X150792938Y-71486063D01*
X150791292Y-71507632D01*
X150790311Y-71525114D01*
X150789549Y-71543716D01*
X150789004Y-71563437D01*
X150788677Y-71584278D01*
X150788568Y-71606238D01*
X150571179Y-71606238D01*
X150572159Y-71590307D01*
X150573605Y-71572086D01*
X150575314Y-71554894D01*
X150578003Y-71533573D01*
X150581158Y-71514081D01*
X150583832Y-71500664D01*
X150588738Y-71480866D01*
X150594375Y-71462613D01*
X150600743Y-71445904D01*
X150609348Y-71427892D01*
X150619005Y-71412104D01*
X150627856Y-71400646D01*
X150640389Y-71387333D01*
X150653082Y-71375733D01*
X150667821Y-71363674D01*
X150684605Y-71351156D01*
X150699504Y-71340811D01*
X150715713Y-71330172D01*
X150728729Y-71322000D01*
X150596227Y-71322000D01*
X150596227Y-70976641D01*
X151844735Y-70976641D01*
X151875707Y-70977315D01*
G37*
G36*
X150596227Y-70663338D02*
G01*
X150596227Y-70310713D01*
X150738132Y-70310713D01*
X150717636Y-70304320D01*
X150698462Y-70295613D01*
X150680610Y-70284591D01*
X150664081Y-70271256D01*
X150648874Y-70255607D01*
X150634989Y-70237643D01*
X150622427Y-70217365D01*
X150611187Y-70194774D01*
X150601269Y-70169868D01*
X150592674Y-70142648D01*
X150585401Y-70113114D01*
X150579451Y-70081266D01*
X150574822Y-70047103D01*
X150573004Y-70029154D01*
X150571516Y-70010627D01*
X150570359Y-69991521D01*
X150569533Y-69971836D01*
X150569037Y-69951573D01*
X150568872Y-69930732D01*
X150569191Y-69902786D01*
X150570147Y-69875901D01*
X150571742Y-69850079D01*
X150573974Y-69825318D01*
X150576844Y-69801619D01*
X150580352Y-69778983D01*
X150584498Y-69757408D01*
X150589281Y-69736895D01*
X150594703Y-69717443D01*
X150600762Y-69699054D01*
X150607459Y-69681727D01*
X150614793Y-69665461D01*
X150622766Y-69650258D01*
X150635920Y-69629443D01*
X150650510Y-69611018D01*
X150666640Y-69594595D01*
X150684415Y-69579788D01*
X150703836Y-69566595D01*
X150724902Y-69555019D01*
X150747613Y-69545057D01*
X150771970Y-69536711D01*
X150789123Y-69532045D01*
X150807006Y-69528096D01*
X150825621Y-69524865D01*
X150844967Y-69522352D01*
X150865044Y-69520558D01*
X150885852Y-69519481D01*
X150907392Y-69519122D01*
X151772501Y-69519122D01*
X151772501Y-69876876D01*
X150953982Y-69876876D01*
X150933568Y-69877210D01*
X150914804Y-69878212D01*
X150897688Y-69879882D01*
X150879325Y-69882767D01*
X150860903Y-69887348D01*
X150851827Y-69890554D01*
X150835959Y-69898889D01*
X150822548Y-69910643D01*
X150811596Y-69925816D01*
X150804028Y-69941898D01*
X150803101Y-69944409D01*
X150798162Y-69960994D01*
X150794245Y-69980614D01*
X150791761Y-69999282D01*
X150789987Y-70020059D01*
X150789079Y-70038198D01*
X150788625Y-70057685D01*
X150788568Y-70067935D01*
X150788688Y-70087235D01*
X150789049Y-70105542D01*
X150789650Y-70122858D01*
X150790826Y-70144403D01*
X150792428Y-70164184D01*
X150794459Y-70182203D01*
X150797598Y-70202247D01*
X150801404Y-70219536D01*
X150802246Y-70222663D01*
X150807951Y-70239824D01*
X150816468Y-70257033D01*
X150826990Y-70271216D01*
X150841469Y-70283718D01*
X150849690Y-70288487D01*
X150866222Y-70295148D01*
X150883192Y-70299556D01*
X150902747Y-70302762D01*
X150921017Y-70304515D01*
X150941081Y-70305433D01*
X150953982Y-70305584D01*
X151772501Y-70305584D01*
X151772501Y-70663338D01*
X150596227Y-70663338D01*
G37*
D11*
X143103000Y-64439904D02*
X143055380Y-64535142D01*
X143055380Y-64535142D02*
X143055380Y-64677999D01*
X143055380Y-64677999D02*
X143103000Y-64820856D01*
X143103000Y-64820856D02*
X143198238Y-64916094D01*
X143198238Y-64916094D02*
X143293476Y-64963713D01*
X143293476Y-64963713D02*
X143483952Y-65011332D01*
X143483952Y-65011332D02*
X143626809Y-65011332D01*
X143626809Y-65011332D02*
X143817285Y-64963713D01*
X143817285Y-64963713D02*
X143912523Y-64916094D01*
X143912523Y-64916094D02*
X144007761Y-64820856D01*
X144007761Y-64820856D02*
X144055380Y-64677999D01*
X144055380Y-64677999D02*
X144055380Y-64582761D01*
X144055380Y-64582761D02*
X144007761Y-64439904D01*
X144007761Y-64439904D02*
X143960142Y-64392285D01*
X143960142Y-64392285D02*
X143626809Y-64392285D01*
X143626809Y-64392285D02*
X143626809Y-64582761D01*
X144055380Y-63963713D02*
X143055380Y-63963713D01*
X143055380Y-63963713D02*
X144055380Y-63392285D01*
X144055380Y-63392285D02*
X143055380Y-63392285D01*
X144055380Y-62916094D02*
X143055380Y-62916094D01*
X143055380Y-62916094D02*
X143055380Y-62677999D01*
X143055380Y-62677999D02*
X143103000Y-62535142D01*
X143103000Y-62535142D02*
X143198238Y-62439904D01*
X143198238Y-62439904D02*
X143293476Y-62392285D01*
X143293476Y-62392285D02*
X143483952Y-62344666D01*
X143483952Y-62344666D02*
X143626809Y-62344666D01*
X143626809Y-62344666D02*
X143817285Y-62392285D01*
X143817285Y-62392285D02*
X143912523Y-62439904D01*
X143912523Y-62439904D02*
X144007761Y-62535142D01*
X144007761Y-62535142D02*
X144055380Y-62677999D01*
X144055380Y-62677999D02*
X144055380Y-62916094D01*
X136782285Y-88622380D02*
X136306095Y-88622380D01*
X136306095Y-88622380D02*
X136258476Y-89098571D01*
X136258476Y-89098571D02*
X136306095Y-89050952D01*
X136306095Y-89050952D02*
X136401333Y-89003333D01*
X136401333Y-89003333D02*
X136639428Y-89003333D01*
X136639428Y-89003333D02*
X136734666Y-89050952D01*
X136734666Y-89050952D02*
X136782285Y-89098571D01*
X136782285Y-89098571D02*
X136829904Y-89193809D01*
X136829904Y-89193809D02*
X136829904Y-89431904D01*
X136829904Y-89431904D02*
X136782285Y-89527142D01*
X136782285Y-89527142D02*
X136734666Y-89574761D01*
X136734666Y-89574761D02*
X136639428Y-89622380D01*
X136639428Y-89622380D02*
X136401333Y-89622380D01*
X136401333Y-89622380D02*
X136306095Y-89574761D01*
X136306095Y-89574761D02*
X136258476Y-89527142D01*
X137115619Y-88622380D02*
X137448952Y-89622380D01*
X137448952Y-89622380D02*
X137782285Y-88622380D01*
X161555333Y-83899380D02*
X161222000Y-83423190D01*
X160983905Y-83899380D02*
X160983905Y-82899380D01*
X160983905Y-82899380D02*
X161364857Y-82899380D01*
X161364857Y-82899380D02*
X161460095Y-82947000D01*
X161460095Y-82947000D02*
X161507714Y-82994619D01*
X161507714Y-82994619D02*
X161555333Y-83089857D01*
X161555333Y-83089857D02*
X161555333Y-83232714D01*
X161555333Y-83232714D02*
X161507714Y-83327952D01*
X161507714Y-83327952D02*
X161460095Y-83375571D01*
X161460095Y-83375571D02*
X161364857Y-83423190D01*
X161364857Y-83423190D02*
X160983905Y-83423190D01*
X162126762Y-83327952D02*
X162031524Y-83280333D01*
X162031524Y-83280333D02*
X161983905Y-83232714D01*
X161983905Y-83232714D02*
X161936286Y-83137476D01*
X161936286Y-83137476D02*
X161936286Y-83089857D01*
X161936286Y-83089857D02*
X161983905Y-82994619D01*
X161983905Y-82994619D02*
X162031524Y-82947000D01*
X162031524Y-82947000D02*
X162126762Y-82899380D01*
X162126762Y-82899380D02*
X162317238Y-82899380D01*
X162317238Y-82899380D02*
X162412476Y-82947000D01*
X162412476Y-82947000D02*
X162460095Y-82994619D01*
X162460095Y-82994619D02*
X162507714Y-83089857D01*
X162507714Y-83089857D02*
X162507714Y-83137476D01*
X162507714Y-83137476D02*
X162460095Y-83232714D01*
X162460095Y-83232714D02*
X162412476Y-83280333D01*
X162412476Y-83280333D02*
X162317238Y-83327952D01*
X162317238Y-83327952D02*
X162126762Y-83327952D01*
X162126762Y-83327952D02*
X162031524Y-83375571D01*
X162031524Y-83375571D02*
X161983905Y-83423190D01*
X161983905Y-83423190D02*
X161936286Y-83518428D01*
X161936286Y-83518428D02*
X161936286Y-83708904D01*
X161936286Y-83708904D02*
X161983905Y-83804142D01*
X161983905Y-83804142D02*
X162031524Y-83851761D01*
X162031524Y-83851761D02*
X162126762Y-83899380D01*
X162126762Y-83899380D02*
X162317238Y-83899380D01*
X162317238Y-83899380D02*
X162412476Y-83851761D01*
X162412476Y-83851761D02*
X162460095Y-83804142D01*
X162460095Y-83804142D02*
X162507714Y-83708904D01*
X162507714Y-83708904D02*
X162507714Y-83518428D01*
X162507714Y-83518428D02*
X162460095Y-83423190D01*
X162460095Y-83423190D02*
X162412476Y-83375571D01*
X162412476Y-83375571D02*
X162317238Y-83327952D01*
X162658666Y-92731571D02*
X162325333Y-92731571D01*
X162325333Y-93255380D02*
X162325333Y-92255380D01*
X162325333Y-92255380D02*
X162801523Y-92255380D01*
X163706285Y-93255380D02*
X163134857Y-93255380D01*
X163420571Y-93255380D02*
X163420571Y-92255380D01*
X163420571Y-92255380D02*
X163325333Y-92398238D01*
X163325333Y-92398238D02*
X163230095Y-92493476D01*
X163230095Y-92493476D02*
X163134857Y-92541095D01*
X108048666Y-80317380D02*
X108048666Y-81031666D01*
X108048666Y-81031666D02*
X108001047Y-81174523D01*
X108001047Y-81174523D02*
X107905809Y-81269761D01*
X107905809Y-81269761D02*
X107762952Y-81317380D01*
X107762952Y-81317380D02*
X107667714Y-81317380D01*
X108477238Y-80412619D02*
X108524857Y-80365000D01*
X108524857Y-80365000D02*
X108620095Y-80317380D01*
X108620095Y-80317380D02*
X108858190Y-80317380D01*
X108858190Y-80317380D02*
X108953428Y-80365000D01*
X108953428Y-80365000D02*
X109001047Y-80412619D01*
X109001047Y-80412619D02*
X109048666Y-80507857D01*
X109048666Y-80507857D02*
X109048666Y-80603095D01*
X109048666Y-80603095D02*
X109001047Y-80745952D01*
X109001047Y-80745952D02*
X108429619Y-81317380D01*
X108429619Y-81317380D02*
X109048666Y-81317380D01*
X156983333Y-80089380D02*
X156650000Y-79613190D01*
X156411905Y-80089380D02*
X156411905Y-79089380D01*
X156411905Y-79089380D02*
X156792857Y-79089380D01*
X156792857Y-79089380D02*
X156888095Y-79137000D01*
X156888095Y-79137000D02*
X156935714Y-79184619D01*
X156935714Y-79184619D02*
X156983333Y-79279857D01*
X156983333Y-79279857D02*
X156983333Y-79422714D01*
X156983333Y-79422714D02*
X156935714Y-79517952D01*
X156935714Y-79517952D02*
X156888095Y-79565571D01*
X156888095Y-79565571D02*
X156792857Y-79613190D01*
X156792857Y-79613190D02*
X156411905Y-79613190D01*
X157459524Y-80089380D02*
X157650000Y-80089380D01*
X157650000Y-80089380D02*
X157745238Y-80041761D01*
X157745238Y-80041761D02*
X157792857Y-79994142D01*
X157792857Y-79994142D02*
X157888095Y-79851285D01*
X157888095Y-79851285D02*
X157935714Y-79660809D01*
X157935714Y-79660809D02*
X157935714Y-79279857D01*
X157935714Y-79279857D02*
X157888095Y-79184619D01*
X157888095Y-79184619D02*
X157840476Y-79137000D01*
X157840476Y-79137000D02*
X157745238Y-79089380D01*
X157745238Y-79089380D02*
X157554762Y-79089380D01*
X157554762Y-79089380D02*
X157459524Y-79137000D01*
X157459524Y-79137000D02*
X157411905Y-79184619D01*
X157411905Y-79184619D02*
X157364286Y-79279857D01*
X157364286Y-79279857D02*
X157364286Y-79517952D01*
X157364286Y-79517952D02*
X157411905Y-79613190D01*
X157411905Y-79613190D02*
X157459524Y-79660809D01*
X157459524Y-79660809D02*
X157554762Y-79708428D01*
X157554762Y-79708428D02*
X157745238Y-79708428D01*
X157745238Y-79708428D02*
X157840476Y-79660809D01*
X157840476Y-79660809D02*
X157888095Y-79613190D01*
X157888095Y-79613190D02*
X157935714Y-79517952D01*
X159102666Y-92255380D02*
X159102666Y-92969666D01*
X159102666Y-92969666D02*
X159055047Y-93112523D01*
X159055047Y-93112523D02*
X158959809Y-93207761D01*
X158959809Y-93207761D02*
X158816952Y-93255380D01*
X158816952Y-93255380D02*
X158721714Y-93255380D01*
X160102666Y-93255380D02*
X159531238Y-93255380D01*
X159816952Y-93255380D02*
X159816952Y-92255380D01*
X159816952Y-92255380D02*
X159721714Y-92398238D01*
X159721714Y-92398238D02*
X159626476Y-92493476D01*
X159626476Y-92493476D02*
X159531238Y-92541095D01*
X121196666Y-51107380D02*
X121196666Y-51821666D01*
X121196666Y-51821666D02*
X121149047Y-51964523D01*
X121149047Y-51964523D02*
X121053809Y-52059761D01*
X121053809Y-52059761D02*
X120910952Y-52107380D01*
X120910952Y-52107380D02*
X120815714Y-52107380D01*
X121577619Y-51107380D02*
X122196666Y-51107380D01*
X122196666Y-51107380D02*
X121863333Y-51488333D01*
X121863333Y-51488333D02*
X122006190Y-51488333D01*
X122006190Y-51488333D02*
X122101428Y-51535952D01*
X122101428Y-51535952D02*
X122149047Y-51583571D01*
X122149047Y-51583571D02*
X122196666Y-51678809D01*
X122196666Y-51678809D02*
X122196666Y-51916904D01*
X122196666Y-51916904D02*
X122149047Y-52012142D01*
X122149047Y-52012142D02*
X122101428Y-52059761D01*
X122101428Y-52059761D02*
X122006190Y-52107380D01*
X122006190Y-52107380D02*
X121720476Y-52107380D01*
X121720476Y-52107380D02*
X121625238Y-52059761D01*
X121625238Y-52059761D02*
X121577619Y-52012142D01*
X161079142Y-72469380D02*
X160745809Y-71993190D01*
X160507714Y-72469380D02*
X160507714Y-71469380D01*
X160507714Y-71469380D02*
X160888666Y-71469380D01*
X160888666Y-71469380D02*
X160983904Y-71517000D01*
X160983904Y-71517000D02*
X161031523Y-71564619D01*
X161031523Y-71564619D02*
X161079142Y-71659857D01*
X161079142Y-71659857D02*
X161079142Y-71802714D01*
X161079142Y-71802714D02*
X161031523Y-71897952D01*
X161031523Y-71897952D02*
X160983904Y-71945571D01*
X160983904Y-71945571D02*
X160888666Y-71993190D01*
X160888666Y-71993190D02*
X160507714Y-71993190D01*
X162031523Y-72469380D02*
X161460095Y-72469380D01*
X161745809Y-72469380D02*
X161745809Y-71469380D01*
X161745809Y-71469380D02*
X161650571Y-71612238D01*
X161650571Y-71612238D02*
X161555333Y-71707476D01*
X161555333Y-71707476D02*
X161460095Y-71755095D01*
X162888666Y-71802714D02*
X162888666Y-72469380D01*
X162650571Y-71421761D02*
X162412476Y-72136047D01*
X162412476Y-72136047D02*
X163031523Y-72136047D01*
X161079142Y-76279380D02*
X160745809Y-75803190D01*
X160507714Y-76279380D02*
X160507714Y-75279380D01*
X160507714Y-75279380D02*
X160888666Y-75279380D01*
X160888666Y-75279380D02*
X160983904Y-75327000D01*
X160983904Y-75327000D02*
X161031523Y-75374619D01*
X161031523Y-75374619D02*
X161079142Y-75469857D01*
X161079142Y-75469857D02*
X161079142Y-75612714D01*
X161079142Y-75612714D02*
X161031523Y-75707952D01*
X161031523Y-75707952D02*
X160983904Y-75755571D01*
X160983904Y-75755571D02*
X160888666Y-75803190D01*
X160888666Y-75803190D02*
X160507714Y-75803190D01*
X162031523Y-76279380D02*
X161460095Y-76279380D01*
X161745809Y-76279380D02*
X161745809Y-75279380D01*
X161745809Y-75279380D02*
X161650571Y-75422238D01*
X161650571Y-75422238D02*
X161555333Y-75517476D01*
X161555333Y-75517476D02*
X161460095Y-75565095D01*
X162412476Y-75374619D02*
X162460095Y-75327000D01*
X162460095Y-75327000D02*
X162555333Y-75279380D01*
X162555333Y-75279380D02*
X162793428Y-75279380D01*
X162793428Y-75279380D02*
X162888666Y-75327000D01*
X162888666Y-75327000D02*
X162936285Y-75374619D01*
X162936285Y-75374619D02*
X162983904Y-75469857D01*
X162983904Y-75469857D02*
X162983904Y-75565095D01*
X162983904Y-75565095D02*
X162936285Y-75707952D01*
X162936285Y-75707952D02*
X162364857Y-76279380D01*
X162364857Y-76279380D02*
X162983904Y-76279380D01*
X153006666Y-59997380D02*
X153006666Y-60711666D01*
X153006666Y-60711666D02*
X152959047Y-60854523D01*
X152959047Y-60854523D02*
X152863809Y-60949761D01*
X152863809Y-60949761D02*
X152720952Y-60997380D01*
X152720952Y-60997380D02*
X152625714Y-60997380D01*
X153911428Y-59997380D02*
X153720952Y-59997380D01*
X153720952Y-59997380D02*
X153625714Y-60045000D01*
X153625714Y-60045000D02*
X153578095Y-60092619D01*
X153578095Y-60092619D02*
X153482857Y-60235476D01*
X153482857Y-60235476D02*
X153435238Y-60425952D01*
X153435238Y-60425952D02*
X153435238Y-60806904D01*
X153435238Y-60806904D02*
X153482857Y-60902142D01*
X153482857Y-60902142D02*
X153530476Y-60949761D01*
X153530476Y-60949761D02*
X153625714Y-60997380D01*
X153625714Y-60997380D02*
X153816190Y-60997380D01*
X153816190Y-60997380D02*
X153911428Y-60949761D01*
X153911428Y-60949761D02*
X153959047Y-60902142D01*
X153959047Y-60902142D02*
X154006666Y-60806904D01*
X154006666Y-60806904D02*
X154006666Y-60568809D01*
X154006666Y-60568809D02*
X153959047Y-60473571D01*
X153959047Y-60473571D02*
X153911428Y-60425952D01*
X153911428Y-60425952D02*
X153816190Y-60378333D01*
X153816190Y-60378333D02*
X153625714Y-60378333D01*
X153625714Y-60378333D02*
X153530476Y-60425952D01*
X153530476Y-60425952D02*
X153482857Y-60473571D01*
X153482857Y-60473571D02*
X153435238Y-60568809D01*
X111295238Y-51063380D02*
X111533333Y-52063380D01*
X111533333Y-52063380D02*
X111723809Y-51349095D01*
X111723809Y-51349095D02*
X111914285Y-52063380D01*
X111914285Y-52063380D02*
X112152381Y-51063380D01*
X112533333Y-52063380D02*
X112533333Y-51063380D01*
X112533333Y-51063380D02*
X112914285Y-51063380D01*
X112914285Y-51063380D02*
X113009523Y-51111000D01*
X113009523Y-51111000D02*
X113057142Y-51158619D01*
X113057142Y-51158619D02*
X113104761Y-51253857D01*
X113104761Y-51253857D02*
X113104761Y-51396714D01*
X113104761Y-51396714D02*
X113057142Y-51491952D01*
X113057142Y-51491952D02*
X113009523Y-51539571D01*
X113009523Y-51539571D02*
X112914285Y-51587190D01*
X112914285Y-51587190D02*
X112533333Y-51587190D01*
X114057142Y-52063380D02*
X113485714Y-52063380D01*
X113771428Y-52063380D02*
X113771428Y-51063380D01*
X113771428Y-51063380D02*
X113676190Y-51206238D01*
X113676190Y-51206238D02*
X113580952Y-51301476D01*
X113580952Y-51301476D02*
X113485714Y-51349095D01*
X138451571Y-66741714D02*
X138451571Y-67075047D01*
X138975380Y-67075047D02*
X137975380Y-67075047D01*
X137975380Y-67075047D02*
X137975380Y-66598857D01*
X138689666Y-66265523D02*
X138689666Y-65789333D01*
X138975380Y-66360761D02*
X137975380Y-66027428D01*
X137975380Y-66027428D02*
X138975380Y-65694095D01*
X138975380Y-65360761D02*
X137975380Y-65360761D01*
X137975380Y-65360761D02*
X138975380Y-64789333D01*
X138975380Y-64789333D02*
X137975380Y-64789333D01*
X137975380Y-63836952D02*
X137975380Y-64313142D01*
X137975380Y-64313142D02*
X138451571Y-64360761D01*
X138451571Y-64360761D02*
X138403952Y-64313142D01*
X138403952Y-64313142D02*
X138356333Y-64217904D01*
X138356333Y-64217904D02*
X138356333Y-63979809D01*
X138356333Y-63979809D02*
X138403952Y-63884571D01*
X138403952Y-63884571D02*
X138451571Y-63836952D01*
X138451571Y-63836952D02*
X138546809Y-63789333D01*
X138546809Y-63789333D02*
X138784904Y-63789333D01*
X138784904Y-63789333D02*
X138880142Y-63836952D01*
X138880142Y-63836952D02*
X138927761Y-63884571D01*
X138927761Y-63884571D02*
X138975380Y-63979809D01*
X138975380Y-63979809D02*
X138975380Y-64217904D01*
X138975380Y-64217904D02*
X138927761Y-64313142D01*
X138927761Y-64313142D02*
X138880142Y-64360761D01*
X109382285Y-98838571D02*
X109048952Y-98838571D01*
X109048952Y-99362380D02*
X109048952Y-98362380D01*
X109048952Y-98362380D02*
X109525142Y-98362380D01*
X109858476Y-99076666D02*
X110334666Y-99076666D01*
X109763238Y-99362380D02*
X110096571Y-98362380D01*
X110096571Y-98362380D02*
X110429904Y-99362380D01*
X110763238Y-99362380D02*
X110763238Y-98362380D01*
X110763238Y-98362380D02*
X111334666Y-99362380D01*
X111334666Y-99362380D02*
X111334666Y-98362380D01*
X112334666Y-99362380D02*
X111763238Y-99362380D01*
X112048952Y-99362380D02*
X112048952Y-98362380D01*
X112048952Y-98362380D02*
X111953714Y-98505238D01*
X111953714Y-98505238D02*
X111858476Y-98600476D01*
X111858476Y-98600476D02*
X111763238Y-98648095D01*
X163147380Y-55716666D02*
X162671190Y-56049999D01*
X163147380Y-56288094D02*
X162147380Y-56288094D01*
X162147380Y-56288094D02*
X162147380Y-55907142D01*
X162147380Y-55907142D02*
X162195000Y-55811904D01*
X162195000Y-55811904D02*
X162242619Y-55764285D01*
X162242619Y-55764285D02*
X162337857Y-55716666D01*
X162337857Y-55716666D02*
X162480714Y-55716666D01*
X162480714Y-55716666D02*
X162575952Y-55764285D01*
X162575952Y-55764285D02*
X162623571Y-55811904D01*
X162623571Y-55811904D02*
X162671190Y-55907142D01*
X162671190Y-55907142D02*
X162671190Y-56288094D01*
X162147380Y-54811904D02*
X162147380Y-55288094D01*
X162147380Y-55288094D02*
X162623571Y-55335713D01*
X162623571Y-55335713D02*
X162575952Y-55288094D01*
X162575952Y-55288094D02*
X162528333Y-55192856D01*
X162528333Y-55192856D02*
X162528333Y-54954761D01*
X162528333Y-54954761D02*
X162575952Y-54859523D01*
X162575952Y-54859523D02*
X162623571Y-54811904D01*
X162623571Y-54811904D02*
X162718809Y-54764285D01*
X162718809Y-54764285D02*
X162956904Y-54764285D01*
X162956904Y-54764285D02*
X163052142Y-54811904D01*
X163052142Y-54811904D02*
X163099761Y-54859523D01*
X163099761Y-54859523D02*
X163147380Y-54954761D01*
X163147380Y-54954761D02*
X163147380Y-55192856D01*
X163147380Y-55192856D02*
X163099761Y-55288094D01*
X163099761Y-55288094D02*
X163052142Y-55335713D01*
X133408666Y-51107380D02*
X133408666Y-51821666D01*
X133408666Y-51821666D02*
X133361047Y-51964523D01*
X133361047Y-51964523D02*
X133265809Y-52059761D01*
X133265809Y-52059761D02*
X133122952Y-52107380D01*
X133122952Y-52107380D02*
X133027714Y-52107380D01*
X134313428Y-51440714D02*
X134313428Y-52107380D01*
X134075333Y-51059761D02*
X133837238Y-51774047D01*
X133837238Y-51774047D02*
X134456285Y-51774047D01*
X104826095Y-51107380D02*
X104826095Y-51916904D01*
X104826095Y-51916904D02*
X104873714Y-52012142D01*
X104873714Y-52012142D02*
X104921333Y-52059761D01*
X104921333Y-52059761D02*
X105016571Y-52107380D01*
X105016571Y-52107380D02*
X105207047Y-52107380D01*
X105207047Y-52107380D02*
X105302285Y-52059761D01*
X105302285Y-52059761D02*
X105349904Y-52012142D01*
X105349904Y-52012142D02*
X105397523Y-51916904D01*
X105397523Y-51916904D02*
X105397523Y-51107380D01*
X106397523Y-52107380D02*
X105826095Y-52107380D01*
X106111809Y-52107380D02*
X106111809Y-51107380D01*
X106111809Y-51107380D02*
X106016571Y-51250238D01*
X106016571Y-51250238D02*
X105921333Y-51345476D01*
X105921333Y-51345476D02*
X105826095Y-51393095D01*
X161079142Y-80089380D02*
X160745809Y-79613190D01*
X160507714Y-80089380D02*
X160507714Y-79089380D01*
X160507714Y-79089380D02*
X160888666Y-79089380D01*
X160888666Y-79089380D02*
X160983904Y-79137000D01*
X160983904Y-79137000D02*
X161031523Y-79184619D01*
X161031523Y-79184619D02*
X161079142Y-79279857D01*
X161079142Y-79279857D02*
X161079142Y-79422714D01*
X161079142Y-79422714D02*
X161031523Y-79517952D01*
X161031523Y-79517952D02*
X160983904Y-79565571D01*
X160983904Y-79565571D02*
X160888666Y-79613190D01*
X160888666Y-79613190D02*
X160507714Y-79613190D01*
X162031523Y-80089380D02*
X161460095Y-80089380D01*
X161745809Y-80089380D02*
X161745809Y-79089380D01*
X161745809Y-79089380D02*
X161650571Y-79232238D01*
X161650571Y-79232238D02*
X161555333Y-79327476D01*
X161555333Y-79327476D02*
X161460095Y-79375095D01*
X162650571Y-79089380D02*
X162745809Y-79089380D01*
X162745809Y-79089380D02*
X162841047Y-79137000D01*
X162841047Y-79137000D02*
X162888666Y-79184619D01*
X162888666Y-79184619D02*
X162936285Y-79279857D01*
X162936285Y-79279857D02*
X162983904Y-79470333D01*
X162983904Y-79470333D02*
X162983904Y-79708428D01*
X162983904Y-79708428D02*
X162936285Y-79898904D01*
X162936285Y-79898904D02*
X162888666Y-79994142D01*
X162888666Y-79994142D02*
X162841047Y-80041761D01*
X162841047Y-80041761D02*
X162745809Y-80089380D01*
X162745809Y-80089380D02*
X162650571Y-80089380D01*
X162650571Y-80089380D02*
X162555333Y-80041761D01*
X162555333Y-80041761D02*
X162507714Y-79994142D01*
X162507714Y-79994142D02*
X162460095Y-79898904D01*
X162460095Y-79898904D02*
X162412476Y-79708428D01*
X162412476Y-79708428D02*
X162412476Y-79470333D01*
X162412476Y-79470333D02*
X162460095Y-79279857D01*
X162460095Y-79279857D02*
X162507714Y-79184619D01*
X162507714Y-79184619D02*
X162555333Y-79137000D01*
X162555333Y-79137000D02*
X162650571Y-79089380D01*
X119034285Y-98838571D02*
X118700952Y-98838571D01*
X118700952Y-99362380D02*
X118700952Y-98362380D01*
X118700952Y-98362380D02*
X119177142Y-98362380D01*
X119510476Y-99076666D02*
X119986666Y-99076666D01*
X119415238Y-99362380D02*
X119748571Y-98362380D01*
X119748571Y-98362380D02*
X120081904Y-99362380D01*
X120415238Y-99362380D02*
X120415238Y-98362380D01*
X120415238Y-98362380D02*
X120986666Y-99362380D01*
X120986666Y-99362380D02*
X120986666Y-98362380D01*
X121415238Y-98457619D02*
X121462857Y-98410000D01*
X121462857Y-98410000D02*
X121558095Y-98362380D01*
X121558095Y-98362380D02*
X121796190Y-98362380D01*
X121796190Y-98362380D02*
X121891428Y-98410000D01*
X121891428Y-98410000D02*
X121939047Y-98457619D01*
X121939047Y-98457619D02*
X121986666Y-98552857D01*
X121986666Y-98552857D02*
X121986666Y-98648095D01*
X121986666Y-98648095D02*
X121939047Y-98790952D01*
X121939047Y-98790952D02*
X121367619Y-99362380D01*
X121367619Y-99362380D02*
X121986666Y-99362380D01*
X145640666Y-51107380D02*
X145640666Y-51821666D01*
X145640666Y-51821666D02*
X145593047Y-51964523D01*
X145593047Y-51964523D02*
X145497809Y-52059761D01*
X145497809Y-52059761D02*
X145354952Y-52107380D01*
X145354952Y-52107380D02*
X145259714Y-52107380D01*
X146021619Y-51107380D02*
X146688285Y-51107380D01*
X146688285Y-51107380D02*
X146259714Y-52107380D01*
X128686285Y-98838571D02*
X128352952Y-98838571D01*
X128352952Y-99362380D02*
X128352952Y-98362380D01*
X128352952Y-98362380D02*
X128829142Y-98362380D01*
X129162476Y-99076666D02*
X129638666Y-99076666D01*
X129067238Y-99362380D02*
X129400571Y-98362380D01*
X129400571Y-98362380D02*
X129733904Y-99362380D01*
X130067238Y-99362380D02*
X130067238Y-98362380D01*
X130067238Y-98362380D02*
X130638666Y-99362380D01*
X130638666Y-99362380D02*
X130638666Y-98362380D01*
X131019619Y-98362380D02*
X131638666Y-98362380D01*
X131638666Y-98362380D02*
X131305333Y-98743333D01*
X131305333Y-98743333D02*
X131448190Y-98743333D01*
X131448190Y-98743333D02*
X131543428Y-98790952D01*
X131543428Y-98790952D02*
X131591047Y-98838571D01*
X131591047Y-98838571D02*
X131638666Y-98933809D01*
X131638666Y-98933809D02*
X131638666Y-99171904D01*
X131638666Y-99171904D02*
X131591047Y-99267142D01*
X131591047Y-99267142D02*
X131543428Y-99314761D01*
X131543428Y-99314761D02*
X131448190Y-99362380D01*
X131448190Y-99362380D02*
X131162476Y-99362380D01*
X131162476Y-99362380D02*
X131067238Y-99314761D01*
X131067238Y-99314761D02*
X131019619Y-99267142D01*
X153046666Y-51107380D02*
X153046666Y-51821666D01*
X153046666Y-51821666D02*
X152999047Y-51964523D01*
X152999047Y-51964523D02*
X152903809Y-52059761D01*
X152903809Y-52059761D02*
X152760952Y-52107380D01*
X152760952Y-52107380D02*
X152665714Y-52107380D01*
X153999047Y-51107380D02*
X153522857Y-51107380D01*
X153522857Y-51107380D02*
X153475238Y-51583571D01*
X153475238Y-51583571D02*
X153522857Y-51535952D01*
X153522857Y-51535952D02*
X153618095Y-51488333D01*
X153618095Y-51488333D02*
X153856190Y-51488333D01*
X153856190Y-51488333D02*
X153951428Y-51535952D01*
X153951428Y-51535952D02*
X153999047Y-51583571D01*
X153999047Y-51583571D02*
X154046666Y-51678809D01*
X154046666Y-51678809D02*
X154046666Y-51916904D01*
X154046666Y-51916904D02*
X153999047Y-52012142D01*
X153999047Y-52012142D02*
X153951428Y-52059761D01*
X153951428Y-52059761D02*
X153856190Y-52107380D01*
X153856190Y-52107380D02*
X153618095Y-52107380D01*
X153618095Y-52107380D02*
X153522857Y-52059761D01*
X153522857Y-52059761D02*
X153475238Y-52012142D01*
X156507142Y-72469380D02*
X156173809Y-71993190D01*
X155935714Y-72469380D02*
X155935714Y-71469380D01*
X155935714Y-71469380D02*
X156316666Y-71469380D01*
X156316666Y-71469380D02*
X156411904Y-71517000D01*
X156411904Y-71517000D02*
X156459523Y-71564619D01*
X156459523Y-71564619D02*
X156507142Y-71659857D01*
X156507142Y-71659857D02*
X156507142Y-71802714D01*
X156507142Y-71802714D02*
X156459523Y-71897952D01*
X156459523Y-71897952D02*
X156411904Y-71945571D01*
X156411904Y-71945571D02*
X156316666Y-71993190D01*
X156316666Y-71993190D02*
X155935714Y-71993190D01*
X157459523Y-72469380D02*
X156888095Y-72469380D01*
X157173809Y-72469380D02*
X157173809Y-71469380D01*
X157173809Y-71469380D02*
X157078571Y-71612238D01*
X157078571Y-71612238D02*
X156983333Y-71707476D01*
X156983333Y-71707476D02*
X156888095Y-71755095D01*
X157792857Y-71469380D02*
X158411904Y-71469380D01*
X158411904Y-71469380D02*
X158078571Y-71850333D01*
X158078571Y-71850333D02*
X158221428Y-71850333D01*
X158221428Y-71850333D02*
X158316666Y-71897952D01*
X158316666Y-71897952D02*
X158364285Y-71945571D01*
X158364285Y-71945571D02*
X158411904Y-72040809D01*
X158411904Y-72040809D02*
X158411904Y-72278904D01*
X158411904Y-72278904D02*
X158364285Y-72374142D01*
X158364285Y-72374142D02*
X158316666Y-72421761D01*
X158316666Y-72421761D02*
X158221428Y-72469380D01*
X158221428Y-72469380D02*
X157935714Y-72469380D01*
X157935714Y-72469380D02*
X157840476Y-72421761D01*
X157840476Y-72421761D02*
X157792857Y-72374142D01*
X156507142Y-76279380D02*
X156173809Y-75803190D01*
X155935714Y-76279380D02*
X155935714Y-75279380D01*
X155935714Y-75279380D02*
X156316666Y-75279380D01*
X156316666Y-75279380D02*
X156411904Y-75327000D01*
X156411904Y-75327000D02*
X156459523Y-75374619D01*
X156459523Y-75374619D02*
X156507142Y-75469857D01*
X156507142Y-75469857D02*
X156507142Y-75612714D01*
X156507142Y-75612714D02*
X156459523Y-75707952D01*
X156459523Y-75707952D02*
X156411904Y-75755571D01*
X156411904Y-75755571D02*
X156316666Y-75803190D01*
X156316666Y-75803190D02*
X155935714Y-75803190D01*
X157459523Y-76279380D02*
X156888095Y-76279380D01*
X157173809Y-76279380D02*
X157173809Y-75279380D01*
X157173809Y-75279380D02*
X157078571Y-75422238D01*
X157078571Y-75422238D02*
X156983333Y-75517476D01*
X156983333Y-75517476D02*
X156888095Y-75565095D01*
X158411904Y-76279380D02*
X157840476Y-76279380D01*
X158126190Y-76279380D02*
X158126190Y-75279380D01*
X158126190Y-75279380D02*
X158030952Y-75422238D01*
X158030952Y-75422238D02*
X157935714Y-75517476D01*
X157935714Y-75517476D02*
X157840476Y-75565095D01*
X156983333Y-83899380D02*
X156650000Y-83423190D01*
X156411905Y-83899380D02*
X156411905Y-82899380D01*
X156411905Y-82899380D02*
X156792857Y-82899380D01*
X156792857Y-82899380D02*
X156888095Y-82947000D01*
X156888095Y-82947000D02*
X156935714Y-82994619D01*
X156935714Y-82994619D02*
X156983333Y-83089857D01*
X156983333Y-83089857D02*
X156983333Y-83232714D01*
X156983333Y-83232714D02*
X156935714Y-83327952D01*
X156935714Y-83327952D02*
X156888095Y-83375571D01*
X156888095Y-83375571D02*
X156792857Y-83423190D01*
X156792857Y-83423190D02*
X156411905Y-83423190D01*
X157316667Y-82899380D02*
X157983333Y-82899380D01*
X157983333Y-82899380D02*
X157554762Y-83899380D01*
X138338285Y-98838571D02*
X138004952Y-98838571D01*
X138004952Y-99362380D02*
X138004952Y-98362380D01*
X138004952Y-98362380D02*
X138481142Y-98362380D01*
X138814476Y-99076666D02*
X139290666Y-99076666D01*
X138719238Y-99362380D02*
X139052571Y-98362380D01*
X139052571Y-98362380D02*
X139385904Y-99362380D01*
X139719238Y-99362380D02*
X139719238Y-98362380D01*
X139719238Y-98362380D02*
X140290666Y-99362380D01*
X140290666Y-99362380D02*
X140290666Y-98362380D01*
X141195428Y-98695714D02*
X141195428Y-99362380D01*
X140957333Y-98314761D02*
X140719238Y-99029047D01*
X140719238Y-99029047D02*
X141338285Y-99029047D01*
X163147380Y-64606666D02*
X162671190Y-64939999D01*
X163147380Y-65178094D02*
X162147380Y-65178094D01*
X162147380Y-65178094D02*
X162147380Y-64797142D01*
X162147380Y-64797142D02*
X162195000Y-64701904D01*
X162195000Y-64701904D02*
X162242619Y-64654285D01*
X162242619Y-64654285D02*
X162337857Y-64606666D01*
X162337857Y-64606666D02*
X162480714Y-64606666D01*
X162480714Y-64606666D02*
X162575952Y-64654285D01*
X162575952Y-64654285D02*
X162623571Y-64701904D01*
X162623571Y-64701904D02*
X162671190Y-64797142D01*
X162671190Y-64797142D02*
X162671190Y-65178094D01*
X162147380Y-63749523D02*
X162147380Y-63939999D01*
X162147380Y-63939999D02*
X162195000Y-64035237D01*
X162195000Y-64035237D02*
X162242619Y-64082856D01*
X162242619Y-64082856D02*
X162385476Y-64178094D01*
X162385476Y-64178094D02*
X162575952Y-64225713D01*
X162575952Y-64225713D02*
X162956904Y-64225713D01*
X162956904Y-64225713D02*
X163052142Y-64178094D01*
X163052142Y-64178094D02*
X163099761Y-64130475D01*
X163099761Y-64130475D02*
X163147380Y-64035237D01*
X163147380Y-64035237D02*
X163147380Y-63844761D01*
X163147380Y-63844761D02*
X163099761Y-63749523D01*
X163099761Y-63749523D02*
X163052142Y-63701904D01*
X163052142Y-63701904D02*
X162956904Y-63654285D01*
X162956904Y-63654285D02*
X162718809Y-63654285D01*
X162718809Y-63654285D02*
X162623571Y-63701904D01*
X162623571Y-63701904D02*
X162575952Y-63749523D01*
X162575952Y-63749523D02*
X162528333Y-63844761D01*
X162528333Y-63844761D02*
X162528333Y-64035237D01*
X162528333Y-64035237D02*
X162575952Y-64130475D01*
X162575952Y-64130475D02*
X162623571Y-64178094D01*
X162623571Y-64178094D02*
X162718809Y-64225713D01*
D10*
X162449064Y-82622000D02*
X160994936Y-82622000D01*
X162449064Y-80802000D02*
X160994936Y-80802000D01*
X147660000Y-84416000D02*
X147660000Y-91356000D01*
X147660000Y-91356000D02*
X163860000Y-91356000D01*
X154160000Y-85886000D02*
X157360000Y-85886000D01*
X155010000Y-87886000D02*
X156510000Y-87886000D01*
X157360000Y-89886000D02*
X154160000Y-89886000D01*
X163860000Y-84416000D02*
X147660000Y-84416000D01*
X163860000Y-91356000D02*
X163860000Y-84416000D01*
X105107000Y-79910000D02*
X106357000Y-79910000D01*
X105397000Y-79620000D02*
X111367000Y-79620000D01*
X111367000Y-79620000D02*
X111367000Y-64500000D01*
X105407000Y-79610000D02*
X106157000Y-79610000D01*
X106157000Y-79610000D02*
X106157000Y-77810000D01*
X107657000Y-79610000D02*
X107657000Y-78860000D01*
X107657000Y-78860000D02*
X110607000Y-78860000D01*
X110607000Y-78860000D02*
X110607000Y-72060000D01*
X105107000Y-78660000D02*
X105107000Y-79910000D01*
X105407000Y-77810000D02*
X105407000Y-79610000D01*
X106157000Y-77810000D02*
X105407000Y-77810000D01*
X105407000Y-76310000D02*
X106157000Y-76310000D01*
X106157000Y-76310000D02*
X106157000Y-67810000D01*
X105407000Y-67810000D02*
X105407000Y-76310000D01*
X106157000Y-67810000D02*
X105407000Y-67810000D01*
X105407000Y-66310000D02*
X106157000Y-66310000D01*
X106157000Y-66310000D02*
X106157000Y-64510000D01*
X107657000Y-65260000D02*
X110607000Y-65260000D01*
X110607000Y-65260000D02*
X110607000Y-72060000D01*
X105407000Y-64510000D02*
X105407000Y-66310000D01*
X106157000Y-64510000D02*
X105407000Y-64510000D01*
X107657000Y-64510000D02*
X107657000Y-65260000D01*
X105397000Y-64500000D02*
X105397000Y-79620000D01*
X111367000Y-64500000D02*
X105397000Y-64500000D01*
X157877064Y-78812000D02*
X156422936Y-78812000D01*
X157877064Y-76992000D02*
X156422936Y-76992000D01*
X157912000Y-99746000D02*
X157912000Y-92126000D01*
X157912000Y-92126000D02*
X147752000Y-92126000D01*
X147752000Y-99746000D02*
X157912000Y-99746000D01*
X147752000Y-93396000D02*
X157912000Y-93396000D01*
X147752000Y-92126000D02*
X147752000Y-99746000D01*
X126102000Y-88122000D02*
X126102000Y-86792000D01*
X127432000Y-88122000D02*
X126102000Y-88122000D01*
X128702000Y-88122000D02*
X133842000Y-88122000D01*
X128702000Y-88122000D02*
X128702000Y-85462000D01*
X133842000Y-88122000D02*
X133842000Y-85462000D01*
X128702000Y-85462000D02*
X133842000Y-85462000D01*
X114930000Y-52292000D02*
X114930000Y-53542000D01*
X115220000Y-52582000D02*
X115220000Y-58552000D01*
X115220000Y-58552000D02*
X127840000Y-58552000D01*
X115230000Y-52592000D02*
X115230000Y-53342000D01*
X115230000Y-53342000D02*
X117030000Y-53342000D01*
X115230000Y-54842000D02*
X115980000Y-54842000D01*
X115980000Y-54842000D02*
X115980000Y-57792000D01*
X115980000Y-57792000D02*
X121530000Y-57792000D01*
X116180000Y-52292000D02*
X114930000Y-52292000D01*
X117030000Y-52592000D02*
X115230000Y-52592000D01*
X117030000Y-53342000D02*
X117030000Y-52592000D01*
X118530000Y-52592000D02*
X118530000Y-53342000D01*
X118530000Y-53342000D02*
X124530000Y-53342000D01*
X124530000Y-52592000D02*
X118530000Y-52592000D01*
X124530000Y-53342000D02*
X124530000Y-52592000D01*
X126030000Y-52592000D02*
X126030000Y-53342000D01*
X126030000Y-53342000D02*
X127830000Y-53342000D01*
X127080000Y-54842000D02*
X127080000Y-57792000D01*
X127080000Y-57792000D02*
X121530000Y-57792000D01*
X127830000Y-52592000D02*
X126030000Y-52592000D01*
X127830000Y-53342000D02*
X127830000Y-52592000D01*
X127830000Y-54842000D02*
X127080000Y-54842000D01*
X127840000Y-52582000D02*
X115220000Y-52582000D01*
X127840000Y-58552000D02*
X127840000Y-52582000D01*
X162449064Y-71192000D02*
X160994936Y-71192000D01*
X162449064Y-69372000D02*
X160994936Y-69372000D01*
X162449064Y-75002000D02*
X160994936Y-75002000D01*
X162449064Y-73182000D02*
X160994936Y-73182000D01*
X140446000Y-84312000D02*
X139116000Y-84312000D01*
X140446000Y-82982000D02*
X140446000Y-84312000D01*
X140446000Y-81712000D02*
X140446000Y-76572000D01*
X140446000Y-81712000D02*
X137786000Y-81712000D01*
X140446000Y-76572000D02*
X137786000Y-76572000D01*
X137786000Y-81712000D02*
X137786000Y-76572000D01*
X147990000Y-61165000D02*
X147990000Y-62415000D01*
X148280000Y-61455000D02*
X148280000Y-67425000D01*
X148280000Y-67425000D02*
X158400000Y-67425000D01*
X148290000Y-61465000D02*
X148290000Y-62215000D01*
X148290000Y-62215000D02*
X150090000Y-62215000D01*
X148290000Y-63715000D02*
X149040000Y-63715000D01*
X149040000Y-63715000D02*
X149040000Y-66665000D01*
X149040000Y-66665000D02*
X153340000Y-66665000D01*
X149240000Y-61165000D02*
X147990000Y-61165000D01*
X150090000Y-61465000D02*
X148290000Y-61465000D01*
X150090000Y-62215000D02*
X150090000Y-61465000D01*
X151590000Y-61465000D02*
X151590000Y-62215000D01*
X151590000Y-62215000D02*
X155090000Y-62215000D01*
X155090000Y-61465000D02*
X151590000Y-61465000D01*
X155090000Y-62215000D02*
X155090000Y-61465000D01*
X156590000Y-61465000D02*
X156590000Y-62215000D01*
X156590000Y-62215000D02*
X158390000Y-62215000D01*
X157640000Y-63715000D02*
X157640000Y-66665000D01*
X157640000Y-66665000D02*
X153340000Y-66665000D01*
X158390000Y-61465000D02*
X156590000Y-61465000D01*
X158390000Y-62215000D02*
X158390000Y-61465000D01*
X158390000Y-63715000D02*
X157640000Y-63715000D01*
X158400000Y-61455000D02*
X148280000Y-61455000D01*
X158400000Y-67425000D02*
X158400000Y-61455000D01*
X111370000Y-52696000D02*
X112700000Y-52696000D01*
X111370000Y-54026000D02*
X111370000Y-52696000D01*
X111370000Y-55296000D02*
X111370000Y-57896000D01*
X111370000Y-55296000D02*
X114030000Y-55296000D01*
X111370000Y-57896000D02*
X114030000Y-57896000D01*
X114030000Y-55296000D02*
X114030000Y-57896000D01*
X143898000Y-67726000D02*
X142648000Y-67726000D01*
X143608000Y-68016000D02*
X137638000Y-68016000D01*
X137638000Y-68016000D02*
X137638000Y-75636000D01*
X143598000Y-68026000D02*
X142848000Y-68026000D01*
X142848000Y-68026000D02*
X142848000Y-69826000D01*
X141348000Y-68026000D02*
X141348000Y-68776000D01*
X141348000Y-68776000D02*
X138398000Y-68776000D01*
X138398000Y-68776000D02*
X138398000Y-71826000D01*
X143898000Y-68976000D02*
X143898000Y-67726000D01*
X143598000Y-69826000D02*
X143598000Y-68026000D01*
X142848000Y-69826000D02*
X143598000Y-69826000D01*
X143598000Y-71326000D02*
X142848000Y-71326000D01*
X142848000Y-71326000D02*
X142848000Y-72326000D01*
X143598000Y-72326000D02*
X143598000Y-71326000D01*
X142848000Y-72326000D02*
X143598000Y-72326000D01*
X143598000Y-73826000D02*
X142848000Y-73826000D01*
X142848000Y-73826000D02*
X142848000Y-75626000D01*
X141348000Y-74876000D02*
X138398000Y-74876000D01*
X138398000Y-74876000D02*
X138398000Y-71826000D01*
X143598000Y-75626000D02*
X143598000Y-73826000D01*
X142848000Y-75626000D02*
X143598000Y-75626000D01*
X141348000Y-75626000D02*
X141348000Y-74876000D01*
X143608000Y-75636000D02*
X143608000Y-68016000D01*
X137638000Y-75636000D02*
X143608000Y-75636000D01*
X116450000Y-88122000D02*
X116450000Y-86792000D01*
X117780000Y-88122000D02*
X116450000Y-88122000D01*
X119050000Y-88122000D02*
X124190000Y-88122000D01*
X119050000Y-88122000D02*
X119050000Y-85462000D01*
X124190000Y-88122000D02*
X124190000Y-85462000D01*
X119050000Y-85462000D02*
X124190000Y-85462000D01*
X114768000Y-98195000D02*
X114768000Y-96945000D01*
X114478000Y-97905000D02*
X114478000Y-91935000D01*
X114478000Y-91935000D02*
X106858000Y-91935000D01*
X114468000Y-97895000D02*
X114468000Y-97145000D01*
X114468000Y-97145000D02*
X112668000Y-97145000D01*
X114468000Y-95645000D02*
X113718000Y-95645000D01*
X113718000Y-95645000D02*
X113718000Y-92695000D01*
X113718000Y-92695000D02*
X110668000Y-92695000D01*
X113518000Y-98195000D02*
X114768000Y-98195000D01*
X112668000Y-97895000D02*
X114468000Y-97895000D01*
X112668000Y-97145000D02*
X112668000Y-97895000D01*
X111168000Y-97895000D02*
X111168000Y-97145000D01*
X111168000Y-97145000D02*
X110168000Y-97145000D01*
X110168000Y-97895000D02*
X111168000Y-97895000D01*
X110168000Y-97145000D02*
X110168000Y-97895000D01*
X108668000Y-97895000D02*
X108668000Y-97145000D01*
X108668000Y-97145000D02*
X106868000Y-97145000D01*
X107618000Y-95645000D02*
X107618000Y-92695000D01*
X107618000Y-92695000D02*
X110668000Y-92695000D01*
X106868000Y-97895000D02*
X108668000Y-97895000D01*
X106868000Y-97145000D02*
X106868000Y-97895000D01*
X106868000Y-95645000D02*
X107618000Y-95645000D01*
X106858000Y-97905000D02*
X114478000Y-97905000D01*
X106858000Y-91935000D02*
X106858000Y-97905000D01*
X106813000Y-88122000D02*
X106813000Y-86792000D01*
X108143000Y-88122000D02*
X106813000Y-88122000D01*
X109413000Y-88122000D02*
X114553000Y-88122000D01*
X109413000Y-88122000D02*
X109413000Y-85462000D01*
X114553000Y-88122000D02*
X114553000Y-85462000D01*
X109413000Y-85462000D02*
X114553000Y-85462000D01*
X161870000Y-54822936D02*
X161870000Y-56277064D01*
X160050000Y-54822936D02*
X160050000Y-56277064D01*
X128392000Y-52292000D02*
X128392000Y-53542000D01*
X128682000Y-52582000D02*
X128682000Y-58552000D01*
X128682000Y-58552000D02*
X138802000Y-58552000D01*
X128692000Y-52592000D02*
X128692000Y-53342000D01*
X128692000Y-53342000D02*
X130492000Y-53342000D01*
X128692000Y-54842000D02*
X129442000Y-54842000D01*
X129442000Y-54842000D02*
X129442000Y-57792000D01*
X129442000Y-57792000D02*
X133742000Y-57792000D01*
X129642000Y-52292000D02*
X128392000Y-52292000D01*
X130492000Y-52592000D02*
X128692000Y-52592000D01*
X130492000Y-53342000D02*
X130492000Y-52592000D01*
X131992000Y-52592000D02*
X131992000Y-53342000D01*
X131992000Y-53342000D02*
X135492000Y-53342000D01*
X135492000Y-52592000D02*
X131992000Y-52592000D01*
X135492000Y-53342000D02*
X135492000Y-52592000D01*
X136992000Y-52592000D02*
X136992000Y-53342000D01*
X136992000Y-53342000D02*
X138792000Y-53342000D01*
X138042000Y-54842000D02*
X138042000Y-57792000D01*
X138042000Y-57792000D02*
X133742000Y-57792000D01*
X138792000Y-52592000D02*
X136992000Y-52592000D01*
X138792000Y-53342000D02*
X138792000Y-52592000D01*
X138792000Y-54842000D02*
X138042000Y-54842000D01*
X138802000Y-52582000D02*
X128682000Y-52582000D01*
X138802000Y-58552000D02*
X138802000Y-52582000D01*
X102948000Y-52452000D02*
X102948000Y-62732000D01*
X102948000Y-62732000D02*
X108248000Y-62732000D01*
X104598000Y-52452000D02*
X102948000Y-52452000D01*
X108248000Y-52452000D02*
X106598000Y-52452000D01*
X108248000Y-62732000D02*
X108248000Y-52452000D01*
X104598000Y-52452000D02*
G75*
G03*
X106598000Y-52452000I1000000J0D01*
G01*
X162449064Y-78812000D02*
X160994936Y-78812000D01*
X162449064Y-76992000D02*
X160994936Y-76992000D01*
G36*
X151117984Y-82736632D02*
G01*
X151044230Y-82864099D01*
X149784000Y-82864129D01*
X148523769Y-82864159D01*
X147908307Y-81794934D01*
X147800512Y-81607206D01*
X147698723Y-81429045D01*
X147645167Y-81334803D01*
X148435846Y-81334803D01*
X148763115Y-81549338D01*
X148890702Y-81632996D01*
X149037825Y-81729497D01*
X149191358Y-81830230D01*
X149338177Y-81926582D01*
X149437192Y-81991583D01*
X149784000Y-82219292D01*
X149784000Y-81900139D01*
X149784000Y-81580986D01*
X149388346Y-81321112D01*
X149256383Y-81234460D01*
X149115546Y-81142022D01*
X148975600Y-81050206D01*
X148846309Y-80965415D01*
X148737437Y-80894057D01*
X148714269Y-80878880D01*
X148435846Y-80696523D01*
X148435846Y-81015663D01*
X148435846Y-81334803D01*
X147645167Y-81334803D01*
X147604594Y-81263406D01*
X147519778Y-81113241D01*
X147445929Y-80981503D01*
X147384701Y-80871145D01*
X147337748Y-80785118D01*
X147306723Y-80726378D01*
X147293280Y-80697875D01*
X147292846Y-80696000D01*
X147302363Y-80674263D01*
X147329811Y-80621665D01*
X147373537Y-80541157D01*
X147431887Y-80435693D01*
X147503207Y-80308225D01*
X147585844Y-80161707D01*
X147678144Y-79999091D01*
X147778452Y-79823330D01*
X147822204Y-79747055D01*
X148439421Y-79747055D01*
X148440246Y-79818924D01*
X148445615Y-80133693D01*
X149774230Y-81009837D01*
X149979623Y-81145172D01*
X150175671Y-81274140D01*
X150359921Y-81395138D01*
X150529918Y-81506564D01*
X150683210Y-81606817D01*
X150817341Y-81694295D01*
X150929859Y-81767396D01*
X151018308Y-81824519D01*
X151080235Y-81864063D01*
X151113187Y-81884424D01*
X151117984Y-81886913D01*
X151122760Y-81868793D01*
X151126252Y-81818096D01*
X151128259Y-81741307D01*
X151128579Y-81644911D01*
X151127753Y-81572816D01*
X151122384Y-81257786D01*
X149793769Y-80381952D01*
X149588365Y-80246656D01*
X149392307Y-80117726D01*
X149208049Y-79996763D01*
X149038045Y-79885368D01*
X148925405Y-79811724D01*
X149784000Y-79811724D01*
X150111269Y-80025855D01*
X150238852Y-80109374D01*
X150385970Y-80205748D01*
X150539499Y-80306376D01*
X150686315Y-80402656D01*
X150785346Y-80467639D01*
X151132153Y-80695292D01*
X151132153Y-80376733D01*
X151132153Y-80058175D01*
X150485997Y-79633480D01*
X150343077Y-79539732D01*
X150209723Y-79452619D01*
X150089607Y-79374512D01*
X149986398Y-79307783D01*
X149903770Y-79254803D01*
X149845392Y-79217944D01*
X149814935Y-79199575D01*
X149811920Y-79198072D01*
X149801306Y-79199377D01*
X149793696Y-79216040D01*
X149788625Y-79253063D01*
X149785632Y-79315445D01*
X149784253Y-79408186D01*
X149784000Y-79499541D01*
X149784000Y-79811724D01*
X148925405Y-79811724D01*
X148884749Y-79785143D01*
X148750617Y-79697690D01*
X148638101Y-79624610D01*
X148549658Y-79567504D01*
X148487740Y-79527974D01*
X148454802Y-79507622D01*
X148450016Y-79505136D01*
X148445238Y-79523239D01*
X148441745Y-79573917D01*
X148439739Y-79650685D01*
X148439421Y-79747055D01*
X147822204Y-79747055D01*
X147885116Y-79637377D01*
X147908307Y-79597067D01*
X148523769Y-78527842D01*
X149784000Y-78527842D01*
X151044230Y-78527842D01*
X151659692Y-79596226D01*
X151767590Y-79783908D01*
X151869572Y-79962038D01*
X151963972Y-80127659D01*
X152049126Y-80277814D01*
X152123368Y-80409546D01*
X152185033Y-80519899D01*
X152232457Y-80605916D01*
X152263973Y-80664641D01*
X152277918Y-80693117D01*
X152278456Y-80694959D01*
X152269482Y-80716779D01*
X152242477Y-80769411D01*
X152199090Y-80849906D01*
X152140971Y-80955318D01*
X152069770Y-81082699D01*
X151987136Y-81229101D01*
X151894719Y-81391576D01*
X151794168Y-81567178D01*
X151687133Y-81752958D01*
X151662995Y-81794703D01*
X151132153Y-82712144D01*
X151117984Y-82736632D01*
G37*
X135754000Y-88122000D02*
X135754000Y-86792000D01*
X137084000Y-88122000D02*
X135754000Y-88122000D01*
X138354000Y-88122000D02*
X143494000Y-88122000D01*
X138354000Y-88122000D02*
X138354000Y-85462000D01*
X143494000Y-88122000D02*
X143494000Y-85462000D01*
X138354000Y-85462000D02*
X143494000Y-85462000D01*
X124420000Y-98195000D02*
X124420000Y-96945000D01*
X124130000Y-97905000D02*
X124130000Y-91935000D01*
X124130000Y-91935000D02*
X116510000Y-91935000D01*
X124120000Y-97895000D02*
X124120000Y-97145000D01*
X124120000Y-97145000D02*
X122320000Y-97145000D01*
X124120000Y-95645000D02*
X123370000Y-95645000D01*
X123370000Y-95645000D02*
X123370000Y-92695000D01*
X123370000Y-92695000D02*
X120320000Y-92695000D01*
X123170000Y-98195000D02*
X124420000Y-98195000D01*
X122320000Y-97895000D02*
X124120000Y-97895000D01*
X122320000Y-97145000D02*
X122320000Y-97895000D01*
X120820000Y-97895000D02*
X120820000Y-97145000D01*
X120820000Y-97145000D02*
X119820000Y-97145000D01*
X119820000Y-97895000D02*
X120820000Y-97895000D01*
X119820000Y-97145000D02*
X119820000Y-97895000D01*
X118320000Y-97895000D02*
X118320000Y-97145000D01*
X118320000Y-97145000D02*
X116520000Y-97145000D01*
X117270000Y-95645000D02*
X117270000Y-92695000D01*
X117270000Y-92695000D02*
X120320000Y-92695000D01*
X116520000Y-97895000D02*
X118320000Y-97895000D01*
X116520000Y-97145000D02*
X116520000Y-97895000D01*
X116520000Y-95645000D02*
X117270000Y-95645000D01*
X116510000Y-97905000D02*
X124130000Y-97905000D01*
X116510000Y-91935000D02*
X116510000Y-97905000D01*
X144644000Y-52315000D02*
X145974000Y-52315000D01*
X144644000Y-53645000D02*
X144644000Y-52315000D01*
X144644000Y-54915000D02*
X144644000Y-67675000D01*
X144644000Y-54915000D02*
X147304000Y-54915000D01*
X144644000Y-67675000D02*
X147304000Y-67675000D01*
X147304000Y-54915000D02*
X147304000Y-67675000D01*
X134072000Y-98195000D02*
X134072000Y-96945000D01*
X133782000Y-97905000D02*
X133782000Y-91935000D01*
X133782000Y-91935000D02*
X126162000Y-91935000D01*
X133772000Y-97895000D02*
X133772000Y-97145000D01*
X133772000Y-97145000D02*
X131972000Y-97145000D01*
X133772000Y-95645000D02*
X133022000Y-95645000D01*
X133022000Y-95645000D02*
X133022000Y-92695000D01*
X133022000Y-92695000D02*
X129972000Y-92695000D01*
X132822000Y-98195000D02*
X134072000Y-98195000D01*
X131972000Y-97895000D02*
X133772000Y-97895000D01*
X131972000Y-97145000D02*
X131972000Y-97895000D01*
X130472000Y-97895000D02*
X130472000Y-97145000D01*
X130472000Y-97145000D02*
X129472000Y-97145000D01*
X129472000Y-97895000D02*
X130472000Y-97895000D01*
X129472000Y-97145000D02*
X129472000Y-97895000D01*
X127972000Y-97895000D02*
X127972000Y-97145000D01*
X127972000Y-97145000D02*
X126172000Y-97145000D01*
X126922000Y-95645000D02*
X126922000Y-92695000D01*
X126922000Y-92695000D02*
X129972000Y-92695000D01*
X126172000Y-97895000D02*
X127972000Y-97895000D01*
X126172000Y-97145000D02*
X126172000Y-97895000D01*
X126172000Y-95645000D02*
X126922000Y-95645000D01*
X126162000Y-97905000D02*
X133782000Y-97905000D01*
X126162000Y-91935000D02*
X126162000Y-97905000D01*
X148030000Y-52292000D02*
X148030000Y-53542000D01*
X148320000Y-52582000D02*
X148320000Y-58552000D01*
X148320000Y-58552000D02*
X158440000Y-58552000D01*
X148330000Y-52592000D02*
X148330000Y-53342000D01*
X148330000Y-53342000D02*
X150130000Y-53342000D01*
X148330000Y-54842000D02*
X149080000Y-54842000D01*
X149080000Y-54842000D02*
X149080000Y-57792000D01*
X149080000Y-57792000D02*
X153380000Y-57792000D01*
X149280000Y-52292000D02*
X148030000Y-52292000D01*
X150130000Y-52592000D02*
X148330000Y-52592000D01*
X150130000Y-53342000D02*
X150130000Y-52592000D01*
X151630000Y-52592000D02*
X151630000Y-53342000D01*
X151630000Y-53342000D02*
X155130000Y-53342000D01*
X155130000Y-52592000D02*
X151630000Y-52592000D01*
X155130000Y-53342000D02*
X155130000Y-52592000D01*
X156630000Y-52592000D02*
X156630000Y-53342000D01*
X156630000Y-53342000D02*
X158430000Y-53342000D01*
X157680000Y-54842000D02*
X157680000Y-57792000D01*
X157680000Y-57792000D02*
X153380000Y-57792000D01*
X158430000Y-52592000D02*
X156630000Y-52592000D01*
X158430000Y-53342000D02*
X158430000Y-52592000D01*
X158430000Y-54842000D02*
X157680000Y-54842000D01*
X158440000Y-52582000D02*
X148320000Y-52582000D01*
X158440000Y-58552000D02*
X158440000Y-52582000D01*
X157877064Y-71192000D02*
X156422936Y-71192000D01*
X157877064Y-69372000D02*
X156422936Y-69372000D01*
X157877064Y-75002000D02*
X156422936Y-75002000D01*
X157877064Y-73182000D02*
X156422936Y-73182000D01*
X157877064Y-82622000D02*
X156422936Y-82622000D01*
X157877064Y-80802000D02*
X156422936Y-80802000D01*
X143724000Y-98195000D02*
X143724000Y-96945000D01*
X143434000Y-97905000D02*
X143434000Y-91935000D01*
X143434000Y-91935000D02*
X135814000Y-91935000D01*
X143424000Y-97895000D02*
X143424000Y-97145000D01*
X143424000Y-97145000D02*
X141624000Y-97145000D01*
X143424000Y-95645000D02*
X142674000Y-95645000D01*
X142674000Y-95645000D02*
X142674000Y-92695000D01*
X142674000Y-92695000D02*
X139624000Y-92695000D01*
X142474000Y-98195000D02*
X143724000Y-98195000D01*
X141624000Y-97895000D02*
X143424000Y-97895000D01*
X141624000Y-97145000D02*
X141624000Y-97895000D01*
X140124000Y-97895000D02*
X140124000Y-97145000D01*
X140124000Y-97145000D02*
X139124000Y-97145000D01*
X139124000Y-97895000D02*
X140124000Y-97895000D01*
X139124000Y-97145000D02*
X139124000Y-97895000D01*
X137624000Y-97895000D02*
X137624000Y-97145000D01*
X137624000Y-97145000D02*
X135824000Y-97145000D01*
X136574000Y-95645000D02*
X136574000Y-92695000D01*
X136574000Y-92695000D02*
X139624000Y-92695000D01*
X135824000Y-97895000D02*
X137624000Y-97895000D01*
X135824000Y-97145000D02*
X135824000Y-97895000D01*
X135824000Y-95645000D02*
X136574000Y-95645000D01*
X135814000Y-97905000D02*
X143434000Y-97905000D01*
X135814000Y-91935000D02*
X135814000Y-97905000D01*
X161870000Y-63712936D02*
X161870000Y-65167064D01*
X160050000Y-63712936D02*
X160050000Y-65167064D01*
M02*
