G04 #@! TF.GenerationSoftware,KiCad,Pcbnew,(7.0.0-0)*
G04 #@! TF.CreationDate,2023-04-21T16:03:07+01:00*
G04 #@! TF.ProjectId,Klipper Fan Hat,4b6c6970-7065-4722-9046-616e20486174,rev?*
G04 #@! TF.SameCoordinates,Original*
G04 #@! TF.FileFunction,Profile,NP*
%FSLAX46Y46*%
G04 Gerber Fmt 4.6, Leading zero omitted, Abs format (unit mm)*
G04 Created by KiCad (PCBNEW (7.0.0-0)) date 2023-04-21 16:03:07*
%MOMM*%
%LPD*%
G01*
G04 APERTURE LIST*
G04 #@! TA.AperFunction,Profile*
%ADD10C,0.100000*%
G04 #@! TD*
G04 #@! TA.AperFunction,Profile*
%ADD11C,0.120000*%
G04 #@! TD*
G04 APERTURE END LIST*
D10*
X100000000Y-63000000D02*
G75*
G03*
X100500000Y-63500000I500000J0D01*
G01*
X165000000Y-47000000D02*
G75*
G03*
X162000000Y-44000000I-3000000J0D01*
G01*
X165000000Y-97000000D02*
X165000000Y-47000000D01*
X100000000Y-47000000D02*
X100000000Y-63000000D01*
D11*
X135850000Y-82114000D02*
G75*
G03*
X135850000Y-82114000I-1350000J0D01*
G01*
X135850000Y-62114000D02*
G75*
G03*
X135850000Y-62114000I-1350000J0D01*
G01*
X115850000Y-82114000D02*
G75*
G03*
X115850000Y-82114000I-1350000J0D01*
G01*
D10*
X146000000Y-81000000D02*
X146000000Y-96000000D01*
X144000000Y-96000000D02*
X144000000Y-81000000D01*
X100000000Y-97000000D02*
G75*
G03*
X103000000Y-100000000I3000000J0D01*
G01*
X103000000Y-100000000D02*
X162000000Y-100000000D01*
X104500000Y-80500000D02*
X100499127Y-80500001D01*
X146000000Y-81000000D02*
G75*
G03*
X144000000Y-81000000I-1000000J0D01*
G01*
X100499127Y-80500001D02*
G75*
G03*
X100000000Y-81000000I873J-499999D01*
G01*
X162000000Y-100000000D02*
G75*
G03*
X165000000Y-97000000I0J3000000D01*
G01*
X105000000Y-64000000D02*
X105000000Y-80000000D01*
X103000000Y-44000000D02*
G75*
G03*
X100000000Y-47000000I0J-3000000D01*
G01*
X144000000Y-96000000D02*
G75*
G03*
X146000000Y-96000000I1000000J0D01*
G01*
X100000000Y-81000000D02*
X100000000Y-97000000D01*
D11*
X136500000Y-72114000D02*
G75*
G03*
X136500000Y-72114000I-12000000J0D01*
G01*
D10*
X100500000Y-63500000D02*
X104500000Y-63500000D01*
X104500000Y-80500000D02*
G75*
G03*
X105000000Y-80000000I0J500000D01*
G01*
X105000000Y-64000000D02*
G75*
G03*
X104500000Y-63500000I-500000J0D01*
G01*
X162000000Y-44000000D02*
X103000000Y-44000000D01*
D11*
X115850000Y-62114000D02*
G75*
G03*
X115850000Y-62114000I-1350000J0D01*
G01*
M02*
