G04 #@! TF.GenerationSoftware,KiCad,Pcbnew,(7.0.0-0)*
G04 #@! TF.CreationDate,2023-04-26T13:08:56+01:00*
G04 #@! TF.ProjectId,Klipper Fan Hat,4b6c6970-7065-4722-9046-616e20486174,rev?*
G04 #@! TF.SameCoordinates,Original*
G04 #@! TF.FileFunction,Legend,Bot*
G04 #@! TF.FilePolarity,Positive*
%FSLAX46Y46*%
G04 Gerber Fmt 4.6, Leading zero omitted, Abs format (unit mm)*
G04 Created by KiCad (PCBNEW (7.0.0-0)) date 2023-04-26 13:08:56*
%MOMM*%
%LPD*%
G01*
G04 APERTURE LIST*
%ADD10C,0.120000*%
%ADD11C,0.150000*%
G04 APERTURE END LIST*
D10*
X112000000Y-59614000D02*
X137000000Y-59614000D01*
X137000000Y-59614000D02*
X137000000Y-84614000D01*
X137000000Y-84614000D02*
X112000000Y-84614000D01*
X112000000Y-84614000D02*
X112000000Y-59614000D01*
D11*
X109527380Y-74346095D02*
X109527380Y-74917523D01*
X110527380Y-74631809D02*
X109527380Y-74631809D01*
X109527380Y-75155619D02*
X110527380Y-75822285D01*
X109527380Y-75822285D02*
X110527380Y-75155619D01*
X110527380Y-77481333D02*
X110051190Y-77148000D01*
X110527380Y-76909905D02*
X109527380Y-76909905D01*
X109527380Y-76909905D02*
X109527380Y-77290857D01*
X109527380Y-77290857D02*
X109575000Y-77386095D01*
X109575000Y-77386095D02*
X109622619Y-77433714D01*
X109622619Y-77433714D02*
X109717857Y-77481333D01*
X109717857Y-77481333D02*
X109860714Y-77481333D01*
X109860714Y-77481333D02*
X109955952Y-77433714D01*
X109955952Y-77433714D02*
X110003571Y-77386095D01*
X110003571Y-77386095D02*
X110051190Y-77290857D01*
X110051190Y-77290857D02*
X110051190Y-76909905D01*
X109527380Y-77814667D02*
X110527380Y-78481333D01*
X109527380Y-78481333D02*
X110527380Y-77814667D01*
X109575000Y-71298095D02*
X109527380Y-71202857D01*
X109527380Y-71202857D02*
X109527380Y-71060000D01*
X109527380Y-71060000D02*
X109575000Y-70917143D01*
X109575000Y-70917143D02*
X109670238Y-70821905D01*
X109670238Y-70821905D02*
X109765476Y-70774286D01*
X109765476Y-70774286D02*
X109955952Y-70726667D01*
X109955952Y-70726667D02*
X110098809Y-70726667D01*
X110098809Y-70726667D02*
X110289285Y-70774286D01*
X110289285Y-70774286D02*
X110384523Y-70821905D01*
X110384523Y-70821905D02*
X110479761Y-70917143D01*
X110479761Y-70917143D02*
X110527380Y-71060000D01*
X110527380Y-71060000D02*
X110527380Y-71155238D01*
X110527380Y-71155238D02*
X110479761Y-71298095D01*
X110479761Y-71298095D02*
X110432142Y-71345714D01*
X110432142Y-71345714D02*
X110098809Y-71345714D01*
X110098809Y-71345714D02*
X110098809Y-71155238D01*
X110527380Y-71774286D02*
X109527380Y-71774286D01*
X109527380Y-71774286D02*
X110527380Y-72345714D01*
X110527380Y-72345714D02*
X109527380Y-72345714D01*
X110527380Y-72821905D02*
X109527380Y-72821905D01*
X109527380Y-72821905D02*
X109527380Y-73060000D01*
X109527380Y-73060000D02*
X109575000Y-73202857D01*
X109575000Y-73202857D02*
X109670238Y-73298095D01*
X109670238Y-73298095D02*
X109765476Y-73345714D01*
X109765476Y-73345714D02*
X109955952Y-73393333D01*
X109955952Y-73393333D02*
X110098809Y-73393333D01*
X110098809Y-73393333D02*
X110289285Y-73345714D01*
X110289285Y-73345714D02*
X110384523Y-73298095D01*
X110384523Y-73298095D02*
X110479761Y-73202857D01*
X110479761Y-73202857D02*
X110527380Y-73060000D01*
X110527380Y-73060000D02*
X110527380Y-72821905D01*
X109450380Y-68710285D02*
X109450380Y-68234095D01*
X109450380Y-68234095D02*
X109926571Y-68186476D01*
X109926571Y-68186476D02*
X109878952Y-68234095D01*
X109878952Y-68234095D02*
X109831333Y-68329333D01*
X109831333Y-68329333D02*
X109831333Y-68567428D01*
X109831333Y-68567428D02*
X109878952Y-68662666D01*
X109878952Y-68662666D02*
X109926571Y-68710285D01*
X109926571Y-68710285D02*
X110021809Y-68757904D01*
X110021809Y-68757904D02*
X110259904Y-68757904D01*
X110259904Y-68757904D02*
X110355142Y-68710285D01*
X110355142Y-68710285D02*
X110402761Y-68662666D01*
X110402761Y-68662666D02*
X110450380Y-68567428D01*
X110450380Y-68567428D02*
X110450380Y-68329333D01*
X110450380Y-68329333D02*
X110402761Y-68234095D01*
X110402761Y-68234095D02*
X110355142Y-68186476D01*
X109450380Y-69043619D02*
X110450380Y-69376952D01*
X110450380Y-69376952D02*
X109450380Y-69710285D01*
X109450380Y-66170285D02*
X109450380Y-65694095D01*
X109450380Y-65694095D02*
X109926571Y-65646476D01*
X109926571Y-65646476D02*
X109878952Y-65694095D01*
X109878952Y-65694095D02*
X109831333Y-65789333D01*
X109831333Y-65789333D02*
X109831333Y-66027428D01*
X109831333Y-66027428D02*
X109878952Y-66122666D01*
X109878952Y-66122666D02*
X109926571Y-66170285D01*
X109926571Y-66170285D02*
X110021809Y-66217904D01*
X110021809Y-66217904D02*
X110259904Y-66217904D01*
X110259904Y-66217904D02*
X110355142Y-66170285D01*
X110355142Y-66170285D02*
X110402761Y-66122666D01*
X110402761Y-66122666D02*
X110450380Y-66027428D01*
X110450380Y-66027428D02*
X110450380Y-65789333D01*
X110450380Y-65789333D02*
X110402761Y-65694095D01*
X110402761Y-65694095D02*
X110355142Y-65646476D01*
X109450380Y-66503619D02*
X110450380Y-66836952D01*
X110450380Y-66836952D02*
X109450380Y-67170285D01*
X108703333Y-50637380D02*
X108703333Y-51351666D01*
X108703333Y-51351666D02*
X108750952Y-51494523D01*
X108750952Y-51494523D02*
X108846190Y-51589761D01*
X108846190Y-51589761D02*
X108989047Y-51637380D01*
X108989047Y-51637380D02*
X109084285Y-51637380D01*
X108084285Y-51065952D02*
X108179523Y-51018333D01*
X108179523Y-51018333D02*
X108227142Y-50970714D01*
X108227142Y-50970714D02*
X108274761Y-50875476D01*
X108274761Y-50875476D02*
X108274761Y-50827857D01*
X108274761Y-50827857D02*
X108227142Y-50732619D01*
X108227142Y-50732619D02*
X108179523Y-50685000D01*
X108179523Y-50685000D02*
X108084285Y-50637380D01*
X108084285Y-50637380D02*
X107893809Y-50637380D01*
X107893809Y-50637380D02*
X107798571Y-50685000D01*
X107798571Y-50685000D02*
X107750952Y-50732619D01*
X107750952Y-50732619D02*
X107703333Y-50827857D01*
X107703333Y-50827857D02*
X107703333Y-50875476D01*
X107703333Y-50875476D02*
X107750952Y-50970714D01*
X107750952Y-50970714D02*
X107798571Y-51018333D01*
X107798571Y-51018333D02*
X107893809Y-51065952D01*
X107893809Y-51065952D02*
X108084285Y-51065952D01*
X108084285Y-51065952D02*
X108179523Y-51113571D01*
X108179523Y-51113571D02*
X108227142Y-51161190D01*
X108227142Y-51161190D02*
X108274761Y-51256428D01*
X108274761Y-51256428D02*
X108274761Y-51446904D01*
X108274761Y-51446904D02*
X108227142Y-51542142D01*
X108227142Y-51542142D02*
X108179523Y-51589761D01*
X108179523Y-51589761D02*
X108084285Y-51637380D01*
X108084285Y-51637380D02*
X107893809Y-51637380D01*
X107893809Y-51637380D02*
X107798571Y-51589761D01*
X107798571Y-51589761D02*
X107750952Y-51542142D01*
X107750952Y-51542142D02*
X107703333Y-51446904D01*
X107703333Y-51446904D02*
X107703333Y-51256428D01*
X107703333Y-51256428D02*
X107750952Y-51161190D01*
X107750952Y-51161190D02*
X107798571Y-51113571D01*
X107798571Y-51113571D02*
X107893809Y-51065952D01*
X105452619Y-90506761D02*
X105405000Y-90411523D01*
X105405000Y-90411523D02*
X105309761Y-90316285D01*
X105309761Y-90316285D02*
X105166904Y-90173428D01*
X105166904Y-90173428D02*
X105119285Y-90078190D01*
X105119285Y-90078190D02*
X105119285Y-89982952D01*
X105357380Y-90030571D02*
X105309761Y-89935333D01*
X105309761Y-89935333D02*
X105214523Y-89840095D01*
X105214523Y-89840095D02*
X105024047Y-89792476D01*
X105024047Y-89792476D02*
X104690714Y-89792476D01*
X104690714Y-89792476D02*
X104500238Y-89840095D01*
X104500238Y-89840095D02*
X104405000Y-89935333D01*
X104405000Y-89935333D02*
X104357380Y-90030571D01*
X104357380Y-90030571D02*
X104357380Y-90221047D01*
X104357380Y-90221047D02*
X104405000Y-90316285D01*
X104405000Y-90316285D02*
X104500238Y-90411523D01*
X104500238Y-90411523D02*
X104690714Y-90459142D01*
X104690714Y-90459142D02*
X105024047Y-90459142D01*
X105024047Y-90459142D02*
X105214523Y-90411523D01*
X105214523Y-90411523D02*
X105309761Y-90316285D01*
X105309761Y-90316285D02*
X105357380Y-90221047D01*
X105357380Y-90221047D02*
X105357380Y-90030571D01*
X105357380Y-91411523D02*
X105357380Y-90840095D01*
X105357380Y-91125809D02*
X104357380Y-91125809D01*
X104357380Y-91125809D02*
X104500238Y-91030571D01*
X104500238Y-91030571D02*
X104595476Y-90935333D01*
X104595476Y-90935333D02*
X104643095Y-90840095D01*
X141060666Y-53927380D02*
X141393999Y-53451190D01*
X141632094Y-53927380D02*
X141632094Y-52927380D01*
X141632094Y-52927380D02*
X141251142Y-52927380D01*
X141251142Y-52927380D02*
X141155904Y-52975000D01*
X141155904Y-52975000D02*
X141108285Y-53022619D01*
X141108285Y-53022619D02*
X141060666Y-53117857D01*
X141060666Y-53117857D02*
X141060666Y-53260714D01*
X141060666Y-53260714D02*
X141108285Y-53355952D01*
X141108285Y-53355952D02*
X141155904Y-53403571D01*
X141155904Y-53403571D02*
X141251142Y-53451190D01*
X141251142Y-53451190D02*
X141632094Y-53451190D01*
X140108285Y-53927380D02*
X140679713Y-53927380D01*
X140393999Y-53927380D02*
X140393999Y-52927380D01*
X140393999Y-52927380D02*
X140489237Y-53070238D01*
X140489237Y-53070238D02*
X140584475Y-53165476D01*
X140584475Y-53165476D02*
X140679713Y-53213095D01*
X113321380Y-89736905D02*
X112321380Y-89736905D01*
X112321380Y-89736905D02*
X112321380Y-89975000D01*
X112321380Y-89975000D02*
X112369000Y-90117857D01*
X112369000Y-90117857D02*
X112464238Y-90213095D01*
X112464238Y-90213095D02*
X112559476Y-90260714D01*
X112559476Y-90260714D02*
X112749952Y-90308333D01*
X112749952Y-90308333D02*
X112892809Y-90308333D01*
X112892809Y-90308333D02*
X113083285Y-90260714D01*
X113083285Y-90260714D02*
X113178523Y-90213095D01*
X113178523Y-90213095D02*
X113273761Y-90117857D01*
X113273761Y-90117857D02*
X113321380Y-89975000D01*
X113321380Y-89975000D02*
X113321380Y-89736905D01*
X113321380Y-91260714D02*
X113321380Y-90689286D01*
X113321380Y-90975000D02*
X112321380Y-90975000D01*
X112321380Y-90975000D02*
X112464238Y-90879762D01*
X112464238Y-90879762D02*
X112559476Y-90784524D01*
X112559476Y-90784524D02*
X112607095Y-90689286D01*
X105849857Y-83095380D02*
X106183190Y-82619190D01*
X106421285Y-83095380D02*
X106421285Y-82095380D01*
X106421285Y-82095380D02*
X106040333Y-82095380D01*
X106040333Y-82095380D02*
X105945095Y-82143000D01*
X105945095Y-82143000D02*
X105897476Y-82190619D01*
X105897476Y-82190619D02*
X105849857Y-82285857D01*
X105849857Y-82285857D02*
X105849857Y-82428714D01*
X105849857Y-82428714D02*
X105897476Y-82523952D01*
X105897476Y-82523952D02*
X105945095Y-82571571D01*
X105945095Y-82571571D02*
X106040333Y-82619190D01*
X106040333Y-82619190D02*
X106421285Y-82619190D01*
X105468904Y-82190619D02*
X105421285Y-82143000D01*
X105421285Y-82143000D02*
X105326047Y-82095380D01*
X105326047Y-82095380D02*
X105087952Y-82095380D01*
X105087952Y-82095380D02*
X104992714Y-82143000D01*
X104992714Y-82143000D02*
X104945095Y-82190619D01*
X104945095Y-82190619D02*
X104897476Y-82285857D01*
X104897476Y-82285857D02*
X104897476Y-82381095D01*
X104897476Y-82381095D02*
X104945095Y-82523952D01*
X104945095Y-82523952D02*
X105516523Y-83095380D01*
X105516523Y-83095380D02*
X104897476Y-83095380D01*
X104516523Y-82190619D02*
X104468904Y-82143000D01*
X104468904Y-82143000D02*
X104373666Y-82095380D01*
X104373666Y-82095380D02*
X104135571Y-82095380D01*
X104135571Y-82095380D02*
X104040333Y-82143000D01*
X104040333Y-82143000D02*
X103992714Y-82190619D01*
X103992714Y-82190619D02*
X103945095Y-82285857D01*
X103945095Y-82285857D02*
X103945095Y-82381095D01*
X103945095Y-82381095D02*
X103992714Y-82523952D01*
X103992714Y-82523952D02*
X104564142Y-83095380D01*
X104564142Y-83095380D02*
X103945095Y-83095380D01*
X142404380Y-89736905D02*
X141404380Y-89736905D01*
X141404380Y-89736905D02*
X141404380Y-89975000D01*
X141404380Y-89975000D02*
X141452000Y-90117857D01*
X141452000Y-90117857D02*
X141547238Y-90213095D01*
X141547238Y-90213095D02*
X141642476Y-90260714D01*
X141642476Y-90260714D02*
X141832952Y-90308333D01*
X141832952Y-90308333D02*
X141975809Y-90308333D01*
X141975809Y-90308333D02*
X142166285Y-90260714D01*
X142166285Y-90260714D02*
X142261523Y-90213095D01*
X142261523Y-90213095D02*
X142356761Y-90117857D01*
X142356761Y-90117857D02*
X142404380Y-89975000D01*
X142404380Y-89975000D02*
X142404380Y-89736905D01*
X141737714Y-91165476D02*
X142404380Y-91165476D01*
X141356761Y-90927381D02*
X142071047Y-90689286D01*
X142071047Y-90689286D02*
X142071047Y-91308333D01*
X118443380Y-89832142D02*
X117967190Y-89498809D01*
X118443380Y-89260714D02*
X117443380Y-89260714D01*
X117443380Y-89260714D02*
X117443380Y-89641666D01*
X117443380Y-89641666D02*
X117491000Y-89736904D01*
X117491000Y-89736904D02*
X117538619Y-89784523D01*
X117538619Y-89784523D02*
X117633857Y-89832142D01*
X117633857Y-89832142D02*
X117776714Y-89832142D01*
X117776714Y-89832142D02*
X117871952Y-89784523D01*
X117871952Y-89784523D02*
X117919571Y-89736904D01*
X117919571Y-89736904D02*
X117967190Y-89641666D01*
X117967190Y-89641666D02*
X117967190Y-89260714D01*
X118443380Y-90784523D02*
X118443380Y-90213095D01*
X118443380Y-90498809D02*
X117443380Y-90498809D01*
X117443380Y-90498809D02*
X117586238Y-90403571D01*
X117586238Y-90403571D02*
X117681476Y-90308333D01*
X117681476Y-90308333D02*
X117729095Y-90213095D01*
X117871952Y-91355952D02*
X117824333Y-91260714D01*
X117824333Y-91260714D02*
X117776714Y-91213095D01*
X117776714Y-91213095D02*
X117681476Y-91165476D01*
X117681476Y-91165476D02*
X117633857Y-91165476D01*
X117633857Y-91165476D02*
X117538619Y-91213095D01*
X117538619Y-91213095D02*
X117491000Y-91260714D01*
X117491000Y-91260714D02*
X117443380Y-91355952D01*
X117443380Y-91355952D02*
X117443380Y-91546428D01*
X117443380Y-91546428D02*
X117491000Y-91641666D01*
X117491000Y-91641666D02*
X117538619Y-91689285D01*
X117538619Y-91689285D02*
X117633857Y-91736904D01*
X117633857Y-91736904D02*
X117681476Y-91736904D01*
X117681476Y-91736904D02*
X117776714Y-91689285D01*
X117776714Y-91689285D02*
X117824333Y-91641666D01*
X117824333Y-91641666D02*
X117871952Y-91546428D01*
X117871952Y-91546428D02*
X117871952Y-91355952D01*
X117871952Y-91355952D02*
X117919571Y-91260714D01*
X117919571Y-91260714D02*
X117967190Y-91213095D01*
X117967190Y-91213095D02*
X118062428Y-91165476D01*
X118062428Y-91165476D02*
X118252904Y-91165476D01*
X118252904Y-91165476D02*
X118348142Y-91213095D01*
X118348142Y-91213095D02*
X118395761Y-91260714D01*
X118395761Y-91260714D02*
X118443380Y-91355952D01*
X118443380Y-91355952D02*
X118443380Y-91546428D01*
X118443380Y-91546428D02*
X118395761Y-91641666D01*
X118395761Y-91641666D02*
X118348142Y-91689285D01*
X118348142Y-91689285D02*
X118252904Y-91736904D01*
X118252904Y-91736904D02*
X118062428Y-91736904D01*
X118062428Y-91736904D02*
X117967190Y-91689285D01*
X117967190Y-91689285D02*
X117919571Y-91641666D01*
X117919571Y-91641666D02*
X117871952Y-91546428D01*
X108791380Y-89832142D02*
X108315190Y-89498809D01*
X108791380Y-89260714D02*
X107791380Y-89260714D01*
X107791380Y-89260714D02*
X107791380Y-89641666D01*
X107791380Y-89641666D02*
X107839000Y-89736904D01*
X107839000Y-89736904D02*
X107886619Y-89784523D01*
X107886619Y-89784523D02*
X107981857Y-89832142D01*
X107981857Y-89832142D02*
X108124714Y-89832142D01*
X108124714Y-89832142D02*
X108219952Y-89784523D01*
X108219952Y-89784523D02*
X108267571Y-89736904D01*
X108267571Y-89736904D02*
X108315190Y-89641666D01*
X108315190Y-89641666D02*
X108315190Y-89260714D01*
X108791380Y-90784523D02*
X108791380Y-90213095D01*
X108791380Y-90498809D02*
X107791380Y-90498809D01*
X107791380Y-90498809D02*
X107934238Y-90403571D01*
X107934238Y-90403571D02*
X108029476Y-90308333D01*
X108029476Y-90308333D02*
X108077095Y-90213095D01*
X107791380Y-91117857D02*
X107791380Y-91784523D01*
X107791380Y-91784523D02*
X108791380Y-91355952D01*
X125820666Y-53927380D02*
X126153999Y-53451190D01*
X126392094Y-53927380D02*
X126392094Y-52927380D01*
X126392094Y-52927380D02*
X126011142Y-52927380D01*
X126011142Y-52927380D02*
X125915904Y-52975000D01*
X125915904Y-52975000D02*
X125868285Y-53022619D01*
X125868285Y-53022619D02*
X125820666Y-53117857D01*
X125820666Y-53117857D02*
X125820666Y-53260714D01*
X125820666Y-53260714D02*
X125868285Y-53355952D01*
X125868285Y-53355952D02*
X125915904Y-53403571D01*
X125915904Y-53403571D02*
X126011142Y-53451190D01*
X126011142Y-53451190D02*
X126392094Y-53451190D01*
X124963523Y-53260714D02*
X124963523Y-53927380D01*
X125201618Y-52879761D02*
X125439713Y-53594047D01*
X125439713Y-53594047D02*
X124820666Y-53594047D01*
X123100380Y-89736905D02*
X122100380Y-89736905D01*
X122100380Y-89736905D02*
X122100380Y-89975000D01*
X122100380Y-89975000D02*
X122148000Y-90117857D01*
X122148000Y-90117857D02*
X122243238Y-90213095D01*
X122243238Y-90213095D02*
X122338476Y-90260714D01*
X122338476Y-90260714D02*
X122528952Y-90308333D01*
X122528952Y-90308333D02*
X122671809Y-90308333D01*
X122671809Y-90308333D02*
X122862285Y-90260714D01*
X122862285Y-90260714D02*
X122957523Y-90213095D01*
X122957523Y-90213095D02*
X123052761Y-90117857D01*
X123052761Y-90117857D02*
X123100380Y-89975000D01*
X123100380Y-89975000D02*
X123100380Y-89736905D01*
X122195619Y-90689286D02*
X122148000Y-90736905D01*
X122148000Y-90736905D02*
X122100380Y-90832143D01*
X122100380Y-90832143D02*
X122100380Y-91070238D01*
X122100380Y-91070238D02*
X122148000Y-91165476D01*
X122148000Y-91165476D02*
X122195619Y-91213095D01*
X122195619Y-91213095D02*
X122290857Y-91260714D01*
X122290857Y-91260714D02*
X122386095Y-91260714D01*
X122386095Y-91260714D02*
X122528952Y-91213095D01*
X122528952Y-91213095D02*
X123100380Y-90641667D01*
X123100380Y-90641667D02*
X123100380Y-91260714D01*
X127296619Y-95292761D02*
X127249000Y-95197523D01*
X127249000Y-95197523D02*
X127153761Y-95102285D01*
X127153761Y-95102285D02*
X127010904Y-94959428D01*
X127010904Y-94959428D02*
X126963285Y-94864190D01*
X126963285Y-94864190D02*
X126963285Y-94768952D01*
X127201380Y-94816571D02*
X127153761Y-94721333D01*
X127153761Y-94721333D02*
X127058523Y-94626095D01*
X127058523Y-94626095D02*
X126868047Y-94578476D01*
X126868047Y-94578476D02*
X126534714Y-94578476D01*
X126534714Y-94578476D02*
X126344238Y-94626095D01*
X126344238Y-94626095D02*
X126249000Y-94721333D01*
X126249000Y-94721333D02*
X126201380Y-94816571D01*
X126201380Y-94816571D02*
X126201380Y-95007047D01*
X126201380Y-95007047D02*
X126249000Y-95102285D01*
X126249000Y-95102285D02*
X126344238Y-95197523D01*
X126344238Y-95197523D02*
X126534714Y-95245142D01*
X126534714Y-95245142D02*
X126868047Y-95245142D01*
X126868047Y-95245142D02*
X127058523Y-95197523D01*
X127058523Y-95197523D02*
X127153761Y-95102285D01*
X127153761Y-95102285D02*
X127201380Y-95007047D01*
X127201380Y-95007047D02*
X127201380Y-94816571D01*
X126201380Y-95578476D02*
X126201380Y-96197523D01*
X126201380Y-96197523D02*
X126582333Y-95864190D01*
X126582333Y-95864190D02*
X126582333Y-96007047D01*
X126582333Y-96007047D02*
X126629952Y-96102285D01*
X126629952Y-96102285D02*
X126677571Y-96149904D01*
X126677571Y-96149904D02*
X126772809Y-96197523D01*
X126772809Y-96197523D02*
X127010904Y-96197523D01*
X127010904Y-96197523D02*
X127106142Y-96149904D01*
X127106142Y-96149904D02*
X127153761Y-96102285D01*
X127153761Y-96102285D02*
X127201380Y-96007047D01*
X127201380Y-96007047D02*
X127201380Y-95721333D01*
X127201380Y-95721333D02*
X127153761Y-95626095D01*
X127153761Y-95626095D02*
X127106142Y-95578476D01*
X145854857Y-71453380D02*
X146188190Y-70977190D01*
X146426285Y-71453380D02*
X146426285Y-70453380D01*
X146426285Y-70453380D02*
X146045333Y-70453380D01*
X146045333Y-70453380D02*
X145950095Y-70501000D01*
X145950095Y-70501000D02*
X145902476Y-70548619D01*
X145902476Y-70548619D02*
X145854857Y-70643857D01*
X145854857Y-70643857D02*
X145854857Y-70786714D01*
X145854857Y-70786714D02*
X145902476Y-70881952D01*
X145902476Y-70881952D02*
X145950095Y-70929571D01*
X145950095Y-70929571D02*
X146045333Y-70977190D01*
X146045333Y-70977190D02*
X146426285Y-70977190D01*
X144902476Y-71453380D02*
X145473904Y-71453380D01*
X145188190Y-71453380D02*
X145188190Y-70453380D01*
X145188190Y-70453380D02*
X145283428Y-70596238D01*
X145283428Y-70596238D02*
X145378666Y-70691476D01*
X145378666Y-70691476D02*
X145473904Y-70739095D01*
X144045333Y-70453380D02*
X144235809Y-70453380D01*
X144235809Y-70453380D02*
X144331047Y-70501000D01*
X144331047Y-70501000D02*
X144378666Y-70548619D01*
X144378666Y-70548619D02*
X144473904Y-70691476D01*
X144473904Y-70691476D02*
X144521523Y-70881952D01*
X144521523Y-70881952D02*
X144521523Y-71262904D01*
X144521523Y-71262904D02*
X144473904Y-71358142D01*
X144473904Y-71358142D02*
X144426285Y-71405761D01*
X144426285Y-71405761D02*
X144331047Y-71453380D01*
X144331047Y-71453380D02*
X144140571Y-71453380D01*
X144140571Y-71453380D02*
X144045333Y-71405761D01*
X144045333Y-71405761D02*
X143997714Y-71358142D01*
X143997714Y-71358142D02*
X143950095Y-71262904D01*
X143950095Y-71262904D02*
X143950095Y-71024809D01*
X143950095Y-71024809D02*
X143997714Y-70929571D01*
X143997714Y-70929571D02*
X144045333Y-70881952D01*
X144045333Y-70881952D02*
X144140571Y-70834333D01*
X144140571Y-70834333D02*
X144331047Y-70834333D01*
X144331047Y-70834333D02*
X144426285Y-70881952D01*
X144426285Y-70881952D02*
X144473904Y-70929571D01*
X144473904Y-70929571D02*
X144521523Y-71024809D01*
X105754666Y-55894142D02*
X105802285Y-55941761D01*
X105802285Y-55941761D02*
X105945142Y-55989380D01*
X105945142Y-55989380D02*
X106040380Y-55989380D01*
X106040380Y-55989380D02*
X106183237Y-55941761D01*
X106183237Y-55941761D02*
X106278475Y-55846523D01*
X106278475Y-55846523D02*
X106326094Y-55751285D01*
X106326094Y-55751285D02*
X106373713Y-55560809D01*
X106373713Y-55560809D02*
X106373713Y-55417952D01*
X106373713Y-55417952D02*
X106326094Y-55227476D01*
X106326094Y-55227476D02*
X106278475Y-55132238D01*
X106278475Y-55132238D02*
X106183237Y-55037000D01*
X106183237Y-55037000D02*
X106040380Y-54989380D01*
X106040380Y-54989380D02*
X105945142Y-54989380D01*
X105945142Y-54989380D02*
X105802285Y-55037000D01*
X105802285Y-55037000D02*
X105754666Y-55084619D01*
X104802285Y-55989380D02*
X105373713Y-55989380D01*
X105087999Y-55989380D02*
X105087999Y-54989380D01*
X105087999Y-54989380D02*
X105183237Y-55132238D01*
X105183237Y-55132238D02*
X105278475Y-55227476D01*
X105278475Y-55227476D02*
X105373713Y-55275095D01*
X141505094Y-63791380D02*
X141505094Y-62791380D01*
X141505094Y-62791380D02*
X141266999Y-62791380D01*
X141266999Y-62791380D02*
X141124142Y-62839000D01*
X141124142Y-62839000D02*
X141028904Y-62934238D01*
X141028904Y-62934238D02*
X140981285Y-63029476D01*
X140981285Y-63029476D02*
X140933666Y-63219952D01*
X140933666Y-63219952D02*
X140933666Y-63362809D01*
X140933666Y-63362809D02*
X140981285Y-63553285D01*
X140981285Y-63553285D02*
X141028904Y-63648523D01*
X141028904Y-63648523D02*
X141124142Y-63743761D01*
X141124142Y-63743761D02*
X141266999Y-63791380D01*
X141266999Y-63791380D02*
X141505094Y-63791380D01*
X140076523Y-62791380D02*
X140266999Y-62791380D01*
X140266999Y-62791380D02*
X140362237Y-62839000D01*
X140362237Y-62839000D02*
X140409856Y-62886619D01*
X140409856Y-62886619D02*
X140505094Y-63029476D01*
X140505094Y-63029476D02*
X140552713Y-63219952D01*
X140552713Y-63219952D02*
X140552713Y-63600904D01*
X140552713Y-63600904D02*
X140505094Y-63696142D01*
X140505094Y-63696142D02*
X140457475Y-63743761D01*
X140457475Y-63743761D02*
X140362237Y-63791380D01*
X140362237Y-63791380D02*
X140171761Y-63791380D01*
X140171761Y-63791380D02*
X140076523Y-63743761D01*
X140076523Y-63743761D02*
X140028904Y-63696142D01*
X140028904Y-63696142D02*
X139981285Y-63600904D01*
X139981285Y-63600904D02*
X139981285Y-63362809D01*
X139981285Y-63362809D02*
X140028904Y-63267571D01*
X140028904Y-63267571D02*
X140076523Y-63219952D01*
X140076523Y-63219952D02*
X140171761Y-63172333D01*
X140171761Y-63172333D02*
X140362237Y-63172333D01*
X140362237Y-63172333D02*
X140457475Y-63219952D01*
X140457475Y-63219952D02*
X140505094Y-63267571D01*
X140505094Y-63267571D02*
X140552713Y-63362809D01*
X147870619Y-77552761D02*
X147823000Y-77457523D01*
X147823000Y-77457523D02*
X147727761Y-77362285D01*
X147727761Y-77362285D02*
X147584904Y-77219428D01*
X147584904Y-77219428D02*
X147537285Y-77124190D01*
X147537285Y-77124190D02*
X147537285Y-77028952D01*
X147775380Y-77076571D02*
X147727761Y-76981333D01*
X147727761Y-76981333D02*
X147632523Y-76886095D01*
X147632523Y-76886095D02*
X147442047Y-76838476D01*
X147442047Y-76838476D02*
X147108714Y-76838476D01*
X147108714Y-76838476D02*
X146918238Y-76886095D01*
X146918238Y-76886095D02*
X146823000Y-76981333D01*
X146823000Y-76981333D02*
X146775380Y-77076571D01*
X146775380Y-77076571D02*
X146775380Y-77267047D01*
X146775380Y-77267047D02*
X146823000Y-77362285D01*
X146823000Y-77362285D02*
X146918238Y-77457523D01*
X146918238Y-77457523D02*
X147108714Y-77505142D01*
X147108714Y-77505142D02*
X147442047Y-77505142D01*
X147442047Y-77505142D02*
X147632523Y-77457523D01*
X147632523Y-77457523D02*
X147727761Y-77362285D01*
X147727761Y-77362285D02*
X147775380Y-77267047D01*
X147775380Y-77267047D02*
X147775380Y-77076571D01*
X146775380Y-78409904D02*
X146775380Y-77933714D01*
X146775380Y-77933714D02*
X147251571Y-77886095D01*
X147251571Y-77886095D02*
X147203952Y-77933714D01*
X147203952Y-77933714D02*
X147156333Y-78028952D01*
X147156333Y-78028952D02*
X147156333Y-78267047D01*
X147156333Y-78267047D02*
X147203952Y-78362285D01*
X147203952Y-78362285D02*
X147251571Y-78409904D01*
X147251571Y-78409904D02*
X147346809Y-78457523D01*
X147346809Y-78457523D02*
X147584904Y-78457523D01*
X147584904Y-78457523D02*
X147680142Y-78409904D01*
X147680142Y-78409904D02*
X147727761Y-78362285D01*
X147727761Y-78362285D02*
X147775380Y-78267047D01*
X147775380Y-78267047D02*
X147775380Y-78028952D01*
X147775380Y-78028952D02*
X147727761Y-77933714D01*
X147727761Y-77933714D02*
X147680142Y-77886095D01*
X137747380Y-89832142D02*
X137271190Y-89498809D01*
X137747380Y-89260714D02*
X136747380Y-89260714D01*
X136747380Y-89260714D02*
X136747380Y-89641666D01*
X136747380Y-89641666D02*
X136795000Y-89736904D01*
X136795000Y-89736904D02*
X136842619Y-89784523D01*
X136842619Y-89784523D02*
X136937857Y-89832142D01*
X136937857Y-89832142D02*
X137080714Y-89832142D01*
X137080714Y-89832142D02*
X137175952Y-89784523D01*
X137175952Y-89784523D02*
X137223571Y-89736904D01*
X137223571Y-89736904D02*
X137271190Y-89641666D01*
X137271190Y-89641666D02*
X137271190Y-89260714D01*
X136842619Y-90213095D02*
X136795000Y-90260714D01*
X136795000Y-90260714D02*
X136747380Y-90355952D01*
X136747380Y-90355952D02*
X136747380Y-90594047D01*
X136747380Y-90594047D02*
X136795000Y-90689285D01*
X136795000Y-90689285D02*
X136842619Y-90736904D01*
X136842619Y-90736904D02*
X136937857Y-90784523D01*
X136937857Y-90784523D02*
X137033095Y-90784523D01*
X137033095Y-90784523D02*
X137175952Y-90736904D01*
X137175952Y-90736904D02*
X137747380Y-90165476D01*
X137747380Y-90165476D02*
X137747380Y-90784523D01*
X136747380Y-91403571D02*
X136747380Y-91498809D01*
X136747380Y-91498809D02*
X136795000Y-91594047D01*
X136795000Y-91594047D02*
X136842619Y-91641666D01*
X136842619Y-91641666D02*
X136937857Y-91689285D01*
X136937857Y-91689285D02*
X137128333Y-91736904D01*
X137128333Y-91736904D02*
X137366428Y-91736904D01*
X137366428Y-91736904D02*
X137556904Y-91689285D01*
X137556904Y-91689285D02*
X137652142Y-91641666D01*
X137652142Y-91641666D02*
X137699761Y-91594047D01*
X137699761Y-91594047D02*
X137747380Y-91498809D01*
X137747380Y-91498809D02*
X137747380Y-91403571D01*
X137747380Y-91403571D02*
X137699761Y-91308333D01*
X137699761Y-91308333D02*
X137652142Y-91260714D01*
X137652142Y-91260714D02*
X137556904Y-91213095D01*
X137556904Y-91213095D02*
X137366428Y-91165476D01*
X137366428Y-91165476D02*
X137128333Y-91165476D01*
X137128333Y-91165476D02*
X136937857Y-91213095D01*
X136937857Y-91213095D02*
X136842619Y-91260714D01*
X136842619Y-91260714D02*
X136795000Y-91308333D01*
X136795000Y-91308333D02*
X136747380Y-91403571D01*
X136948619Y-95332761D02*
X136901000Y-95237523D01*
X136901000Y-95237523D02*
X136805761Y-95142285D01*
X136805761Y-95142285D02*
X136662904Y-94999428D01*
X136662904Y-94999428D02*
X136615285Y-94904190D01*
X136615285Y-94904190D02*
X136615285Y-94808952D01*
X136853380Y-94856571D02*
X136805761Y-94761333D01*
X136805761Y-94761333D02*
X136710523Y-94666095D01*
X136710523Y-94666095D02*
X136520047Y-94618476D01*
X136520047Y-94618476D02*
X136186714Y-94618476D01*
X136186714Y-94618476D02*
X135996238Y-94666095D01*
X135996238Y-94666095D02*
X135901000Y-94761333D01*
X135901000Y-94761333D02*
X135853380Y-94856571D01*
X135853380Y-94856571D02*
X135853380Y-95047047D01*
X135853380Y-95047047D02*
X135901000Y-95142285D01*
X135901000Y-95142285D02*
X135996238Y-95237523D01*
X135996238Y-95237523D02*
X136186714Y-95285142D01*
X136186714Y-95285142D02*
X136520047Y-95285142D01*
X136520047Y-95285142D02*
X136710523Y-95237523D01*
X136710523Y-95237523D02*
X136805761Y-95142285D01*
X136805761Y-95142285D02*
X136853380Y-95047047D01*
X136853380Y-95047047D02*
X136853380Y-94856571D01*
X136186714Y-96142285D02*
X136853380Y-96142285D01*
X135805761Y-95904190D02*
X136520047Y-95666095D01*
X136520047Y-95666095D02*
X136520047Y-96285142D01*
X117578619Y-95332761D02*
X117531000Y-95237523D01*
X117531000Y-95237523D02*
X117435761Y-95142285D01*
X117435761Y-95142285D02*
X117292904Y-94999428D01*
X117292904Y-94999428D02*
X117245285Y-94904190D01*
X117245285Y-94904190D02*
X117245285Y-94808952D01*
X117483380Y-94856571D02*
X117435761Y-94761333D01*
X117435761Y-94761333D02*
X117340523Y-94666095D01*
X117340523Y-94666095D02*
X117150047Y-94618476D01*
X117150047Y-94618476D02*
X116816714Y-94618476D01*
X116816714Y-94618476D02*
X116626238Y-94666095D01*
X116626238Y-94666095D02*
X116531000Y-94761333D01*
X116531000Y-94761333D02*
X116483380Y-94856571D01*
X116483380Y-94856571D02*
X116483380Y-95047047D01*
X116483380Y-95047047D02*
X116531000Y-95142285D01*
X116531000Y-95142285D02*
X116626238Y-95237523D01*
X116626238Y-95237523D02*
X116816714Y-95285142D01*
X116816714Y-95285142D02*
X117150047Y-95285142D01*
X117150047Y-95285142D02*
X117340523Y-95237523D01*
X117340523Y-95237523D02*
X117435761Y-95142285D01*
X117435761Y-95142285D02*
X117483380Y-95047047D01*
X117483380Y-95047047D02*
X117483380Y-94856571D01*
X116578619Y-95666095D02*
X116531000Y-95713714D01*
X116531000Y-95713714D02*
X116483380Y-95808952D01*
X116483380Y-95808952D02*
X116483380Y-96047047D01*
X116483380Y-96047047D02*
X116531000Y-96142285D01*
X116531000Y-96142285D02*
X116578619Y-96189904D01*
X116578619Y-96189904D02*
X116673857Y-96237523D01*
X116673857Y-96237523D02*
X116769095Y-96237523D01*
X116769095Y-96237523D02*
X116911952Y-96189904D01*
X116911952Y-96189904D02*
X117483380Y-95618476D01*
X117483380Y-95618476D02*
X117483380Y-96237523D01*
X128095380Y-89832142D02*
X127619190Y-89498809D01*
X128095380Y-89260714D02*
X127095380Y-89260714D01*
X127095380Y-89260714D02*
X127095380Y-89641666D01*
X127095380Y-89641666D02*
X127143000Y-89736904D01*
X127143000Y-89736904D02*
X127190619Y-89784523D01*
X127190619Y-89784523D02*
X127285857Y-89832142D01*
X127285857Y-89832142D02*
X127428714Y-89832142D01*
X127428714Y-89832142D02*
X127523952Y-89784523D01*
X127523952Y-89784523D02*
X127571571Y-89736904D01*
X127571571Y-89736904D02*
X127619190Y-89641666D01*
X127619190Y-89641666D02*
X127619190Y-89260714D01*
X128095380Y-90784523D02*
X128095380Y-90213095D01*
X128095380Y-90498809D02*
X127095380Y-90498809D01*
X127095380Y-90498809D02*
X127238238Y-90403571D01*
X127238238Y-90403571D02*
X127333476Y-90308333D01*
X127333476Y-90308333D02*
X127381095Y-90213095D01*
X128095380Y-91260714D02*
X128095380Y-91451190D01*
X128095380Y-91451190D02*
X128047761Y-91546428D01*
X128047761Y-91546428D02*
X128000142Y-91594047D01*
X128000142Y-91594047D02*
X127857285Y-91689285D01*
X127857285Y-91689285D02*
X127666809Y-91736904D01*
X127666809Y-91736904D02*
X127285857Y-91736904D01*
X127285857Y-91736904D02*
X127190619Y-91689285D01*
X127190619Y-91689285D02*
X127143000Y-91641666D01*
X127143000Y-91641666D02*
X127095380Y-91546428D01*
X127095380Y-91546428D02*
X127095380Y-91355952D01*
X127095380Y-91355952D02*
X127143000Y-91260714D01*
X127143000Y-91260714D02*
X127190619Y-91213095D01*
X127190619Y-91213095D02*
X127285857Y-91165476D01*
X127285857Y-91165476D02*
X127523952Y-91165476D01*
X127523952Y-91165476D02*
X127619190Y-91213095D01*
X127619190Y-91213095D02*
X127666809Y-91260714D01*
X127666809Y-91260714D02*
X127714428Y-91355952D01*
X127714428Y-91355952D02*
X127714428Y-91546428D01*
X127714428Y-91546428D02*
X127666809Y-91641666D01*
X127666809Y-91641666D02*
X127619190Y-91689285D01*
X127619190Y-91689285D02*
X127523952Y-91736904D01*
X145854857Y-75263380D02*
X146188190Y-74787190D01*
X146426285Y-75263380D02*
X146426285Y-74263380D01*
X146426285Y-74263380D02*
X146045333Y-74263380D01*
X146045333Y-74263380D02*
X145950095Y-74311000D01*
X145950095Y-74311000D02*
X145902476Y-74358619D01*
X145902476Y-74358619D02*
X145854857Y-74453857D01*
X145854857Y-74453857D02*
X145854857Y-74596714D01*
X145854857Y-74596714D02*
X145902476Y-74691952D01*
X145902476Y-74691952D02*
X145950095Y-74739571D01*
X145950095Y-74739571D02*
X146045333Y-74787190D01*
X146045333Y-74787190D02*
X146426285Y-74787190D01*
X144902476Y-75263380D02*
X145473904Y-75263380D01*
X145188190Y-75263380D02*
X145188190Y-74263380D01*
X145188190Y-74263380D02*
X145283428Y-74406238D01*
X145283428Y-74406238D02*
X145378666Y-74501476D01*
X145378666Y-74501476D02*
X145473904Y-74549095D01*
X143997714Y-74263380D02*
X144473904Y-74263380D01*
X144473904Y-74263380D02*
X144521523Y-74739571D01*
X144521523Y-74739571D02*
X144473904Y-74691952D01*
X144473904Y-74691952D02*
X144378666Y-74644333D01*
X144378666Y-74644333D02*
X144140571Y-74644333D01*
X144140571Y-74644333D02*
X144045333Y-74691952D01*
X144045333Y-74691952D02*
X143997714Y-74739571D01*
X143997714Y-74739571D02*
X143950095Y-74834809D01*
X143950095Y-74834809D02*
X143950095Y-75072904D01*
X143950095Y-75072904D02*
X143997714Y-75168142D01*
X143997714Y-75168142D02*
X144045333Y-75215761D01*
X144045333Y-75215761D02*
X144140571Y-75263380D01*
X144140571Y-75263380D02*
X144378666Y-75263380D01*
X144378666Y-75263380D02*
X144473904Y-75215761D01*
X144473904Y-75215761D02*
X144521523Y-75168142D01*
X141505094Y-68109380D02*
X141505094Y-67109380D01*
X141505094Y-67109380D02*
X141266999Y-67109380D01*
X141266999Y-67109380D02*
X141124142Y-67157000D01*
X141124142Y-67157000D02*
X141028904Y-67252238D01*
X141028904Y-67252238D02*
X140981285Y-67347476D01*
X140981285Y-67347476D02*
X140933666Y-67537952D01*
X140933666Y-67537952D02*
X140933666Y-67680809D01*
X140933666Y-67680809D02*
X140981285Y-67871285D01*
X140981285Y-67871285D02*
X141028904Y-67966523D01*
X141028904Y-67966523D02*
X141124142Y-68061761D01*
X141124142Y-68061761D02*
X141266999Y-68109380D01*
X141266999Y-68109380D02*
X141505094Y-68109380D01*
X140028904Y-67109380D02*
X140505094Y-67109380D01*
X140505094Y-67109380D02*
X140552713Y-67585571D01*
X140552713Y-67585571D02*
X140505094Y-67537952D01*
X140505094Y-67537952D02*
X140409856Y-67490333D01*
X140409856Y-67490333D02*
X140171761Y-67490333D01*
X140171761Y-67490333D02*
X140076523Y-67537952D01*
X140076523Y-67537952D02*
X140028904Y-67585571D01*
X140028904Y-67585571D02*
X139981285Y-67680809D01*
X139981285Y-67680809D02*
X139981285Y-67918904D01*
X139981285Y-67918904D02*
X140028904Y-68014142D01*
X140028904Y-68014142D02*
X140076523Y-68061761D01*
X140076523Y-68061761D02*
X140171761Y-68109380D01*
X140171761Y-68109380D02*
X140409856Y-68109380D01*
X140409856Y-68109380D02*
X140505094Y-68061761D01*
X140505094Y-68061761D02*
X140552713Y-68014142D01*
X103024094Y-83095380D02*
X103024094Y-82095380D01*
X103024094Y-82095380D02*
X102785999Y-82095380D01*
X102785999Y-82095380D02*
X102643142Y-82143000D01*
X102643142Y-82143000D02*
X102547904Y-82238238D01*
X102547904Y-82238238D02*
X102500285Y-82333476D01*
X102500285Y-82333476D02*
X102452666Y-82523952D01*
X102452666Y-82523952D02*
X102452666Y-82666809D01*
X102452666Y-82666809D02*
X102500285Y-82857285D01*
X102500285Y-82857285D02*
X102547904Y-82952523D01*
X102547904Y-82952523D02*
X102643142Y-83047761D01*
X102643142Y-83047761D02*
X102785999Y-83095380D01*
X102785999Y-83095380D02*
X103024094Y-83095380D01*
X102119332Y-82095380D02*
X101452666Y-82095380D01*
X101452666Y-82095380D02*
X101881237Y-83095380D01*
X141536857Y-57483380D02*
X141870190Y-57007190D01*
X142108285Y-57483380D02*
X142108285Y-56483380D01*
X142108285Y-56483380D02*
X141727333Y-56483380D01*
X141727333Y-56483380D02*
X141632095Y-56531000D01*
X141632095Y-56531000D02*
X141584476Y-56578619D01*
X141584476Y-56578619D02*
X141536857Y-56673857D01*
X141536857Y-56673857D02*
X141536857Y-56816714D01*
X141536857Y-56816714D02*
X141584476Y-56911952D01*
X141584476Y-56911952D02*
X141632095Y-56959571D01*
X141632095Y-56959571D02*
X141727333Y-57007190D01*
X141727333Y-57007190D02*
X142108285Y-57007190D01*
X141155904Y-56578619D02*
X141108285Y-56531000D01*
X141108285Y-56531000D02*
X141013047Y-56483380D01*
X141013047Y-56483380D02*
X140774952Y-56483380D01*
X140774952Y-56483380D02*
X140679714Y-56531000D01*
X140679714Y-56531000D02*
X140632095Y-56578619D01*
X140632095Y-56578619D02*
X140584476Y-56673857D01*
X140584476Y-56673857D02*
X140584476Y-56769095D01*
X140584476Y-56769095D02*
X140632095Y-56911952D01*
X140632095Y-56911952D02*
X141203523Y-57483380D01*
X141203523Y-57483380D02*
X140584476Y-57483380D01*
X139632095Y-57483380D02*
X140203523Y-57483380D01*
X139917809Y-57483380D02*
X139917809Y-56483380D01*
X139917809Y-56483380D02*
X140013047Y-56626238D01*
X140013047Y-56626238D02*
X140108285Y-56721476D01*
X140108285Y-56721476D02*
X140203523Y-56769095D01*
X130900666Y-53927380D02*
X131233999Y-53451190D01*
X131472094Y-53927380D02*
X131472094Y-52927380D01*
X131472094Y-52927380D02*
X131091142Y-52927380D01*
X131091142Y-52927380D02*
X130995904Y-52975000D01*
X130995904Y-52975000D02*
X130948285Y-53022619D01*
X130948285Y-53022619D02*
X130900666Y-53117857D01*
X130900666Y-53117857D02*
X130900666Y-53260714D01*
X130900666Y-53260714D02*
X130948285Y-53355952D01*
X130948285Y-53355952D02*
X130995904Y-53403571D01*
X130995904Y-53403571D02*
X131091142Y-53451190D01*
X131091142Y-53451190D02*
X131472094Y-53451190D01*
X130567332Y-52927380D02*
X129948285Y-52927380D01*
X129948285Y-52927380D02*
X130281618Y-53308333D01*
X130281618Y-53308333D02*
X130138761Y-53308333D01*
X130138761Y-53308333D02*
X130043523Y-53355952D01*
X130043523Y-53355952D02*
X129995904Y-53403571D01*
X129995904Y-53403571D02*
X129948285Y-53498809D01*
X129948285Y-53498809D02*
X129948285Y-53736904D01*
X129948285Y-53736904D02*
X129995904Y-53832142D01*
X129995904Y-53832142D02*
X130043523Y-53879761D01*
X130043523Y-53879761D02*
X130138761Y-53927380D01*
X130138761Y-53927380D02*
X130424475Y-53927380D01*
X130424475Y-53927380D02*
X130519713Y-53879761D01*
X130519713Y-53879761D02*
X130567332Y-53832142D01*
X135980666Y-53927380D02*
X136313999Y-53451190D01*
X136552094Y-53927380D02*
X136552094Y-52927380D01*
X136552094Y-52927380D02*
X136171142Y-52927380D01*
X136171142Y-52927380D02*
X136075904Y-52975000D01*
X136075904Y-52975000D02*
X136028285Y-53022619D01*
X136028285Y-53022619D02*
X135980666Y-53117857D01*
X135980666Y-53117857D02*
X135980666Y-53260714D01*
X135980666Y-53260714D02*
X136028285Y-53355952D01*
X136028285Y-53355952D02*
X136075904Y-53403571D01*
X136075904Y-53403571D02*
X136171142Y-53451190D01*
X136171142Y-53451190D02*
X136552094Y-53451190D01*
X135599713Y-53022619D02*
X135552094Y-52975000D01*
X135552094Y-52975000D02*
X135456856Y-52927380D01*
X135456856Y-52927380D02*
X135218761Y-52927380D01*
X135218761Y-52927380D02*
X135123523Y-52975000D01*
X135123523Y-52975000D02*
X135075904Y-53022619D01*
X135075904Y-53022619D02*
X135028285Y-53117857D01*
X135028285Y-53117857D02*
X135028285Y-53213095D01*
X135028285Y-53213095D02*
X135075904Y-53355952D01*
X135075904Y-53355952D02*
X135647332Y-53927380D01*
X135647332Y-53927380D02*
X135028285Y-53927380D01*
X132625380Y-89736905D02*
X131625380Y-89736905D01*
X131625380Y-89736905D02*
X131625380Y-89975000D01*
X131625380Y-89975000D02*
X131673000Y-90117857D01*
X131673000Y-90117857D02*
X131768238Y-90213095D01*
X131768238Y-90213095D02*
X131863476Y-90260714D01*
X131863476Y-90260714D02*
X132053952Y-90308333D01*
X132053952Y-90308333D02*
X132196809Y-90308333D01*
X132196809Y-90308333D02*
X132387285Y-90260714D01*
X132387285Y-90260714D02*
X132482523Y-90213095D01*
X132482523Y-90213095D02*
X132577761Y-90117857D01*
X132577761Y-90117857D02*
X132625380Y-89975000D01*
X132625380Y-89975000D02*
X132625380Y-89736905D01*
X131625380Y-90641667D02*
X131625380Y-91260714D01*
X131625380Y-91260714D02*
X132006333Y-90927381D01*
X132006333Y-90927381D02*
X132006333Y-91070238D01*
X132006333Y-91070238D02*
X132053952Y-91165476D01*
X132053952Y-91165476D02*
X132101571Y-91213095D01*
X132101571Y-91213095D02*
X132196809Y-91260714D01*
X132196809Y-91260714D02*
X132434904Y-91260714D01*
X132434904Y-91260714D02*
X132530142Y-91213095D01*
X132530142Y-91213095D02*
X132577761Y-91165476D01*
X132577761Y-91165476D02*
X132625380Y-91070238D01*
X132625380Y-91070238D02*
X132625380Y-90784524D01*
X132625380Y-90784524D02*
X132577761Y-90689286D01*
X132577761Y-90689286D02*
X132530142Y-90641667D01*
D10*
X157960000Y-44900000D02*
X157960000Y-50100000D01*
X107040000Y-44900000D02*
X157960000Y-44900000D01*
X107040000Y-44900000D02*
X107040000Y-47500000D01*
X109640000Y-47500000D02*
X109640000Y-50100000D01*
X107040000Y-47500000D02*
X109640000Y-47500000D01*
X107040000Y-48770000D02*
X107040000Y-50100000D01*
X109640000Y-50100000D02*
X157960000Y-50100000D01*
X107040000Y-50100000D02*
X108370000Y-50100000D01*
X104050000Y-89672000D02*
X104050000Y-92102000D01*
X100990000Y-89652000D02*
X100990000Y-91502000D01*
X102040000Y-89652000D02*
X100990000Y-89652000D01*
X104040000Y-89652000D02*
X103040000Y-89652000D01*
X140166936Y-50830000D02*
X141621064Y-50830000D01*
X140166936Y-52650000D02*
X141621064Y-52650000D01*
X109208000Y-92760000D02*
X109208000Y-88875000D01*
X112128000Y-92760000D02*
X109208000Y-92760000D01*
X112128000Y-88875000D02*
X112128000Y-92760000D01*
G36*
X155971708Y-84973784D02*
G01*
X156054667Y-84973977D01*
X156132037Y-84974452D01*
X156201491Y-84975173D01*
X156260704Y-84976104D01*
X156307350Y-84977207D01*
X156339102Y-84978448D01*
X156353634Y-84979790D01*
X156355427Y-84980269D01*
X156361948Y-84982405D01*
X156367649Y-84986182D01*
X156372967Y-84993360D01*
X156378339Y-85005695D01*
X156384203Y-85024946D01*
X156390995Y-85052870D01*
X156399153Y-85091225D01*
X156409114Y-85141769D01*
X156421315Y-85206260D01*
X156436193Y-85286456D01*
X156454186Y-85384115D01*
X156460122Y-85416207D01*
X156477978Y-85510537D01*
X156493128Y-85586695D01*
X156505769Y-85645564D01*
X156516095Y-85688024D01*
X156524305Y-85714959D01*
X156530594Y-85727250D01*
X156530658Y-85727311D01*
X156544091Y-85735086D01*
X156572981Y-85748646D01*
X156614542Y-85766877D01*
X156665987Y-85788663D01*
X156724531Y-85812889D01*
X156787386Y-85838441D01*
X156851767Y-85864202D01*
X156914887Y-85889059D01*
X156973960Y-85911895D01*
X157026199Y-85931597D01*
X157068818Y-85947048D01*
X157099030Y-85957134D01*
X157114050Y-85960740D01*
X157125686Y-85955787D01*
X157151680Y-85940870D01*
X157189903Y-85917227D01*
X157238409Y-85886107D01*
X157295254Y-85848759D01*
X157358491Y-85806432D01*
X157426175Y-85760375D01*
X157491123Y-85716167D01*
X157554589Y-85673661D01*
X157611744Y-85636083D01*
X157660644Y-85604683D01*
X157699343Y-85580707D01*
X157725895Y-85565407D01*
X157738354Y-85560029D01*
X157739543Y-85560208D01*
X157754724Y-85569596D01*
X157783045Y-85593147D01*
X157824360Y-85630724D01*
X157878524Y-85682195D01*
X157945394Y-85747423D01*
X158024825Y-85826276D01*
X158048033Y-85849512D01*
X158123128Y-85925362D01*
X158184142Y-85988173D01*
X158231267Y-86038150D01*
X158264692Y-86075497D01*
X158284608Y-86100420D01*
X158291204Y-86113123D01*
X158286937Y-86123596D01*
X158272671Y-86148793D01*
X158249598Y-86186292D01*
X158218984Y-86234123D01*
X158182090Y-86290314D01*
X158140182Y-86352893D01*
X158094523Y-86419891D01*
X158053811Y-86479577D01*
X158011429Y-86542756D01*
X157973925Y-86599771D01*
X157942563Y-86648650D01*
X157918606Y-86687421D01*
X157903317Y-86714112D01*
X157897958Y-86726752D01*
X157898927Y-86731907D01*
X157907227Y-86754045D01*
X157922644Y-86788040D01*
X157943506Y-86830311D01*
X157968143Y-86877275D01*
X157972955Y-86886240D01*
X157999312Y-86937413D01*
X158018771Y-86979004D01*
X158030277Y-87008620D01*
X158032776Y-87023870D01*
X158025017Y-87030240D01*
X158000828Y-87043304D01*
X157960004Y-87062760D01*
X157902283Y-87088725D01*
X157827401Y-87121314D01*
X157735095Y-87160644D01*
X157625100Y-87206830D01*
X157497153Y-87259990D01*
X157389541Y-87304511D01*
X157271148Y-87353481D01*
X157168691Y-87395824D01*
X157080993Y-87432007D01*
X157006877Y-87462497D01*
X156945163Y-87487762D01*
X156894675Y-87508267D01*
X156854234Y-87524480D01*
X156822662Y-87536867D01*
X156798781Y-87545895D01*
X156781414Y-87552032D01*
X156769381Y-87555744D01*
X156761506Y-87557498D01*
X156756610Y-87557760D01*
X156753516Y-87556998D01*
X156751045Y-87555678D01*
X156750376Y-87555229D01*
X156739215Y-87543275D01*
X156719780Y-87518932D01*
X156694617Y-87485485D01*
X156666267Y-87446216D01*
X156596457Y-87356552D01*
X156507958Y-87266186D01*
X156412862Y-87193470D01*
X156309963Y-87137645D01*
X156198055Y-87097948D01*
X156075933Y-87073620D01*
X155978933Y-87067152D01*
X155862148Y-87076062D01*
X155749018Y-87102383D01*
X155641242Y-87144946D01*
X155540517Y-87202580D01*
X155448541Y-87274116D01*
X155367010Y-87358384D01*
X155297623Y-87454214D01*
X155242077Y-87560437D01*
X155202069Y-87675881D01*
X155191633Y-87725231D01*
X155182282Y-87810406D01*
X155180863Y-87900813D01*
X155187378Y-87988822D01*
X155201833Y-88066801D01*
X155237125Y-88172610D01*
X155292647Y-88283545D01*
X155363448Y-88383625D01*
X155448289Y-88471590D01*
X155545931Y-88546177D01*
X155655134Y-88606125D01*
X155774659Y-88650170D01*
X155803624Y-88657919D01*
X155839668Y-88665224D01*
X155878061Y-88669631D01*
X155924523Y-88671739D01*
X155984778Y-88672145D01*
X156034377Y-88671413D01*
X156102079Y-88667323D01*
X156160818Y-88658346D01*
X156216907Y-88642999D01*
X156276657Y-88619803D01*
X156346379Y-88587275D01*
X156355286Y-88582884D01*
X156398993Y-88560220D01*
X156434148Y-88538924D01*
X156466167Y-88515029D01*
X156500461Y-88484568D01*
X156542446Y-88443572D01*
X156580351Y-88403721D01*
X156622207Y-88355864D01*
X156659846Y-88309133D01*
X156688192Y-88269590D01*
X156702083Y-88248634D01*
X156727287Y-88214309D01*
X156746242Y-88195006D01*
X156760529Y-88188963D01*
X156772304Y-88192349D01*
X156800496Y-88202619D01*
X156843149Y-88219033D01*
X156898453Y-88240841D01*
X156964598Y-88267296D01*
X157039775Y-88297649D01*
X157122175Y-88331152D01*
X157209988Y-88367057D01*
X157301405Y-88404615D01*
X157394616Y-88443078D01*
X157487812Y-88481697D01*
X157579183Y-88519725D01*
X157666920Y-88556413D01*
X157749214Y-88591013D01*
X157824255Y-88622777D01*
X157890233Y-88650955D01*
X157945339Y-88674801D01*
X157987765Y-88693565D01*
X158015699Y-88706499D01*
X158027333Y-88712855D01*
X158028808Y-88714431D01*
X158032396Y-88722027D01*
X158031648Y-88733754D01*
X158025559Y-88752219D01*
X158013124Y-88780026D01*
X157993341Y-88819783D01*
X157965204Y-88874095D01*
X157888416Y-89020998D01*
X157951618Y-89115619D01*
X157962184Y-89131368D01*
X157990826Y-89173716D01*
X158026787Y-89226557D01*
X158067507Y-89286147D01*
X158110431Y-89348739D01*
X158152999Y-89410587D01*
X158182101Y-89453222D01*
X158217311Y-89506099D01*
X158247347Y-89552693D01*
X158270687Y-89590580D01*
X158285809Y-89617338D01*
X158291190Y-89630544D01*
X158290849Y-89632069D01*
X158281296Y-89646495D01*
X158259965Y-89671977D01*
X158228658Y-89706714D01*
X158189179Y-89748903D01*
X158143332Y-89796745D01*
X158092919Y-89848436D01*
X158039746Y-89902177D01*
X157985614Y-89956165D01*
X157932328Y-90008600D01*
X157881691Y-90057679D01*
X157835507Y-90101602D01*
X157795578Y-90138567D01*
X157763710Y-90166772D01*
X157741704Y-90184418D01*
X157731366Y-90189701D01*
X157720671Y-90183345D01*
X157695658Y-90167115D01*
X157658311Y-90142319D01*
X157610535Y-90110236D01*
X157554234Y-90072145D01*
X157491312Y-90029324D01*
X157423674Y-89983053D01*
X157357381Y-89937865D01*
X157294284Y-89895402D01*
X157237702Y-89857875D01*
X157189544Y-89826525D01*
X157151718Y-89802595D01*
X157126133Y-89787326D01*
X157114696Y-89781960D01*
X157111180Y-89782563D01*
X157091119Y-89788852D01*
X157057011Y-89801105D01*
X157011546Y-89818238D01*
X156957414Y-89839169D01*
X156897306Y-89862815D01*
X156833912Y-89888092D01*
X156769922Y-89913918D01*
X156708026Y-89939208D01*
X156650915Y-89962881D01*
X156601280Y-89983852D01*
X156561810Y-90001039D01*
X156535196Y-90013359D01*
X156524129Y-90019727D01*
X156524017Y-90019888D01*
X156520079Y-90032731D01*
X156513146Y-90062493D01*
X156503669Y-90106969D01*
X156492095Y-90163952D01*
X156478873Y-90231236D01*
X156464452Y-90306616D01*
X156449279Y-90387886D01*
X156433527Y-90472392D01*
X156416646Y-90560242D01*
X156402438Y-90630587D01*
X156390684Y-90684422D01*
X156381163Y-90722742D01*
X156373658Y-90746542D01*
X156367947Y-90756816D01*
X156355012Y-90760117D01*
X156325045Y-90763069D01*
X156280837Y-90765509D01*
X156224985Y-90767440D01*
X156160090Y-90768866D01*
X156088748Y-90769788D01*
X156013559Y-90770210D01*
X155937122Y-90770135D01*
X155862035Y-90769566D01*
X155790896Y-90768506D01*
X155726305Y-90766957D01*
X155670859Y-90764922D01*
X155627158Y-90762405D01*
X155597799Y-90759409D01*
X155585383Y-90755936D01*
X155585036Y-90755398D01*
X155580445Y-90740834D01*
X155572885Y-90709507D01*
X155562813Y-90663609D01*
X155550688Y-90605330D01*
X155536965Y-90536864D01*
X155522102Y-90460403D01*
X155506558Y-90378137D01*
X155490853Y-90295219D01*
X155475316Y-90215991D01*
X155461068Y-90146163D01*
X155448530Y-90087706D01*
X155438127Y-90042588D01*
X155430281Y-90012778D01*
X155425414Y-90000246D01*
X155415579Y-89994209D01*
X155389755Y-89981342D01*
X155351097Y-89963309D01*
X155302394Y-89941310D01*
X155246432Y-89916540D01*
X155185999Y-89890199D01*
X155123883Y-89863484D01*
X155062871Y-89837592D01*
X155005750Y-89813722D01*
X154955309Y-89793072D01*
X154914334Y-89776838D01*
X154885613Y-89766220D01*
X154871933Y-89762414D01*
X154870802Y-89762649D01*
X154856156Y-89770178D01*
X154827694Y-89787418D01*
X154787263Y-89813165D01*
X154736711Y-89846213D01*
X154677884Y-89885358D01*
X154612632Y-89929394D01*
X154542800Y-89977116D01*
X154527864Y-89987374D01*
X154458971Y-90034407D01*
X154395155Y-90077521D01*
X154338246Y-90115509D01*
X154290075Y-90147168D01*
X154252470Y-90171293D01*
X154227260Y-90186679D01*
X154216277Y-90192122D01*
X154206385Y-90185510D01*
X154184683Y-90166717D01*
X154153009Y-90137566D01*
X154113198Y-90099878D01*
X154067084Y-90055475D01*
X154016503Y-90006176D01*
X153963288Y-89953806D01*
X153909275Y-89900184D01*
X153856299Y-89847132D01*
X153806193Y-89796472D01*
X153760794Y-89750025D01*
X153721935Y-89709613D01*
X153691452Y-89677056D01*
X153671179Y-89654178D01*
X153662951Y-89642798D01*
X153663841Y-89636710D01*
X153673311Y-89616458D01*
X153692888Y-89582709D01*
X153722858Y-89535009D01*
X153763511Y-89472902D01*
X153815135Y-89395933D01*
X153878017Y-89303649D01*
X153893697Y-89280741D01*
X153940965Y-89211253D01*
X153984203Y-89147061D01*
X154022231Y-89089959D01*
X154053866Y-89041745D01*
X154077925Y-89004215D01*
X154093228Y-88979166D01*
X154098591Y-88968395D01*
X154097314Y-88962196D01*
X154089607Y-88938992D01*
X154075959Y-88902409D01*
X154057565Y-88855316D01*
X154035617Y-88800583D01*
X154011310Y-88741076D01*
X153985837Y-88679666D01*
X153960391Y-88619219D01*
X153936165Y-88562606D01*
X153914355Y-88512694D01*
X153896152Y-88472352D01*
X153882751Y-88444449D01*
X153875345Y-88431852D01*
X153867766Y-88427622D01*
X153844783Y-88420118D01*
X153806450Y-88410423D01*
X153751978Y-88398363D01*
X153680575Y-88383766D01*
X153591449Y-88366458D01*
X153483809Y-88346267D01*
X153464207Y-88342627D01*
X153381862Y-88327077D01*
X153305803Y-88312311D01*
X153238187Y-88298777D01*
X153181174Y-88286919D01*
X153136921Y-88277186D01*
X153107588Y-88270024D01*
X153095332Y-88265879D01*
X153092000Y-88254404D01*
X153088975Y-88225751D01*
X153086430Y-88182637D01*
X153084368Y-88127662D01*
X153082792Y-88063424D01*
X153081705Y-87992521D01*
X153081110Y-87917554D01*
X153081009Y-87841119D01*
X153081406Y-87765817D01*
X153082304Y-87694246D01*
X153083706Y-87629004D01*
X153085615Y-87572690D01*
X153088035Y-87527903D01*
X153090968Y-87497242D01*
X153094417Y-87483305D01*
X153101006Y-87479127D01*
X153121477Y-87472075D01*
X153156257Y-87463080D01*
X153206345Y-87451925D01*
X153272742Y-87438388D01*
X153356447Y-87422251D01*
X153458461Y-87403293D01*
X153508417Y-87394124D01*
X153601259Y-87376990D01*
X153677353Y-87362742D01*
X153738393Y-87350998D01*
X153786072Y-87341378D01*
X153822086Y-87333499D01*
X153848128Y-87326979D01*
X153865892Y-87321437D01*
X153877073Y-87316491D01*
X153883364Y-87311760D01*
X153886461Y-87306861D01*
X153886690Y-87306298D01*
X153892436Y-87292265D01*
X153904491Y-87262894D01*
X153921855Y-87220616D01*
X153943530Y-87167861D01*
X153968519Y-87107058D01*
X153995824Y-87040637D01*
X154010516Y-87004813D01*
X154038723Y-86935248D01*
X154060206Y-86880708D01*
X154075661Y-86839155D01*
X154085786Y-86808554D01*
X154091276Y-86786870D01*
X154092829Y-86772066D01*
X154091142Y-86762107D01*
X154090972Y-86761683D01*
X154082773Y-86747256D01*
X154064814Y-86718846D01*
X154038386Y-86678397D01*
X154004782Y-86627855D01*
X153965295Y-86569165D01*
X153921217Y-86504271D01*
X153873840Y-86435119D01*
X153869440Y-86428722D01*
X153822623Y-86360381D01*
X153779448Y-86296883D01*
X153741164Y-86240097D01*
X153709018Y-86191895D01*
X153684259Y-86154147D01*
X153668136Y-86128724D01*
X153661897Y-86117497D01*
X153663683Y-86112661D01*
X153677590Y-86094138D01*
X153704627Y-86063246D01*
X153744142Y-86020680D01*
X153795487Y-85967136D01*
X153858010Y-85903308D01*
X153931061Y-85829891D01*
X153933481Y-85827475D01*
X154003245Y-85758005D01*
X154060679Y-85701283D01*
X154107088Y-85656129D01*
X154143776Y-85621362D01*
X154172047Y-85595803D01*
X154193205Y-85578270D01*
X154208554Y-85567585D01*
X154219399Y-85562565D01*
X154227043Y-85562033D01*
X154227359Y-85562108D01*
X154241259Y-85569142D01*
X154269161Y-85586006D01*
X154309128Y-85611434D01*
X154359223Y-85644161D01*
X154417507Y-85682923D01*
X154482044Y-85726454D01*
X154550896Y-85773490D01*
X154618307Y-85819476D01*
X154684392Y-85863821D01*
X154743439Y-85902681D01*
X154793655Y-85934907D01*
X154833250Y-85959349D01*
X154860430Y-85974859D01*
X154873405Y-85980287D01*
X154879818Y-85979096D01*
X154903702Y-85971333D01*
X154940958Y-85957384D01*
X154988732Y-85938468D01*
X155044171Y-85915807D01*
X155104422Y-85890619D01*
X155166633Y-85864125D01*
X155227949Y-85837544D01*
X155285518Y-85812097D01*
X155336486Y-85789003D01*
X155378001Y-85769483D01*
X155407209Y-85754756D01*
X155421257Y-85746042D01*
X155425293Y-85740275D01*
X155431676Y-85724645D01*
X155439263Y-85698797D01*
X155448392Y-85661219D01*
X155459402Y-85610403D01*
X155472631Y-85544839D01*
X155488418Y-85463017D01*
X155507102Y-85363429D01*
X155514173Y-85325507D01*
X155532122Y-85230825D01*
X155547276Y-85153682D01*
X155559922Y-85092786D01*
X155570347Y-85046847D01*
X155578839Y-85014574D01*
X155585685Y-84994677D01*
X155591172Y-84985866D01*
X155594753Y-84984082D01*
X155608932Y-84981031D01*
X155633762Y-84978585D01*
X155670725Y-84976698D01*
X155721302Y-84975321D01*
X155786976Y-84974408D01*
X155869229Y-84973911D01*
X155969544Y-84973783D01*
X155971708Y-84973784D01*
G37*
X104297000Y-86376064D02*
X104297000Y-84921936D01*
X106117000Y-86376064D02*
X106117000Y-84921936D01*
X138164000Y-92760000D02*
X138164000Y-88875000D01*
X141084000Y-92760000D02*
X138164000Y-92760000D01*
X141084000Y-88875000D02*
X141084000Y-92760000D01*
X115346000Y-91202064D02*
X115346000Y-89747936D01*
X117166000Y-91202064D02*
X117166000Y-89747936D01*
X105694000Y-91202064D02*
X105694000Y-89747936D01*
X107514000Y-91202064D02*
X107514000Y-89747936D01*
X124926936Y-50830000D02*
X126381064Y-50830000D01*
X124926936Y-52650000D02*
X126381064Y-52650000D01*
X118860000Y-92760000D02*
X118860000Y-88875000D01*
X121780000Y-92760000D02*
X118860000Y-92760000D01*
X121780000Y-88875000D02*
X121780000Y-92760000D01*
X125894000Y-94458000D02*
X125894000Y-96888000D01*
X122834000Y-94438000D02*
X122834000Y-96288000D01*
X123884000Y-94438000D02*
X122834000Y-94438000D01*
X125884000Y-94438000D02*
X124884000Y-94438000D01*
X144484936Y-68356000D02*
X145939064Y-68356000D01*
X144484936Y-70176000D02*
X145939064Y-70176000D01*
X104876748Y-52862000D02*
X106299252Y-52862000D01*
X104876748Y-54682000D02*
X106299252Y-54682000D01*
X138482000Y-59678000D02*
X142367000Y-59678000D01*
X138482000Y-62598000D02*
X138482000Y-59678000D01*
X142367000Y-62598000D02*
X138482000Y-62598000D01*
X146468000Y-76718000D02*
X146468000Y-79148000D01*
X143408000Y-76698000D02*
X143408000Y-78548000D01*
X144458000Y-76698000D02*
X143408000Y-76698000D01*
X146458000Y-76698000D02*
X145458000Y-76698000D01*
X134650000Y-91202064D02*
X134650000Y-89747936D01*
X136470000Y-91202064D02*
X136470000Y-89747936D01*
X135546000Y-94498000D02*
X135546000Y-96928000D01*
X132486000Y-94478000D02*
X132486000Y-96328000D01*
X133536000Y-94478000D02*
X132486000Y-94478000D01*
X135536000Y-94478000D02*
X134536000Y-94478000D01*
X116176000Y-94498000D02*
X116176000Y-96928000D01*
X113116000Y-94478000D02*
X113116000Y-96328000D01*
X114166000Y-94478000D02*
X113116000Y-94478000D01*
X116166000Y-94478000D02*
X115166000Y-94478000D01*
X124998000Y-91202064D02*
X124998000Y-89747936D01*
X126818000Y-91202064D02*
X126818000Y-89747936D01*
X144484936Y-72166000D02*
X145939064Y-72166000D01*
X144484936Y-73986000D02*
X145939064Y-73986000D01*
X138482000Y-63996000D02*
X142367000Y-63996000D01*
X138482000Y-66916000D02*
X138482000Y-63996000D01*
X142367000Y-66916000D02*
X138482000Y-66916000D01*
X100826000Y-87934000D02*
X100826000Y-84049000D01*
X103746000Y-87934000D02*
X100826000Y-87934000D01*
X103746000Y-84049000D02*
X103746000Y-87934000D01*
X140166936Y-54386000D02*
X141621064Y-54386000D01*
X140166936Y-56206000D02*
X141621064Y-56206000D01*
X130006936Y-50830000D02*
X131461064Y-50830000D01*
X130006936Y-52650000D02*
X131461064Y-52650000D01*
X135086936Y-50830000D02*
X136541064Y-50830000D01*
X135086936Y-52650000D02*
X136541064Y-52650000D01*
X128385000Y-92760000D02*
X128385000Y-88875000D01*
X131305000Y-92760000D02*
X128385000Y-92760000D01*
X131305000Y-88875000D02*
X131305000Y-92760000D01*
M02*
